<?xml version="1.0" encoding="UTF-8" standalone="no"?>
<svg width="26px" height="23px" viewBox="0 0 26 23" version="1.1" xmlns="http://www.w3.org/2000/svg" xmlns:xlink="http://www.w3.org/1999/xlink" xmlns:sketch="http://www.bohemiancoding.com/sketch/ns">
    <!-- Generator: Sketch 3.3.2 (12043) - http://www.bohemiancoding.com/sketch -->
    <title>iconCart</title>
    <desc>Created with Sketch.</desc>
    <defs></defs>
    <g id="Page-1" stroke="none" stroke-width="1" fill="none" fill-rule="evenodd" sketch:type="MSPage">
        <g id="1.1" sketch:type="MSArtboardGroup" transform="translate(-1244.000000, -65.000000)" fill="#ACACB5">
            <g id="header" sketch:type="MSLayerGroup">
                <g id="order" transform="translate(1244.000000, 64.000000)" sketch:type="MSShapeGroup">
                    <path d="M12.9452417,21.3680402 C12.9452417,22.5147068 12.0157001,23.4442484 10.8690335,23.4442484 C9.7223669,23.4442484 8.79286695,22.5147068 8.79286695,21.3680402 C8.79286695,20.2214153 9.72240856,19.2918737 10.8690335,19.2918737 C12.0157001,19.2918737 12.9452417,20.2214153 12.9452417,21.3680402 L12.9452417,21.3680402 Z M19.2756581,19.2918737 C18.1290331,19.2918737 17.1994915,20.2214153 17.1994915,21.3680402 C17.1994915,22.5147068 18.1290331,23.4442484 19.2756581,23.4442484 C20.4223247,23.4442484 21.3518663,22.5147068 21.3518663,21.3680402 C21.3518663,20.2214153 20.4223247,19.2918737 19.2756581,19.2918737 L19.2756581,19.2918737 Z M25.7203244,9.54537418 L23.1656162,17.1384988 C23.1656162,17.1384988 22.9541579,18.265332 21.8766996,18.265332 L8.9765336,18.265332 C7.69070034,18.265332 7.63665868,16.8529155 7.63665868,16.8529155 C7.63665868,16.8529155 6.26595042,6.68345766 6.19799209,6.0690827 C6.13007542,5.45470773 5.34436713,4.99937442 5.34436713,4.99937442 L1.96382565,3.4202495 C0.112992413,2.45237456 0.954284034,0.610832989 1.96382565,1.0337913 C6.25049208,3.05591619 8.24178364,4.0515828 8.36990864,4.84808276 C8.4995753,5.64612439 8.72495028,7.56795762 8.72495028,7.56795762 L8.72495028,7.58033262 C8.75115862,7.57258262 8.76970028,7.56795762 8.76970028,7.56795762 L24.5703244,7.56795762 C26.4782827,7.56795762 25.7203244,9.54845751 25.7203244,9.54537418 L25.7203244,9.54537418 Z M22.0248662,13.7733739 L21.9986162,13.7749156 L9.49211691,13.7749156 L9.74990856,15.8187072 L21.4166996,15.8187072 L22.0248662,13.7733739 L22.0248662,13.7733739 Z M23.2428245,9.65187417 L8.97499194,9.65187417 L9.24978359,11.8361241 L22.5975745,11.8361241 L23.2428245,9.65187417 L23.2428245,9.65187417 Z" id="iconCart"></path>
                </g>
            </g>
        </g>
    </g>
</svg>