<?xml version="1.0" encoding="UTF-8" standalone="no"?>
<svg width="18px" height="18px" viewBox="0 0 18 18" version="1.1" xmlns="http://www.w3.org/2000/svg" xmlns:xlink="http://www.w3.org/1999/xlink" xmlns:sketch="http://www.bohemiancoding.com/sketch/ns">
    <!-- Generator: Sketch 3.3.2 (12043) - http://www.bohemiancoding.com/sketch -->
    <title>iconCheck</title>
    <desc>Created with Sketch.</desc>
    <defs></defs>
    <g id="Page-1" stroke="none" stroke-width="1" fill="none" fill-rule="evenodd" sketch:type="MSPage">
        <g id="4.2" sketch:type="MSArtboardGroup" transform="translate(-1147.000000, -667.000000)" fill="#353637">
            <g id="content" sketch:type="MSLayerGroup" transform="translate(410.000000, 195.000000)">
                <g id="2" transform="translate(1.000000, 331.000000)" sketch:type="MSShapeGroup">
                    <g id="options" transform="translate(10.000000, 70.000000)">
                        <g id="company" transform="translate(399.000000, 0.000000)">
                            <g id="active-copy" transform="translate(0.000000, 6.000000)">
                                <g id="number" transform="translate(0.000000, 33.000000)">
                                    <path d="M341.330374,39.0490965 C341.330374,39.2388288 341.26341,39.4174005 341.129481,39.5513292 L335.069206,45.6116043 C334.935277,45.745533 334.745545,45.8236581 334.555813,45.8236581 C334.377241,45.8236581 334.187509,45.745533 334.05358,45.6116043 L330.013396,41.5714209 C329.879468,41.4374922 329.812503,41.2589205 329.812503,41.0691882 C329.812503,40.8794558 329.879468,40.6897234 330.013396,40.5557947 L331.029023,39.5513292 C331.162951,39.4174005 331.341523,39.3392754 331.531255,39.3392754 C331.720988,39.3392754 331.899559,39.4174005 332.033488,39.5513292 L334.555813,42.0736536 L339.109389,37.5312375 C339.243318,37.3973088 339.42189,37.3191837 339.611622,37.3191837 C339.801355,37.3191837 339.979926,37.3973088 340.113855,37.5312375 L341.129481,38.535703 C341.26341,38.6696317 341.330374,38.8593641 341.330374,39.0490965 L341.330374,39.0490965 Z M344.142878,40.8571343 C344.142878,36.1249858 340.303587,32.2856956 335.571439,32.2856956 C330.83929,32.2856956 327,36.1249858 327,40.8571343 C327,45.5892828 330.83929,49.4285731 335.571439,49.4285731 C340.303587,49.4285731 344.142878,45.5892828 344.142878,40.8571343 L344.142878,40.8571343 Z" id="iconCheck"></path>
                                </g>
                            </g>
                        </g>
                    </g>
                </g>
            </g>
        </g>
    </g>
</svg>