<?xml version="1.0" encoding="UTF-8" standalone="no"?>
<svg width="13px" height="13px" viewBox="0 0 13 13" version="1.1" xmlns="http://www.w3.org/2000/svg" xmlns:xlink="http://www.w3.org/1999/xlink" xmlns:sketch="http://www.bohemiancoding.com/sketch/ns">
    <!-- Generator: Sketch 3.3.2 (12043) - http://www.bohemiancoding.com/sketch -->
    <title>iconPhone</title>
    <desc>Created with Sketch.</desc>
    <defs></defs>
    <g id="Page-1" stroke="none" stroke-width="1" fill="none" fill-rule="evenodd" sketch:type="MSPage">
        <g id="3" sketch:type="MSArtboardGroup" transform="translate(-219.000000, -1289.000000)" fill="#ACACB5">
            <g id="footer" sketch:type="MSLayerGroup" transform="translate(208.500000, 1136.000000)">
                <g id="left" transform="translate(11.000000, 152.000000)" sketch:type="MSShapeGroup">
                    <g id="number">
                        <path d="M11.7857283,11.0223185 C11.7857283,10.9637247 11.7857283,10.9051308 11.7606167,10.846537 C11.7020229,10.6707556 11.2918661,10.4866036 11.1244552,10.4028981 C10.6473341,10.1350406 10.1618425,9.87555372 9.69309191,9.59932571 C9.47545772,9.46539698 9.20760026,9.21428061 8.94811335,9.21428061 C8.43751006,9.21428061 7.69253149,10.7293494 7.24052202,10.7293494 C7.01451729,10.7293494 6.72154819,10.5200857 6.52065509,10.4028981 C4.99721578,9.55747298 3.94252702,8.50278422 3.09710191,6.97934491 C2.97991427,6.77845181 2.77065062,6.48548271 2.77065062,6.25947798 C2.77065062,5.80746851 4.28571939,5.06248994 4.28571939,4.55188665 C4.28571939,4.29239974 4.03460302,4.02454228 3.90067429,3.80690809 C3.62444628,3.33815753 3.36495937,2.85266588 3.09710191,2.37554477 C3.01339645,2.20813386 2.82924444,1.79797712 2.65346298,1.7393833 C2.59486916,1.71427166 2.53627534,1.71427166 2.47768153,1.71427166 C2.17634188,1.71427166 1.59040368,1.8482004 1.31417567,1.97375858 C0.904018935,2.14954004 0.636161473,2.6182906 0.42689783,2.99496516 C0.159040368,3.48882735 0,3.99106009 0,4.55188665 C0,5.3303474 0.318080736,6.03347324 0.577567653,6.74496963 C0.761719658,7.25557291 0.987724392,7.74943511 1.27232295,8.20981512 C2.15123024,9.63280789 3.86719211,11.3487698 5.29018488,12.2276771 C5.75056489,12.5122756 6.24442709,12.7382803 6.75503037,12.9224323 C7.46652676,13.1819193 8.1696526,13.5 8.94811335,13.5 C9.50893991,13.5 10.0111726,13.3409596 10.5050348,13.0731022 C10.8817094,12.8638385 11.35046,12.5959811 11.5262414,12.1858243 C11.6517996,11.9095963 11.7857283,11.3236581 11.7857283,11.0223185 L11.7857283,11.0223185 Z" id="iconPhone"></path>
                    </g>
                </g>
            </g>
        </g>
    </g>
</svg>