<?xml version="1.0" encoding="UTF-8" standalone="no"?>
<svg width="22px" height="17px" viewBox="0 0 22 17" version="1.1" xmlns="http://www.w3.org/2000/svg" xmlns:xlink="http://www.w3.org/1999/xlink" xmlns:sketch="http://www.bohemiancoding.com/sketch/ns">
    <!-- Generator: Sketch 3.3.2 (12043) - http://www.bohemiancoding.com/sketch -->
    <title>veg</title>
    <desc>Created with Sketch.</desc>
    <defs></defs>
    <g id="Page-1" stroke="none" stroke-width="1" fill="none" fill-rule="evenodd" sketch:type="MSPage">
        <g id="1.1" sketch:type="MSArtboardGroup" transform="translate(-520.000000, -269.000000)" fill="#5DB167">
            <g id="content" sketch:type="MSLayerGroup" transform="translate(-1.000000, 155.000000)">
                <g id="products" transform="translate(211.000000, 59.000000)" sketch:type="MSShapeGroup">
                    <g id="2" transform="translate(300.000000, 0.000000)">
                        <g id="title+tags" transform="translate(10.000000, 10.000000)">
                            <g id="tags" transform="translate(0.000000, 38.000000)">
                                <g id="1">
                                    <path d="M15.0162338,13.7573052 C15.0162338,14.1679053 14.6760222,14.5081169 14.2654221,14.5081169 C11.3794897,14.5081169 9.56111759,15.27066 7.43772829,17.1828835 C6.87461952,17.710798 6.35843649,18.2739068 5.78359629,18.7900898 C5.63108766,18.930867 5.46684761,19.012987 5.25568182,19.012987 C4.84508168,19.012987 4.50487013,18.6727755 4.50487013,18.2621753 C4.50487013,18.0510095 4.58699016,17.8867695 4.72776735,17.7342609 C7.43772829,14.7427455 10.1124949,13.0064935 14.2654221,13.0064935 C14.6760222,13.0064935 15.0162338,13.3467051 15.0162338,13.7573052 L15.0162338,13.7573052 Z M21.0227273,11.4344815 C21.0227273,10.4373098 20.5886643,7 19.2630124,7 C18.277572,7 17.9608234,7.55137733 17.3155946,8.1496804 C15.6849254,9.6982295 10.5700208,8.77144633 8.16507711,9.56918375 C4.83335024,10.6719384 1.86529779,13.3349736 1.86529779,17.0655692 C1.86529779,17.4761693 1.90049209,17.8867695 1.97088068,18.2856382 C2.01780641,18.5202668 2.32282366,19.1420328 2.32282366,19.2476157 C2.32282366,19.9280388 0,20.8782848 0,22.0983538 C0,22.3447139 0.0821200284,22.4151025 0.187702922,22.6145368 C0.504451603,23.1541827 0.727348823,23.5178571 1.46642908,23.5178571 C2.48706372,23.5178571 3.19094968,21.1246449 3.77752131,21.1246449 C4.24677861,21.1246449 5.37299614,21.8637251 5.93610491,22.0514281 C7.00366528,22.4151025 8.16507711,22.6028054 9.29129464,22.6028054 C11.0744724,22.6028054 12.8459187,22.1335481 14.4296621,21.3358107 C17.6910004,19.716873 20.0372869,17.3471236 20.7880986,13.698648 C20.9406072,12.9478363 21.0227273,12.1852932 21.0227273,11.4344815 L21.0227273,11.4344815 Z" id="veg"></path>
                                </g>
                            </g>
                        </g>
                    </g>
                </g>
            </g>
        </g>
    </g>
</svg>