<?xml version="1.0" encoding="UTF-8" standalone="no"?>
<svg width="22px" height="21px" viewBox="0 0 22 21" version="1.1" xmlns="http://www.w3.org/2000/svg" xmlns:xlink="http://www.w3.org/1999/xlink" xmlns:sketch="http://www.bohemiancoding.com/sketch/ns">
    <!-- Generator: Sketch 3.3.2 (12043) - http://www.bohemiancoding.com/sketch -->
    <title>chili</title>
    <desc>Created with Sketch.</desc>
    <defs></defs>
    <g id="Page-1" stroke="none" stroke-width="1" fill="none" fill-rule="evenodd" sketch:type="MSPage">
        <g id="1.1" sketch:type="MSArtboardGroup" transform="translate(-220.000000, -569.000000)" fill="#DD5F54">
            <g id="content" sketch:type="MSLayerGroup" transform="translate(-1.000000, 155.000000)">
                <g id="products" transform="translate(211.000000, 59.000000)" sketch:type="MSShapeGroup">
                    <g id="3" transform="translate(0.000000, 300.000000)">
                        <g id="title+tags" transform="translate(10.000000, 10.000000)">
                            <g id="tags" transform="translate(0.000000, 38.000000)">
                                <g id="1" transform="translate(0.000000, 2.000000)">
                                    <path d="M21.2913062,5.73801983 C21.1144462,5.60124812 20.9588094,5.54701106 20.8220377,5.58709932 C20.5579268,5.66020144 20.4848247,5.90544728 20.6003732,6.31576243 C20.631029,6.41952028 20.6711172,6.50912933 20.720638,6.57987333 C21.0484185,6.43366908 21.2394273,6.15305125 21.2913062,5.73801983 L21.2913062,5.73801983 Z M17.9403992,6.12475365 C16.6104121,7.30853643 15.7379029,7.96173928 15.3275878,8.07492967 C15.1436534,8.12916673 14.6508036,8.1126598 13.8466802,8.03484141 L14.9290633,8.95922956 L17.9403992,6.12475365 L17.9403992,6.12475365 Z M21.465808,5.60124812 C21.6002216,6.20021391 21.3384689,6.67419865 20.6781916,7.01848607 C20.4211551,6.43838534 19.9966912,6.23086964 19.4118742,6.39593895 C19.0227822,6.50441307 18.4450396,6.91001195 17.6833627,7.60801933 C16.8603742,8.34611497 16.4948636,8.87905303 16.5868308,9.21154979 C16.6292772,9.36718657 16.7212444,9.58885108 16.8627324,9.87654331 C16.9995041,10.1642355 17.0914713,10.3859 17.1339177,10.543895 C17.2942707,11.1098469 17.2046617,11.5979804 16.8674486,12.0106537 C16.6811561,11.8361519 15.9713581,11.0650424 14.728622,9.68553453 C13.8726197,8.73520692 13.0826451,8.04899021 12.3634145,7.61980999 C12.5119769,7.50661961 12.6676137,7.42408495 12.832683,7.37928042 C13.1062264,7.30382017 13.4906021,7.3274015 13.9834519,7.45709881 C14.4786599,7.58679613 14.8229473,7.62452626 15.0186723,7.5702892 C15.5563267,7.41936869 16.2496178,7.00905354 17.0961875,6.33226936 C17.9451154,5.66020144 18.5841695,5.26403509 19.0133497,5.14612844 C20.0603608,4.85136181 20.8809911,5.00228233 21.465808,5.60124812 L21.465808,5.60124812 Z M10.1491276,8.34611497 C10.2033647,8.61730027 10.137337,9.10071754 9.95340258,9.79400865 C9.82842153,10.2939329 9.11154909,11.6192036 7.80514339,13.7721791 C6.21104546,16.3071721 5.34796877,17.7149775 5.21355519,17.9814465 L5.50832182,18.184246 L8.29799319,13.7438815 C9.72937994,11.590906 10.8424187,10.4047651 11.6347514,10.1807425 C11.7432256,10.1524449 11.8493415,10.1359379 11.9554575,10.1382961 C11.3682824,9.91663157 10.7693166,9.32002391 10.1491276,8.34611497 L10.1491276,8.34611497 Z M17.4499075,13.4538311 C17.6904371,14.3051171 17.4145355,15.1233893 16.6269191,15.9133639 C15.9454186,16.590148 14.9927329,17.2999461 13.7735781,18.0451161 C12.7525065,18.6700214 11.7267186,19.2902104 10.7009308,19.9009668 C9.17993495,20.9220384 7.65658101,21.9383938 6.1355852,22.9571072 C3.97789348,24.3318988 2.43095821,25.1525291 1.4947794,25.4142819 C1.04673412,25.5392629 0.718953628,25.5392629 0.509079788,25.4072075 C0.299205948,25.2775101 0.12942037,24.9827435 0.00208118584,24.5205494 C-0.0215001445,24.4474473 0.155359833,24.1951271 0.530302985,23.7730213 C1.03494345,23.2094275 1.58438845,22.4359598 2.17863797,21.445544 C3.10066799,19.8986087 3.59351779,19.0779784 3.65954552,18.9718624 C4.49432461,17.7196938 5.17582506,16.4604507 5.70640499,15.205924 C6.27471505,13.7085095 6.84538325,12.211095 7.42312584,10.7089643 C8.30742573,8.76586265 9.2836928,7.64103319 10.3542852,7.3415503 C11.0192787,7.15525779 11.8587741,7.45474068 12.8798457,8.24471525 C13.6037925,8.79887651 14.2829348,9.47566069 14.9172726,10.2797841 C15.3936155,10.7773501 15.8699584,11.2749162 16.3486594,11.7724823 C16.945267,12.4091782 17.3131358,12.9656976 17.4499075,13.4538311 L17.4499075,13.4538311 Z" id="chili"></path>
                                </g>
                            </g>
                        </g>
                    </g>
                </g>
            </g>
        </g>
    </g>
</svg>