<?xml version="1.0" encoding="UTF-8" standalone="no"?>
<svg width="18px" height="18px" viewBox="0 0 18 18" version="1.1" xmlns="http://www.w3.org/2000/svg" xmlns:xlink="http://www.w3.org/1999/xlink" xmlns:sketch="http://www.bohemiancoding.com/sketch/ns">
    <!-- Generator: Sketch 3.3.2 (12043) - http://www.bohemiancoding.com/sketch -->
    <title>see</title>
    <desc>Created with Sketch.</desc>
    <defs></defs>
    <g id="Page-1" stroke="none" stroke-width="1" fill="none" fill-rule="evenodd" sketch:type="MSPage">
        <g id="6.2" sketch:type="MSArtboardGroup" transform="translate(-1337.000000, -318.000000)" fill="#ACACB5">
            <g id="content" sketch:type="MSLayerGroup" transform="translate(610.000000, 195.000000)">
                <g id="table" transform="translate(0.000000, 51.000000)" sketch:type="MSShapeGroup">
                    <g id="1" transform="translate(0.000000, 56.000000)">
                        <path d="M738.857156,24.8571343 C738.857156,26.4307969 737.573673,27.7142806 736.00001,27.7142806 C734.426348,27.7142806 733.142864,26.4307969 733.142864,24.8571343 C733.142864,23.2834718 734.426348,21.9999881 736.00001,21.9999881 C737.573673,21.9999881 738.857156,23.2834718 738.857156,24.8571343 L738.857156,24.8571343 Z M744.571449,23.640615 C744.571449,23.4508827 744.43752,23.272311 744.247788,23.2388288 L742.205375,22.9263285 C742.093767,22.5580245 741.937517,22.1897204 741.747785,21.8325772 C742.12725,21.308023 742.540197,20.816951 742.919661,20.3035575 C742.975465,20.2254324 743.008947,20.1473073 743.008947,20.0468608 C743.008947,19.9575749 742.986626,19.8682891 742.930822,19.8013247 C742.462071,19.1428418 741.680821,18.4508767 741.089302,17.9040011 C741.011177,17.8370367 740.91073,17.7923938 740.810284,17.7923938 C740.709837,17.7923938 740.609391,17.825876 740.542426,17.8928403 L738.957603,19.0870382 C738.633942,18.9196273 738.29912,18.7856985 737.953138,18.6740913 L737.640637,16.6205174 C737.618316,16.430785 737.439744,16.2856956 737.238851,16.2856956 L734.761169,16.2856956 C734.560276,16.2856956 734.404026,16.4196243 734.359383,16.5981959 C734.180812,17.2678396 734.113847,17.9932869 734.035722,18.6740913 C733.68974,18.7856985 733.343757,18.930788 733.020096,19.0981989 L731.479916,17.9040011 C731.39063,17.8370367 731.290183,17.7923938 731.189737,17.7923938 C730.810272,17.7923938 729.303574,19.42186 729.035716,19.790164 C728.979913,19.8682891 728.93527,19.9464142 728.93527,20.0468608 C728.93527,20.1473073 728.979913,20.2365931 729.046877,20.3147182 C729.459824,20.816951 729.86161,21.3191837 730.241075,21.8548986 C730.062503,22.1897204 729.917414,22.5245423 729.805806,22.8816856 L727.729911,23.1941859 C727.5625,23.2276681 727.428571,23.4285612 727.428571,23.5959721 L727.428571,26.0736536 C727.428571,26.263386 727.5625,26.4419577 727.752233,26.4754398 L729.794646,26.7767795 C729.906253,27.1562442 730.062503,27.5245482 730.252236,27.8816915 C729.872771,28.4062457 729.459824,28.8973177 729.080359,29.4107112 C729.024555,29.4888363 728.991073,29.5669614 728.991073,29.6674079 C728.991073,29.7566938 729.013395,29.8459796 729.069198,29.9241047 C729.537949,30.5714269 730.3192,31.263392 730.910718,31.7991069 C730.988844,31.877232 731.08929,31.9218749 731.189737,31.9218749 C731.290183,31.9218749 731.39063,31.8883927 731.468755,31.8214284 L733.042417,30.6272305 C733.366079,30.7946414 733.7009,30.9285702 734.046883,31.0401774 L734.359383,33.0937513 C734.381705,33.2834837 734.560276,33.4285731 734.761169,33.4285731 L737.238851,33.4285731 C737.439744,33.4285731 737.595994,33.2946444 737.640637,33.1160728 C737.819209,32.4464291 737.886173,31.7209818 737.964298,31.0401774 C738.310281,30.9285702 738.656263,30.7834807 738.979924,30.6160698 L740.520105,31.8214284 C740.609391,31.877232 740.709837,31.9218749 740.810284,31.9218749 C741.189749,31.9218749 742.696447,30.281248 742.964304,29.9241047 C743.031269,29.8459796 743.064751,29.7678545 743.064751,29.6674079 C743.064751,29.5669614 743.020108,29.4665148 742.953144,29.3883897 C742.540197,28.886157 742.13841,28.395085 741.758946,27.8482093 C741.937517,27.5245482 742.071446,27.1897264 742.194214,26.8325831 L744.258949,26.5200828 C744.43752,26.4866006 744.571449,26.2857075 744.571449,26.1182966 L744.571449,23.640615 Z" id="see"></path>
                    </g>
                </g>
            </g>
        </g>
    </g>
</svg>