<?xml version="1.0" encoding="UTF-8" standalone="no"?>
<svg width="92px" height="72px" viewBox="0 0 92 72" version="1.1" xmlns="http://www.w3.org/2000/svg" xmlns:xlink="http://www.w3.org/1999/xlink" xmlns:sketch="http://www.bohemiancoding.com/sketch/ns">
    <!-- Generator: Sketch 3.3.2 (12043) - http://www.bohemiancoding.com/sketch -->
    <title>iconCar</title>
    <desc>Created with Sketch.</desc>
    <defs></defs>
    <g id="Page-1" stroke="none" stroke-width="1" fill="none" fill-rule="evenodd" sketch:type="MSPage">
        <g id="3" sketch:type="MSArtboardGroup" transform="translate(-234.000000, -769.000000)" fill="#353637">
            <g id="content" sketch:type="MSLayerGroup" transform="translate(210.000000, 195.000000)">
                <g id="4" transform="translate(0.000000, 558.000000)" sketch:type="MSShapeGroup">
                    <g id="img" transform="translate(20.000000, 0.000000)">
                        <path d="M25.7143113,58.9999762 C25.7143113,62.9285523 22.5000217,66.1428418 18.5714456,66.1428418 C14.6428695,66.1428418 11.4285799,62.9285523 11.4285799,58.9999762 C11.4285799,55.0714 14.6428695,51.8571105 18.5714456,51.8571105 C22.5000217,51.8571105 25.7143113,55.0714 25.7143113,58.9999762 L25.7143113,58.9999762 Z M27.321456,44.7142448 L31.2946751,28.7767258 C31.4286038,28.2856538 32.321462,27.5713673 32.8571769,27.5713673 L67.1429321,27.5713673 C67.678647,27.5713673 68.5715052,28.2856538 68.7054339,28.7767258 L72.678653,44.7142448 L27.321456,44.7142448 Z M88.571529,58.9999762 C88.571529,62.9285523 85.3572395,66.1428418 81.4286634,66.1428418 C77.5000873,66.1428418 74.2857977,62.9285523 74.2857977,58.9999762 C74.2857977,55.0714 77.5000873,51.8571105 81.4286634,51.8571105 C85.3572395,51.8571105 88.571529,55.0714 88.571529,58.9999762 L88.571529,58.9999762 Z M95.7143947,54.7142568 C95.7143947,49.1785359 91.2501037,44.7142448 85.7143828,44.7142448 L84.4643813,44.7142448 L79.7768757,26.0088654 C78.3929455,20.3838587 72.9465104,16.1427822 67.1429321,16.1427822 L32.8571769,16.1427822 C27.0535986,16.1427822 21.6071635,20.3838587 20.2232333,26.0088654 L15.5357277,44.7142448 L14.2857262,44.7142448 C8.75000532,44.7142448 4.28571429,49.1785359 4.28571429,54.7142568 L4.28571429,71.8571343 C4.28571429,72.6607067 4.91071503,73.2857075 5.71428742,73.2857075 L10.0000068,73.2857075 L10.0000068,79 C10.0000068,83.7321485 13.8392971,87.5714388 18.5714456,87.5714388 C23.3035941,87.5714388 27.1428844,83.7321485 27.1428844,79 L27.1428844,73.2857075 L72.8572246,73.2857075 L72.8572246,79 C72.8572246,83.7321485 76.6965149,87.5714388 81.4286634,87.5714388 C86.1608119,87.5714388 90.0001022,83.7321485 90.0001022,79 L90.0001022,73.2857075 L94.2858216,73.2857075 C95.089394,73.2857075 95.7143947,72.6607067 95.7143947,71.8571343 L95.7143947,54.7142568 Z" id="iconCar"></path>
                    </g>
                </g>
            </g>
        </g>
    </g>
</svg>