<?xml version="1.0" encoding="utf-8"?>
<!-- Generator: Adobe Illustrator 19.0.0, SVG Export Plug-In . SVG Version: 6.00 Build 0)  -->
<svg version="1.1" id="Layer_1" xmlns:sketch="http://www.bohemiancoding.com/sketch/ns"
	 xmlns="http://www.w3.org/2000/svg" xmlns:xlink="http://www.w3.org/1999/xlink" x="0px" y="0px" viewBox="23 14.5 247.3 256.4"
	 style="enable-background:new 23 14.5 247.3 256.4;" xml:space="preserve">
<style type="text/css">
	.st0{fill:#353637;}
</style>
<title>icon404</title>
<desc>Created with Sketch.</desc>
<g id="Page-1" sketch:type="MSPage">
	<g id="_x31_0" transform="translate(-676.000000, -350.000000)" sketch:type="MSArtboardGroup">
		<g id="_x34_04" transform="translate(514.000000, 215.000000)" sketch:type="MSLayerGroup">
			<g id="icon404" transform="translate(162.000000, 135.000000)" sketch:type="MSShapeGroup">
				<path id="circle" class="st0" d="M129.8,209.1L129.8,209.1c48.5,0,87.8-39.3,87.8-87.8s-39.3-87.8-87.8-87.8S42,72.8,42,121.3
					S81.3,209.1,129.8,209.1L129.8,209.1z M129.8,228.1L129.8,228.1c-59,0-106.8-47.8-106.8-106.8S70.8,14.5,129.8,14.5
					s106.8,47.8,106.8,106.8S188.8,228.1,129.8,228.1L129.8,228.1z"/>
				<path id="face" class="st0" d="M74.3,125.6c7.1,0,12.8-5.7,12.8-12.8s-5.7-12.8-12.8-12.8s-12.8,5.7-12.8,12.8
					S67.2,125.6,74.3,125.6z M171.5,108.5c7.7,0,13.9-6.2,13.9-13.9s-6.2-13.9-13.9-13.9s-13.9,6.2-13.9,13.9
					S163.8,108.5,171.5,108.5z M144.2,152.3c20.1-3.2,37.3,0.2,35.5-10.7c-1.7-10.9-19.4-17.2-39.5-14.1
					c-20.1,3.2-34.9,14.6-33.2,25.6C108.8,164.1,124.1,155.5,144.2,152.3z"/>
			</g>
		</g>
	</g>
</g>
<path class="st0" d="M250.4,267.5l-60-60c-4.6-4.6-4.6-11.9,0-16.5l0,0c4.6-4.6,11.9-4.6,16.5,0l60,60c4.6,4.6,4.6,11.9,0,16.5v0
	C262.3,272,254.9,272,250.4,267.5z"/>
</svg>
