<?xml version="1.0" standalone="no"?>
<!DOCTYPE svg PUBLIC "-//W3C//DTD SVG 1.1//EN" "http://www.w3.org/Graphics/SVG/1.1/DTD/svg11.dtd" >
<svg xmlns="http://www.w3.org/2000/svg" xmlns:xlink="http://www.w3.org/1999/xlink" version="1.1">
<metadata></metadata>
<defs>
<font id="burgessregular" horiz-adv-x="624" >
<font-face units-per-em="1024" ascent="819" descent="-205" />
<missing-glyph horiz-adv-x="178" />
<glyph unicode="ff" horiz-adv-x="578" d="M305 731q81 0 134 -42q31 42 93 42q44 0 73.5 -24.5t29.5 -62.5q0 -25 -15.5 -40.5t-37.5 -15.5q-21 0 -36 14t-15 33q0 7 3 19t3 20q0 11 -8 18.5t-22 7.5q-20 0 -33 -13.5t-13 -38.5q0 -21 20 -63t22 -93h86v-25h-86v-369q0 -42 14 -58.5t47 -16.5h10v-23h-239v23h10 q34 0 48 16.5t14 58.5v369h-216v-369q0 -42 14 -58.5t48 -16.5h10v-23h-239v23h10q33 0 47 16.5t14 58.5v369h-78v25h78v26q0 86 59.5 149.5t150.5 63.5zM191 492h216v66q0 42 6 70q-12 38 -43 58.5t-70 20.5q-46 0 -77.5 -36t-31.5 -96v-83z" />
<glyph unicode="fi" horiz-adv-x="591" d="M318 752q83 0 130 -35t47 -81q0 -31 -17 -49.5t-48 -18.5q-27 0 -42 16.5t-15 38.5q0 10 3.5 24.5t3.5 23.5q0 25 -18 40.5t-51 15.5q-67 0 -93.5 -58t-26.5 -177h144l168 14v-408q0 -42 14 -58.5t47 -16.5h10v-23h-239v23h10q34 0 48 16.5t14 58.5v296q0 42 -16.5 57.5 t-45.5 15.5h-154v-369q0 -42 14 -58.5t48 -16.5h10v-23h-239v23h10q33 0 47 16.5t14 58.5v369h-78v25h78v19q0 107 60.5 174t162.5 67z" />
<glyph unicode="fl" horiz-adv-x="591" d="M307 752q48 0 103 -29l93 8v-633q0 -42 14 -58.5t47 -16.5h10v-23h-239v23h10q34 0 48 16.5t14 58.5v512q0 117 -103 117q-113 0 -113 -177v-58h74v-25h-74v-369q0 -42 14 -58.5t48 -16.5h10v-23h-239v23h10q33 0 47 16.5t14 58.5v369h-78v25h78v19q0 105 56.5 173 t155.5 68z" />
<glyph unicode="ffi" horiz-adv-x="903" d="M630 752q82 0 129 -35t47 -81q0 -31 -17 -49.5t-48 -18.5q-27 0 -42 16.5t-15 38.5q0 10 3.5 24.5t3.5 23.5q0 26 -17.5 41t-50.5 15q-67 0 -93.5 -58t-26.5 -177h143l168 14v-408q0 -42 14 -58.5t48 -16.5h10v-23h-240v23h10q34 0 48 16.5t14 58.5v296q0 42 -16.5 57.5 t-45.5 15.5h-153v-369q0 -42 14 -58.5t47 -16.5h10v-23h-239v23h10q34 0 48 16.5t14 58.5v369h-216v-369q0 -42 14 -58.5t48 -16.5h10v-23h-239v23h10q33 0 47 16.5t14 58.5v369h-78v25h78v19q0 95 53.5 157.5t154.5 62.5q87 0 158 -53q63 74 169 74zM191 492h216v19 q0 53 15 97q-17 46 -49.5 72.5t-73.5 26.5q-60 0 -84 -38.5t-24 -118.5v-58z" />
<glyph unicode="ffl" horiz-adv-x="903" d="M618 752q48 0 103 -29l93 8v-633q0 -42 14 -58.5t48 -16.5h10v-23h-240v23h10q34 0 48 16.5t14 58.5v512q0 117 -103 117q-112 0 -112 -177v-58h74v-25h-74v-369q0 -42 14 -58.5t47 -16.5h10v-23h-239v23h10q34 0 48 16.5t14 58.5v369h-216v-369q0 -42 14 -58.5t48 -16.5 h10v-23h-239v23h10q33 0 47 16.5t14 58.5v369h-78v25h78v19q0 95 53.5 157.5t154.5 62.5q87 0 156 -52q58 73 159 73zM191 550v-58h216v19q0 53 15 98q-17 46 -50 72t-73 26q-60 0 -84 -38.5t-24 -118.5z" />
<glyph unicode="fb" horiz-adv-x="921" d="M407 610q0 117 -103 117q-113 0 -113 -177v-58h74v-25h-74v-369q0 -42 14 -58.5t48 -16.5h10v-23h-239v23h10q33 0 47 16.5t14 58.5v369h-78v25h78v19q0 105 56.5 173t155.5 68q48 0 103 -29l93 8v-286q61 61 143 61q87 0 143.5 -62.5t56.5 -172.5q0 -124 -69 -204.5 t-173 -80.5q-83 0 -145 58l-30 -44h-22v610zM503 62q9 -18 34 -31t56 -13q68 0 109 64.5t41 169.5q0 94 -33 150t-95 56q-70 0 -112 -50v-346z" />
<glyph unicode="fh" horiz-adv-x="917" d="M503 393q82 113 190 113q66 0 101.5 -36t35.5 -103v-269q0 -42 14 -58.5t48 -16.5h10v-23h-239v23h10q33 0 47 16.5t14 58.5v237q0 50 -26.5 76t-69.5 26q-33 0 -69.5 -21.5t-65.5 -59.5v-258q0 -42 14 -58.5t47 -16.5h10v-23h-239v23h10q34 0 48 16.5t14 58.5v512 q0 117 -103 117q-113 0 -113 -177v-58h74v-25h-74v-369q0 -42 14 -58.5t48 -16.5h10v-23h-239v23h10q33 0 47 16.5t14 58.5v369h-78v25h78v19q0 105 56.5 173t155.5 68q48 0 103 -29l93 8v-338z" />
<glyph unicode="fk" horiz-adv-x="881" d="M600 325l186 -242q22 -30 39.5 -43t43.5 -17v-23h-215v23q23 0 23 21q0 9 -6 18l-168 217v-181q0 -42 14 -58.5t47 -16.5h10v-23h-239v23h10q34 0 48 16.5t14 58.5v512q0 117 -103 117q-113 0 -113 -177v-58h74v-25h-74v-369q0 -42 14 -58.5t48 -16.5h10v-23h-239v23h10 q33 0 47 16.5t14 58.5v369h-78v25h78v19q0 105 56.5 173t155.5 68q48 0 103 -29l93 8v-452l149 132q20 18 20 33q0 25 -36 25h-10v23h193v-23h-8q-48 0 -114 -59z" />
<glyph unicode="ffb" horiz-adv-x="1183" d="M718 610q0 117 -103 117q-112 0 -112 -177v-58h74v-25h-74v-369q0 -42 14 -58.5t47 -16.5h10v-23h-239v23h10q34 0 48 16.5t14 58.5v369h-216v-369q0 -42 14 -58.5t48 -16.5h10v-23h-239v23h10q33 0 47 16.5t14 58.5v369h-78v25h78v19q0 95 53.5 157.5t154.5 62.5 q87 0 156 -52q58 73 159 73q48 0 103 -29l93 8v-286q61 61 143 61q87 0 143.5 -62.5t56.5 -172.5q0 -124 -69 -204.5t-173 -80.5q-83 0 -145 58l-30 -44h-22v610zM814 62q9 -18 34 -31t56 -13q68 0 109.5 64.5t41.5 169.5q0 94 -33 150t-95 56q-71 0 -113 -50v-346zM191 550 v-58h216v19q0 53 15 98q-17 46 -50 72t-73 26q-60 0 -84 -38.5t-24 -118.5z" />
<glyph unicode="ffh" horiz-adv-x="1230" d="M814 393q82 113 191 113q66 0 101.5 -36t35.5 -103v-269q0 -42 14 -58.5t47 -16.5h10v-23h-239v23h10q34 0 48 16.5t14 58.5v237q0 50 -27 76t-70 26q-33 0 -69.5 -21.5t-65.5 -59.5v-258q0 -42 14 -58.5t48 -16.5h10v-23h-240v23h10q34 0 48 16.5t14 58.5v512 q0 117 -103 117q-112 0 -112 -177v-58h74v-25h-74v-369q0 -42 14 -58.5t47 -16.5h10v-23h-239v23h10q34 0 48 16.5t14 58.5v369h-216v-369q0 -42 14 -58.5t48 -16.5h10v-23h-239v23h10q33 0 47 16.5t14 58.5v369h-78v25h78v19q0 95 53.5 157.5t154.5 62.5q87 0 156 -52 q58 73 159 73q48 0 103 -29l93 8v-338zM191 492h216v19q0 53 15 98q-17 46 -50 72t-73 26q-60 0 -84 -38.5t-24 -118.5v-58z" />
<glyph unicode="ffk" horiz-adv-x="1195" d="M911 325l187 -242q22 -30 39.5 -43t43.5 -17v-23h-215v23q22 0 22 21q0 9 -6 18l-168 217v-181q0 -42 14 -58.5t48 -16.5h10v-23h-240v23h10q34 0 48 16.5t14 58.5v512q0 117 -103 117q-112 0 -112 -177v-58h74v-25h-74v-369q0 -42 14 -58.5t47 -16.5h10v-23h-239v23h10 q34 0 48 16.5t14 58.5v369h-216v-369q0 -42 14 -58.5t48 -16.5h10v-23h-239v23h10q33 0 47 16.5t14 58.5v369h-78v25h78v19q0 95 53.5 157.5t154.5 62.5q87 0 156 -52q58 73 159 73q48 0 103 -29l93 8v-452l150 132q19 18 19 33q0 25 -36 25h-10v23h193v-23h-8 q-47 0 -113 -59zM191 492h216v19q0 53 15 98q-17 46 -50 72t-73 26q-60 0 -84 -38.5t-24 -118.5v-58z" />
<glyph unicode="&#xd;" horiz-adv-x="0" />
<glyph unicode=" "  horiz-adv-x="178" />
<glyph unicode="&#x09;" horiz-adv-x="178" />
<glyph unicode="&#xa0;" horiz-adv-x="178" />
<glyph unicode="!" horiz-adv-x="184" d="M92 731q29 0 47.5 -18t18.5 -50q0 -24 -13 -87.5t-26.5 -156.5t-13.5 -188h-26q0 127 -26 272t-26 160q0 32 18 50t47 18zM92 123q27 0 46 -19t19 -46t-19 -45.5t-46 -18.5t-45.5 18.5t-18.5 45.5t18.5 46t45.5 19z" />
<glyph unicode="&#x22;" horiz-adv-x="325" d="M291 646l-24 -143q-5 -26 -22 -26q-18 0 -23 26l-23 143q-2 12 -2 22q0 24 12.5 39.5t35.5 15.5q24 0 36 -15t12 -40q0 -10 -2 -22zM127 646l-24 -143q-5 -26 -22 -26q-18 0 -23 26l-23 143q-2 12 -2 22q0 24 12.5 39.5t35.5 15.5q24 0 36 -15t12 -40q0 -10 -2 -22z" />
<glyph unicode="#" horiz-adv-x="667" d="M51 451v41h177l59 225h48l-59 -225h183l58 225h48l-58 -225h150v-41h-160l-47 -185h166v-41h-178l-57 -225h-48l57 225h-182l-57 -225h-49l58 225h-150v41h161l47 185h-167zM266 451l-47 -185h182l48 185h-183z" />
<glyph unicode="$" horiz-adv-x="507" d="M270 818v-87q55 -5 111 -41q13 -8 22 -8q7 0 13 7t6 19v9h24v-204h-24q-18 76 -57 125t-95 58v-259q215 -86 215 -241q0 -91 -63.5 -147.5t-151.5 -62.5v-88h-34v90q-65 8 -128 52q-16 11 -28 11q-11 0 -19 -13t-8 -38h-24v245h24q23 -92 70.5 -152.5t112.5 -69.5v293 l-36 16q-169 72 -169 210q0 83 58.5 133.5t146.5 55.5v87h34zM270 300v-280q54 5 86.5 40t32.5 90q0 50 -30.5 84.5t-88.5 65.5zM236 696q-50 -4 -79.5 -35.5t-29.5 -74.5q0 -41 26 -73t83 -60v243z" />
<glyph unicode="%" horiz-adv-x="821" d="M20 508q0 95 60.5 159t158.5 64q72 0 120.5 -43.5t48.5 -114.5q0 -96 -63.5 -163t-151.5 -67q-76 0 -124.5 47t-48.5 118zM236 707q-59 0 -96 -62.5t-37 -144.5q0 -60 24.5 -96t68.5 -36q56 0 92.5 60t36.5 150q0 66 -24.5 97.5t-64.5 31.5zM606 717l29 -18l-418 -699 l-29 17zM414 151q0 95 60 159t158 64q72 0 120.5 -43.5t48.5 -114.5q0 -96 -63.5 -163t-151.5 -67q-76 0 -124 47t-48 118zM629 349q-59 0 -95.5 -62.5t-36.5 -144.5q0 -60 24 -96t68 -36q56 0 92.5 60t36.5 150q0 66 -24.5 97.5t-64.5 31.5z" />
<glyph unicode="&#x26;" horiz-adv-x="721" d="M314 731q79 0 125.5 -36t46.5 -89q0 -113 -177 -181l180 -258q40 76 58 151q3 12 3 22q0 36 -44 36h-12v24h159v-24q-36 0 -49.5 -14t-25.5 -52q-37 -110 -67 -174q47 -62 95 -62q31 0 50 14t35 45l17 -7q-34 -140 -147 -140q-69 0 -124 69q-81 -69 -191 -69 q-97 0 -162.5 54.5t-65.5 145.5q0 148 175 231l-7 9q-53 80 -53 143q0 70 49 116t132 46zM212 388q-97 -54 -97 -176q0 -71 44.5 -123t121.5 -52q85 0 134 52zM314 696q-37 0 -63.5 -27.5t-26.5 -71.5q0 -49 36 -100l32 -46q56 27 83.5 58.5t27.5 78.5q0 44 -23 76t-66 32z " />
<glyph unicode="'" horiz-adv-x="161" d="M127 646l-24 -143q-5 -26 -22 -26q-18 0 -23 26l-23 143q-2 12 -2 22q0 24 12.5 39.5t35.5 15.5q24 0 36 -15t12 -40q0 -10 -2 -22z" />
<glyph unicode="(" horiz-adv-x="305" d="M285 799q-75 -66 -120.5 -181.5t-45.5 -259.5q0 -143 45.5 -258.5t120.5 -181.5l-12 -14q-103 62 -172.5 179t-69.5 275t69.5 275.5t172.5 179.5z" />
<glyph unicode=")" horiz-adv-x="305" d="M32 813q103 -62 172.5 -179.5t69.5 -275.5t-69.5 -275t-172.5 -179l-12 14q75 66 120.5 181.5t45.5 258.5q0 144 -45.5 259.5t-120.5 181.5z" />
<glyph unicode="*" horiz-adv-x="342" d="M171 553q-12 -20 -18.5 -58t-17.5 -54q-12 -18 -35 -18q-18 0 -29.5 11.5t-11.5 28.5q0 13 10 26q12 16 45.5 34t48.5 35q-12 3 -25 3q-12 0 -34 -3.5t-33 -3.5q-22 0 -38.5 11t-16.5 34q0 17 11 28t29 11q24 0 58.5 -32t51.5 -39q-2 22 -19 56.5t-17 54.5 q0 18 11.5 30.5t29.5 12.5t29.5 -12.5t11.5 -30.5q0 -20 -17 -54.5t-19 -56.5q17 7 51.5 39t58.5 32q18 0 29 -11t11 -28q0 -23 -16.5 -34t-38.5 -11q-11 0 -33 3.5t-34 3.5q-13 0 -25 -3q15 -17 48.5 -35t45.5 -34q10 -13 10 -26q0 -17 -11.5 -28.5t-29.5 -11.5 q-23 0 -35 18q-11 16 -17.5 54t-18.5 58z" />
<glyph unicode="+" horiz-adv-x="442" d="M204 549h35v-189h188v-34h-188v-189h-35v189h-189v34h189v189z" />
<glyph unicode="," horiz-adv-x="198" d="M89 123q37 0 57 -25.5t20 -64.5q0 -118 -130 -195l-13 16q94 67 101 147q-14 -7 -35 -7q-27 0 -46 17.5t-19 44.5q0 26 18 46.5t47 20.5z" />
<glyph unicode="-" horiz-adv-x="379" d="M15 285v34h350v-34h-350z" />
<glyph unicode="." horiz-adv-x="200" d="M23 58q0 27 18.5 46t45.5 19t46 -19t19 -46t-19 -45.5t-46 -18.5t-45.5 18.5t-18.5 45.5z" />
<glyph unicode="/" horiz-adv-x="492" d="M7 0l430 717h48l-430 -717h-48z" />
<glyph unicode="0" horiz-adv-x="612" d="M306 731q118 0 197 -103t79 -270t-78.5 -269.5t-197.5 -102.5q-118 0 -196.5 102.5t-78.5 269.5t78.5 270t196.5 103zM465 358q0 159 -41.5 245.5t-117.5 86.5t-117.5 -86.5t-41.5 -245.5q0 -158 41.5 -244.5t117.5 -86.5t117.5 86.5t41.5 244.5z" />
<glyph unicode="1" horiz-adv-x="316" d="M106 562q0 49 -19 69.5t-60 20.5h-11v23l181 52h13v-614q0 -90 80 -90h10v-23h-284v23h11q79 0 79 90v449z" />
<glyph unicode="2" horiz-adv-x="467" d="M252 731q89 0 138.5 -49t49.5 -138q0 -109 -74.5 -213.5t-248.5 -256.5h164q64 0 96 24t47 87h22l-17 -185h-412v14q176 162 251.5 278.5t75.5 212.5q0 64 -39.5 100t-97.5 36q-55 0 -97.5 -32.5t-64.5 -84.5l-15 5q21 85 79.5 143.5t142.5 58.5z" />
<glyph unicode="3" horiz-adv-x="474" d="M207 -14q-85 0 -134.5 29t-49.5 71q0 22 15 36.5t37 14.5q45 0 70 -63q23 -56 82 -56q52 0 90 43.5t38 118.5q0 47 -18 80.5t-48.5 51t-63 25t-68.5 7.5v14q151 60 151 185q0 55 -31 85t-84 30q-48 0 -88 -28.5t-57 -82.5l-16 5q9 77 66 128t130 51q77 0 123.5 -40 t46.5 -105q0 -53 -30.5 -97t-70.5 -71q69 -23 110.5 -70.5t41.5 -119.5q0 -102 -72 -172t-170 -70z" />
<glyph unicode="4" horiz-adv-x="514" d="M489 229v-32h-89v-84q0 -90 80 -90h10v-23h-283v23h10q80 0 80 90v84h-288v30l361 504h30v-502h89zM55 229h242v335z" />
<glyph unicode="5" horiz-adv-x="473" d="M419 717l-12 -94h-307l-15 -137q58 20 120 20q108 0 178 -68t70 -183q0 -116 -74 -192.5t-171 -76.5q-45 0 -86 10t-71.5 34.5t-30.5 58.5q0 23 15 38t37 15q49 0 63 -63q14 -61 80 -61q62 0 107 49.5t45 129.5q0 98 -60 150t-146 52q-63 0 -115 -25l-7 5l41 338h339z " />
<glyph unicode="6" horiz-adv-x="522" d="M456 731v-22q-140 -11 -219.5 -105t-101.5 -232q68 79 174 79q84 0 142.5 -61t58.5 -156q0 -112 -69.5 -180t-168.5 -68q-116 0 -186 80.5t-70 223.5q0 181 124.5 311t306.5 130h9zM129 335q-5 -29 -5 -76q0 -99 41.5 -171t115.5 -72q54 0 90.5 49.5t36.5 133.5 q0 91 -40.5 149t-106.5 58q-73 0 -132 -71z" />
<glyph unicode="7" horiz-adv-x="500" d="M482 717v-15q-54 -58 -90 -117.5t-56.5 -112.5t-31 -125.5t-13 -132t-2.5 -156.5q0 -28 -16 -43t-39 -15t-37.5 15t-14.5 43q0 148 68 319t138 254h-209q-62 0 -92 -23t-42 -87h-20v196h457z" />
<glyph unicode="8" horiz-adv-x="493" d="M303 412q95 -50 133.5 -100t38.5 -125q0 -92 -68.5 -146.5t-156.5 -54.5q-99 0 -165.5 51t-66.5 133q0 59 33.5 105t101.5 87q-112 81 -112 184q0 76 57.5 130.5t141.5 54.5q81 0 133.5 -39.5t52.5 -107.5q0 -90 -123 -172zM184 344q-69 -64 -69 -165q0 -66 36 -113.5 t100 -47.5q57 0 90.5 36t33.5 93q0 51 -41.5 92t-149.5 105zM272 427q81 67 81 159q0 46 -31.5 79t-82.5 33t-83 -28t-32 -75q0 -93 148 -168z" />
<glyph unicode="9" horiz-adv-x="522" d="M67 -14v22q73 4 131 33.5t95 78t60 104t35 121.5q-32 -39 -79.5 -59t-95.5 -20q-84 0 -142.5 60.5t-58.5 155.5q0 112 69.5 180.5t168.5 68.5q116 0 186 -80.5t70 -223.5q0 -181 -124.5 -311t-306.5 -130h-8zM393 382q5 29 5 76q0 99 -41 170.5t-115 71.5 q-54 0 -90.5 -49t-36.5 -133q0 -91 40 -149t106 -58q73 0 132 71z" />
<glyph unicode=":" horiz-adv-x="201" d="M23 58q0 27 18.5 46t45.5 19t46 -19t19 -46t-19 -45.5t-46 -18.5t-45.5 18.5t-18.5 45.5zM23 427q0 27 18.5 46t45.5 19t46 -19t19 -46t-19 -46t-46 -19t-45.5 19t-18.5 46z" />
<glyph unicode=";" horiz-adv-x="198" d="M88 492q27 0 46 -19t19 -46t-19 -46t-46 -19t-45.5 19t-18.5 46t18.5 46t45.5 19zM89 123q37 0 57 -25.5t20 -64.5q0 -118 -130 -195l-13 16q94 67 101 147q-14 -7 -35 -7q-27 0 -46 17.5t-19 44.5q0 26 18 46.5t47 20.5z" />
<glyph unicode="&#x3c;" horiz-adv-x="337" d="M18 290v53l284 218v-51l-246 -194l246 -193v-51z" />
<glyph unicode="=" horiz-adv-x="442" d="M15 233v35h412v-35h-412zM15 428v35h412v-35h-412z" />
<glyph unicode="&#x3e;" horiz-adv-x="337" d="M319 343v-53l-283 -218v51l246 193l-246 194v51z" />
<glyph unicode="?" horiz-adv-x="466" d="M221 731q103 0 164 -55t61 -146q0 -178 -217 -232v-81h-30v101q76 33 106.5 82.5t30.5 135.5q0 79 -39.5 123t-90.5 44q-39 0 -64.5 -20.5t-25.5 -54.5q0 -8 6 -27t6 -30q0 -24 -15.5 -38.5t-39.5 -14.5q-25 0 -42 16.5t-17 47.5q0 52 55 100.5t152 48.5zM214 123 q27 0 46 -19t19 -46t-19 -45.5t-46 -18.5t-45.5 18.5t-18.5 45.5t18.5 46t45.5 19z" />
<glyph unicode="@" horiz-adv-x="765" d="M361 201q58 0 91 42l31 202q1 9 1 18q0 35 -24.5 59.5t-59.5 24.5q-52 0 -85.5 -35.5t-45 -81.5t-11.5 -101q0 -56 27.5 -92t75.5 -36zM471 225q-61 -69 -137 -69q-62 0 -109 47.5t-47 139.5q0 94 60 162t143 68q76 0 115 -54l7 42h77l-46 -297q-4 -22 -4 -32 q0 -22 15 -36t42 -14q47 0 83.5 63.5t36.5 156.5q0 129 -82 209t-218 80q-130 0 -228 -96.5t-98 -247.5q0 -140 84.5 -232t217.5 -92t219 93l9 -10q-89 -120 -249 -120q-144 0 -240.5 97.5t-96.5 264.5q0 170 111.5 276.5t270.5 106.5q157 0 245.5 -90t88.5 -226 q0 -112 -47.5 -185.5t-122.5 -73.5q-35 0 -62 20t-38 49z" />
<glyph unicode="A" horiz-adv-x="798" d="M398 731l247 -581q54 -127 135 -127h11v-23h-323v23h10q27 0 46 15.5t19 37.5q0 19 -19 60l-37 82h-266l-35 -87q-9 -23 -9 -43q0 -29 18 -47t48 -18h10v-23h-245v23h10q39 0 77 36t63 97l230 575h10zM351 545l-115 -292h237z" />
<glyph unicode="B" horiz-adv-x="594" d="M18 23h11q80 0 80 90v491q0 90 -80 90h-11v23h272q125 0 196 -41.5t71 -122.5q0 -57 -41 -99.5t-117 -62.5q82 -17 132 -66.5t50 -121.5q0 -93 -68 -148t-200 -55h-295v23zM219 109q0 -47 21 -60.5t65 -13.5q75 0 120 42.5t45 116.5q0 87 -54 132t-197 45v-262zM219 406 h23q111 0 157.5 36t46.5 108q0 63 -39.5 97.5t-105.5 34.5q-47 0 -64.5 -14t-17.5 -58v-204z" />
<glyph unicode="C" horiz-adv-x="654" d="M379 731q73 0 158 -46q18 -9 29 -9q27 0 27 34v7h23v-234h-23q-18 99 -74.5 156t-137.5 57q-113 0 -167 -90.5t-54 -247.5t57.5 -240t167.5 -83q167 0 238 217l19 -7q-29 -125 -103 -192t-179 -67q-62 0 -119.5 24t-105 69.5t-76 118t-28.5 160.5t31 161t82 118 t111.5 69.5t123.5 24.5z" />
<glyph unicode="D" horiz-adv-x="716" d="M16 23h11q79 0 79 90v491q0 90 -79 90h-11v23h297q75 0 140.5 -21t118 -63.5t83.5 -113t31 -161.5t-31 -161.5t-83.5 -112.5t-118 -63t-140.5 -21h-297v23zM279 682q-33 0 -47.5 -14.5t-14.5 -57.5v-504q0 -43 14.5 -57t47.5 -14h36q119 0 180.5 87.5t61.5 235.5 t-61.5 236t-180.5 88h-36z" />
<glyph unicode="E" horiz-adv-x="582" d="M337 378q52 0 80 33.5t28 89.5h23v-281h-23q0 56 -28 89.5t-80 33.5h-120v-237q0 -43 14.5 -57t47.5 -14h73q87 0 132 35t63 121h22l-14 -191h-539v23h11q79 0 79 90v491q0 90 -79 90h-11v23h530v-181h-23q-5 78 -39 112t-114 34h-91q-33 0 -47.5 -14.5t-14.5 -57.5v-232 h120z" />
<glyph unicode="F" horiz-adv-x="578" d="M106 604q0 90 -79 90h-11v23h540v-181h-22q-9 73 -44 109.5t-110 36.5h-101q-33 0 -47.5 -14.5t-14.5 -57.5v-244h130q52 0 80.5 33t28.5 89h22v-280h-22q0 56 -28.5 89.5t-80.5 33.5h-130v-218q0 -90 80 -90h10v-23h-291v23h11q79 0 79 90v491z" />
<glyph unicode="G" horiz-adv-x="711" d="M387 731q89 0 170 -44q20 -10 34 -10q26 0 26 33v7h24v-231h-24q-24 93 -83 151.5t-142 58.5q-120 0 -176 -85.5t-56 -252.5q0 -338 211 -338q50 0 96 19.5t74 50.5v106q0 66 -20.5 90.5t-73.5 24.5h-10v23h265v-23h-10q-37 0 -46 -22t-9 -93v-196h-21q-4 21 -15 33 t-26 12q-13 0 -28 -9q-77 -50 -181 -50q-66 0 -125 23t-106.5 67.5t-75.5 117.5t-28 164q0 73 22 135.5t58 105t83 73t96 45t97 14.5z" />
<glyph unicode="H" horiz-adv-x="744" d="M217 113q0 -90 80 -90h10v-23h-291v23h11q79 0 79 90v491q0 90 -79 90h-11v23h291v-23h-10q-80 0 -80 -90v-205h310v205q0 90 -80 90h-10v23h291v-23h-10q-80 0 -80 -90v-491q0 -90 80 -90h10v-23h-291v23h10q80 0 80 90v252h-310v-252z" />
<glyph unicode="I" horiz-adv-x="323" d="M217 113q0 -90 80 -90h10v-23h-291v23h11q79 0 79 90v491q0 90 -79 90h-11v23h291v-23h-10q-80 0 -80 -90v-491z" />
<glyph unicode="J" horiz-adv-x="455" d="M239 604q0 90 -80 90h-11v23h291v-23h-10q-80 0 -80 -90v-450q0 -80 -54 -124t-130 -44q-63 0 -107 28.5t-44 81.5q0 27 16.5 45.5t42.5 18.5t43 -16t17 -40q0 -17 -10.5 -34t-10.5 -23q0 -15 14 -25t38 -10q75 0 75 92v500z" />
<glyph unicode="K" horiz-adv-x="674" d="M307 717v-23h-10q-80 0 -80 -90v-238l213 244q34 38 34 56q0 28 -37 28h-13v23h220v-23h-10q-44 0 -79.5 -23t-83.5 -79l-138 -161l256 -341q38 -49 83 -67v-23h-159q-18 9 -39 36l-247 330v-253q0 -90 80 -90h10v-23h-291v23h11q79 0 79 90v491q0 90 -79 90h-11v23h291z " />
<glyph unicode="L" horiz-adv-x="586" d="M217 106q0 -43 14.5 -57t47.5 -14h82q88 0 127 39t65 140h24l-15 -214h-546v23h11q79 0 79 90v491q0 90 -79 90h-11v23h291v-23h-10q-80 0 -80 -90v-498z" />
<glyph unicode="M" horiz-adv-x="873" d="M857 717v-23h-10q-80 0 -80 -90v-491q0 -90 80 -90h10v-23h-291v23h11q79 0 79 90v513l-260 -626h-16l-239 626v-513q0 -90 80 -90h10v-23h-215v23h11q79 0 79 90v491q0 90 -79 90h-11v23h217l197 -537l224 537h203z" />
<glyph unicode="N" horiz-adv-x="728" d="M141 560v-447q0 -90 80 -90h10v-23h-215v23h11q79 0 79 90v491q0 90 -79 90h-11v23h146l425 -511v398q0 90 -80 90h-10v23h215v-23h-11q-79 0 -79 -90v-610h-11z" />
<glyph unicode="O" horiz-adv-x="763" d="M382 731q63 0 124.5 -24.5t112.5 -69.5t82.5 -118t31.5 -161t-31.5 -161t-82.5 -117.5t-112.5 -69t-124.5 -24.5t-124.5 24.5t-112.5 69t-82.5 117.5t-31.5 161t31.5 161t82.5 118t112.5 69.5t124.5 24.5zM604 358q0 164 -57.5 251t-164.5 87t-164.5 -87t-57.5 -251 t57.5 -251t164.5 -87t164.5 87t57.5 251z" />
<glyph unicode="P" horiz-adv-x="606" d="M106 604q0 90 -79 90h-11v23h278q133 0 217.5 -54.5t84.5 -156.5q0 -110 -88 -166.5t-226 -56.5h-65v-170q0 -90 80 -90h10v-23h-291v23h11q79 0 79 90v491zM217 317h56q103 0 157.5 49t54.5 140q0 90 -50 133t-152 43q-36 0 -51 -14.5t-15 -57.5v-293z" />
<glyph unicode="Q" horiz-adv-x="779" d="M382 731q63 0 124.5 -24.5t112.5 -69.5t82.5 -118t31.5 -161q0 -147 -80.5 -242.5t-196.5 -121.5q41 -105 166 -105q62 0 118 36l9 -15q-76 -72 -176 -72q-79 0 -146 41t-104 113q-120 21 -206 117.5t-86 248.5q0 88 31.5 161t82.5 118t112.5 69.5t124.5 24.5zM382 696 q-107 0 -164.5 -87t-57.5 -251t57.5 -251t164.5 -87t164.5 87t57.5 251t-57.5 251t-164.5 87z" />
<glyph unicode="R" horiz-adv-x="643" d="M415 339l130 -248q17 -32 35.5 -47t48.5 -21v-23h-147q-24 6 -37 32l-151 293h-77v-212q0 -90 80 -90h10v-23h-291v23h11q79 0 79 90v491q0 90 -79 90h-11v23h288q129 0 204.5 -49.5t75.5 -142.5q0 -68 -46 -116.5t-123 -69.5zM326 682h-37q-39 0 -55.5 -17t-16.5 -61 v-245h41q215 0 215 168q0 68 -37.5 111.5t-109.5 43.5z" />
<glyph unicode="S" horiz-adv-x="516" d="M393 150q0 63 -47 101t-142 78q-168 70 -168 214q0 85 63.5 136.5t150.5 51.5q68 0 139 -41q13 -8 23 -8q18 0 18 26v9h25v-204h-25q-11 86 -59.5 134.5t-119.5 48.5q-54 0 -86.5 -30t-32.5 -79q0 -56 48 -96.5t139 -78.5t133 -86t42 -119q0 -100 -70 -160.5t-156 -60.5 q-48 0 -83.5 14t-79.5 43q-13 8 -25 8q-27 0 -27 -51h-24v245h24q14 -92 74.5 -158.5t134.5 -66.5q59 0 95 35.5t36 94.5z" />
<glyph unicode="T" horiz-adv-x="600" d="M246 643q0 39 -37 39h-26q-130 0 -147 -148h-20v183h570v-183h-20q-17 148 -147 148h-26q-37 0 -37 -39v-530q0 -90 80 -90h10v-23h-290v23h10q80 0 80 90v530z" />
<glyph unicode="U" horiz-adv-x="728" d="M217 228q0 -191 189 -191q89 0 135 51.5t46 147.5v368q0 90 -80 90h-10v23h215v-23h-11q-79 0 -79 -90v-371q0 -114 -62.5 -180.5t-174.5 -66.5q-123 0 -201 69.5t-78 209.5v339q0 90 -79 90h-11v23h291v-23h-10q-80 0 -80 -90v-376z" />
<glyph unicode="V" horiz-adv-x="786" d="M776 717v-23h-10q-84 0 -138 -133l-231 -575h-10l-246 589q-24 58 -51 88.5t-70 30.5h-10v23h309v-23h-13q-62 0 -62 -53q0 -15 16 -54l174 -415l165 414q9 23 9 46q0 30 -17 46t-48 16h-11v23h244z" />
<glyph unicode="W" horiz-adv-x="1130" d="M1120 717v-23h-10q-84 0 -121 -103l-215 -605h-22l-179 467l-179 -467h-16l-230 579q-51 129 -128 129h-10v23h312v-23h-11q-65 0 -65 -56q0 -18 6 -34l173 -444l130 341l-31 81q-23 60 -41.5 86t-46.5 26h-7v23h272v-23h-24q-54 0 -54 -46q0 -16 6 -32l172 -449l151 422 q10 30 10 46q0 29 -18 44t-49 15h-10v23h235z" />
<glyph unicode="X" horiz-adv-x="772" d="M696 717v-23h-10q-36 0 -70 -29t-75 -87l-124 -171l184 -271q76 -113 152 -113h10v-23h-359v23h11q33 0 52 15.5t19 41.5t-18 54l-121 179l-129 -179q-21 -29 -21 -55q0 -25 18.5 -40.5t48.5 -15.5h10v-23h-265v23h10q77 0 163 119l145 201l-169 250q-38 56 -61.5 78.5 t-50.5 22.5h-10v23h306v-23h-15q-28 0 -42 -14t-14 -37q0 -22 16 -46l109 -161l114 157q16 22 16 46t-17 39.5t-46 15.5h-10v23h243z" />
<glyph unicode="Y" horiz-adv-x="724" d="M9 717h326v-23h-27q-30 0 -45.5 -14.5t-15.5 -37.5q0 -24 13 -45l148 -250l136 253q14 25 14 48q0 46 -53 46h-19v23h229v-23h-10q-35 0 -70 -28.5t-61 -78.5l-148 -278v-196q0 -90 80 -90h10v-23h-291v23h11q79 0 79 90v172l-180 305q-34 58 -57 81t-59 23h-10v23z" />
<glyph unicode="Z" horiz-adv-x="602" d="M425 682h-195q-131 0 -162 -148h-18v183h509v-23l-389 -659h142q112 0 159 37t69 138h22v-210h-526v23z" />
<glyph unicode="[" horiz-adv-x="282" d="M242 717v-31h-35q-31 0 -40 -13.5t-9 -58.5v-596q0 -45 9 -58t40 -13h35v-31h-181v801h181z" />
<glyph unicode="\" horiz-adv-x="492" d="M55 717l430 -717h-48l-430 717h48z" />
<glyph unicode="]" horiz-adv-x="282" d="M41 686v31h180v-801h-180v31h35q31 0 40 13t9 58v596q0 45 -9 58.5t-40 13.5h-35z" />
<glyph unicode="^" horiz-adv-x="473" d="M210 717h53l179 -234h-51l-154 197l-155 -197h-51z" />
<glyph unicode="_" horiz-adv-x="523" d="M10 -35v35h503v-35h-503z" />
<glyph unicode="`" horiz-adv-x="285" d="M146 693l68 -144h-27l-98 106q-14 15 -14 33q0 14 10 23.5t24 9.5q24 0 37 -28z" />
<glyph unicode="a" horiz-adv-x="508" d="M497 98q-4 -54 -29.5 -83t-65.5 -29q-33 0 -56 20.5t-30 60.5l-18 -19q-37 -37 -68.5 -49.5t-68.5 -12.5q-56 0 -94 35.5t-38 94.5q0 114 154 156l132 35v70q0 48 -23.5 73t-64.5 25q-37 0 -61 -17.5t-24 -43.5q0 -6 4.5 -19.5t4.5 -21.5q0 -22 -13.5 -36.5t-36.5 -14.5 q-21 0 -34 13.5t-13 35.5q0 21 8 37q22 43 71 70.5t108 27.5q171 0 171 -148v-255q0 -20 8.5 -31t22.5 -11q32 0 40 41zM315 97v186l-73 -28q-117 -44 -117 -125q0 -36 21.5 -61t61.5 -25q50 0 86 33z" />
<glyph unicode="b" horiz-adv-x="555" d="M141 44l-29 -44h-23v622q0 42 -16 57t-45 15h-11v23l168 14v-286q61 61 144 61q87 0 143 -62t56 -173q0 -124 -69 -204.5t-172 -80.5q-84 0 -146 58zM185 62q9 -18 34 -31t56 -13q68 0 109.5 64.5t41.5 169.5q0 94 -33 150t-95 56q-71 0 -113 -50v-346z" />
<glyph unicode="c" horiz-adv-x="474" d="M443 389q0 -26 -17 -42.5t-40 -16.5q-25 0 -39 16t-14 42q0 7 2.5 21.5t2.5 20.5q0 15 -9 26q-16 22 -60 22q-51 0 -93.5 -55.5t-42.5 -143.5q0 -97 45 -160.5t122 -63.5q51 0 83 27.5t54 81.5l17 -6q-14 -73 -64 -122.5t-126 -49.5q-102 0 -169.5 69.5t-67.5 182.5 q0 119 75 193.5t173 74.5q77 0 122.5 -35t45.5 -82z" />
<glyph unicode="d" horiz-adv-x="555" d="M466 731v-633q0 -42 14 -58.5t47 -16.5h11v-23h-168v58q-47 -72 -137 -72t-148 67t-58 174q0 122 64 200.5t166 78.5q66 0 113 -36v152q0 41 -16.5 56.5t-45.5 15.5h-10v23zM267 473q-55 0 -96.5 -58t-41.5 -155q0 -100 38.5 -158t102.5 -58q32 0 59.5 13t40.5 34v265 q0 48 -28 82.5t-75 34.5z" />
<glyph unicode="e" horiz-adv-x="488" d="M258 506q87 0 147.5 -60t60.5 -156h-325v-17q0 -99 43.5 -161.5t116.5 -62.5q103 0 142 126l16 -4q-12 -84 -66.5 -134.5t-132.5 -50.5q-104 0 -168.5 69.5t-64.5 182.5q0 116 68 192t163 76zM370 321q0 66 -30.5 110t-83.5 44q-43 0 -76.5 -42.5t-37.5 -111.5h228z" />
<glyph unicode="f" horiz-adv-x="267" d="M17 492h78v66q0 173 127 173q43 0 72.5 -24.5t29.5 -62.5q0 -25 -16 -40.5t-38 -15.5q-21 0 -35.5 14t-14.5 33q0 8 2.5 20t2.5 19q0 11 -7.5 18.5t-21.5 7.5q-20 0 -33 -13.5t-13 -38.5q0 -21 19.5 -63t21.5 -93h87v-25h-87v-369q0 -42 14 -58.5t48 -16.5h10v-23h-239 v23h10q33 0 47 16.5t14 58.5v369h-78v25z" />
<glyph unicode="g" horiz-adv-x="517" d="M250 506q51 0 109 -29h133v-37h-89q42 -48 42 -111q0 -82 -61.5 -133t-145.5 -51q-53 0 -103 29q-21 -16 -21 -38q0 -26 38 -38t127 -13q95 -1 149.5 -38.5t54.5 -105.5q0 -81 -75 -131t-166 -50q-93 0 -157.5 40.5t-64.5 108.5q0 61 77 110q-52 31 -52 78q0 51 66 94 q-62 52 -62 125q0 88 59 139t142 51zM123 9q-29 -41 -29 -91q0 -47 42.5 -86t115.5 -39q72 0 117.5 34.5t45.5 76.5t-36.5 62.5t-123.5 20.5q-73 0 -132 22zM244 471q-45 0 -75 -35t-30 -95q0 -37 9.5 -71.5t35.5 -62t64 -27.5q52 0 79.5 35t27.5 97q0 64 -29.5 111.5 t-81.5 47.5z" />
<glyph unicode="h" horiz-adv-x="602" d="M585 23v-23h-240v23h10q34 0 48 16.5t14 58.5v237q0 50 -26.5 76t-69.5 26q-33 0 -70.5 -21.5t-65.5 -59.5v-258q0 -42 14 -58.5t48 -16.5h10v-23h-240v23h11q33 0 47 16.5t14 58.5v520q0 42 -14 59t-47 17h-11v23l168 14v-338q82 113 191 113q66 0 101.5 -36t35.5 -103 v-269q0 -42 14 -58.5t47 -16.5h11z" />
<glyph unicode="i" horiz-adv-x="274" d="M71 638q0 28 19 47.5t47 19.5t47.5 -19.5t19.5 -47.5t-19.5 -47.5t-47.5 -19.5t-47 19.5t-19 47.5zM185 98q0 -42 14 -58.5t48 -16.5h10v-23h-240v23h11q33 0 47 16.5t14 58.5v298q0 42 -16 57.5t-45 15.5h-11v23l168 14v-408z" />
<glyph unicode="j" horiz-adv-x="263" d="M218 506v-548q0 -144 -118 -144q-52 0 -79.5 25.5t-27.5 56.5q0 24 13 37.5t35 13.5q21 0 34.5 -12t13.5 -32q0 -5 -2.5 -17t-2.5 -17q0 -13 9.5 -22t25.5 -9q18 0 28.5 13t10.5 31q0 23 -18 76.5t-18 99.5v338q0 42 -16.5 57.5t-45.5 15.5h-10v23zM103 638 q0 28 19.5 47.5t47.5 19.5t47.5 -19.5t19.5 -47.5t-19.5 -47.5t-47.5 -19.5t-47.5 19.5t-19.5 47.5z" />
<glyph unicode="k" horiz-adv-x="566" d="M185 98q0 -42 14 -58.5t48 -16.5h10v-23h-240v23h11q33 0 47 16.5t14 58.5v524q0 42 -16 57t-45 15h-11v23l168 14v-633zM283 325l186 -242q22 -30 39.5 -43t43.5 -17v-23h-215v23q22 0 22 21q0 9 -6 18l-168 217l150 132q19 18 19 33q0 25 -36 25h-10v23h194v-23h-8 q-48 0 -114 -59z" />
<glyph unicode="l" horiz-adv-x="274" d="M185 98q0 -42 14 -58.5t48 -16.5h10v-23h-240v23h11q33 0 47 16.5t14 58.5v524q0 42 -16 57t-45 15h-11v23l168 14v-633z" />
<glyph unicode="m" horiz-adv-x="885" d="M185 392q79 114 175 114q121 0 132 -116q75 116 176 116q64 0 98 -36.5t34 -102.5v-269q0 -43 12.5 -59t45.5 -16h10v-23h-233v23h10q33 0 45.5 16t12.5 59v237q0 51 -23.5 76.5t-63.5 25.5q-30 0 -65.5 -23.5t-57.5 -58.5v-257q0 -43 12.5 -59t45.5 -16h10v-23h-233v23 h10q33 0 45.5 16t12.5 59v237q0 51 -23.5 76.5t-63.5 25.5q-30 0 -66 -23.5t-58 -58.5v-257q0 -42 14 -58.5t48 -16.5h10v-23h-240v23h11q33 0 47 16.5t14 58.5v295q0 42 -14 59t-47 17h-11v23l168 14v-114z" />
<glyph unicode="n" horiz-adv-x="594" d="M185 385q73 121 182 121q67 0 103 -38t36 -101v-269q0 -42 14 -58.5t47 -16.5h11v-23h-240v23h10q34 0 48 16.5t14 58.5v237q0 102 -97 102q-36 0 -71 -24.5t-57 -64.5v-250q0 -42 14 -58.5t48 -16.5h10v-23h-240v23h11q33 0 47 16.5t14 58.5v295q0 42 -14 59t-47 17h-11 v23l168 14v-121z" />
<glyph unicode="o" horiz-adv-x="547" d="M27 232q0 123 69.5 198.5t174.5 75.5q109 0 179.5 -69t70.5 -179q0 -117 -72.5 -194.5t-173.5 -77.5q-114 0 -181 70.5t-67 175.5zM133 265q0 -110 39.5 -179.5t107.5 -69.5q61 0 98 55t37 153q0 125 -40 188t-107 63q-59 0 -97 -56t-38 -154z" />
<glyph unicode="p" horiz-adv-x="569" d="M182 506v-94q63 94 166 94q87 0 141 -67.5t54 -183.5q0 -120 -70.5 -194.5t-168.5 -74.5q-77 0 -122 42v-155q0 -42 14 -59t48 -17h10v-22h-240v22h11q33 0 47 17t14 59v523q0 42 -16 57.5t-45 15.5h-11v23zM298 442q-79 0 -116 -67v-255q0 -48 30 -75t76 -27 q70 0 111 62t41 164q0 96 -38.5 147t-103.5 51z" />
<glyph unicode="q" horiz-adv-x="557" d="M401 458l58 48h22v-633q0 -42 14.5 -59t47.5 -17h10v-22h-240v22h11q33 0 47 17t14 59v196q-56 -83 -147 -83q-85 0 -148 67.5t-63 185.5q0 119 69.5 193t173.5 74q79 0 131 -48zM281 473q-65 0 -109.5 -53.5t-44.5 -167.5q0 -91 41 -148t104 -57q64 0 113 54v255 q0 53 -30 85t-74 32z" />
<glyph unicode="r" horiz-adv-x="401" d="M303 506q38 0 60.5 -19.5t22.5 -54.5q0 -29 -18 -45.5t-44 -16.5q-30 0 -48 27l-6 12t-5.5 11.5t-5.5 8.5t-7 7t-8.5 4t-12.5 2q-10 0 -19.5 -6t-18 -27t-8.5 -55v-256q0 -42 14 -58.5t48 -16.5h10v-23h-240v23h11q33 0 47 16.5t14 58.5v295q0 42 -14 59t-47 17h-11v23 l168 14v-70q17 30 50.5 50t67.5 20z" />
<glyph unicode="s" horiz-adv-x="408" d="M293 98q0 43 -30.5 65.5t-95.5 46.5q-134 49 -134 155q0 62 48.5 101.5t117.5 39.5q49 0 101 -31q10 -6 18 -6q17 0 17 23h24v-158h-19q-8 65 -44.5 102t-93.5 37q-40 0 -63 -21t-23 -52q0 -36 30.5 -60.5t95.5 -50.5q70 -28 104 -62t34 -87q0 -68 -47.5 -111t-122.5 -43 q-65 0 -120 37q-8 5 -15 5q-10 0 -16.5 -8t-6.5 -20h-26v176h24q12 -72 54.5 -115t93.5 -43q44 0 69.5 22t25.5 58z" />
<glyph unicode="t" horiz-adv-x="317" d="M181 639v-147h94v-25h-94v-349q0 -64 46 -64q39 0 58 36l10 -6q-28 -98 -111 -98q-49 0 -77.5 38.5t-28.5 100.5q0 27 3.5 106t3.5 131v105h-70v25q125 0 142 147h24z" />
<glyph unicode="u" horiz-adv-x="592" d="M504 506v-408q0 -42 14 -58.5t47 -16.5h10v-23l-167 -14v115q-70 -115 -171 -115q-68 0 -108 41.5t-40 122.5v243q0 42 -14 59t-47 17h-11v23l168 14v-349q0 -51 24 -77.5t67 -26.5q74 0 132 85v255q0 42 -14 59t-48 17h-10v23z" />
<glyph unicode="v" horiz-adv-x="591" d="M293 0l-188 384q-23 45 -40 65t-41 20h-11v23h270v-23h-21q-53 0 -53 -44q0 -17 11 -39l113 -233l99 236q12 31 12 46q0 34 -45 34h-10v23h188v-23h-11q-62 0 -99 -87l-160 -382h-14z" />
<glyph unicode="w" horiz-adv-x="825" d="M811 492v-23h-10q-29 0 -48 -22.5t-42 -75.5l-161 -371h-14l-122 308l-133 -308h-15l-168 384q-20 43 -37 64t-39 21h-11v23h219v-23h-10q-29 0 -29 -28q0 -9 7 -25l113 -261l85 197l-28 73q-16 44 -50 44h-5v23h233v-23h-10q-54 0 -54 -46q0 -18 7 -36l92 -233l102 235 q9 19 9 36q0 20 -13 32t-36 12h-10v23h178z" />
<glyph unicode="x" horiz-adv-x="615" d="M595 23v-23h-286v23h10q21 0 33 10.5t12 28.5t-16 40l-74 98l-74 -92q-15 -19 -15 -38q0 -20 12.5 -33.5t32.5 -13.5h11v-23h-219v23h10q38 0 65 20.5t63 64.5l95 116l-140 185q-28 36 -43.5 48t-38.5 12v23h247v-23h-14q-15 0 -24.5 -9.5t-9.5 -23.5t12 -29l80 -105 l87 108q13 17 13 30q0 29 -37 29h-10v23h184v-23h-10q-52 0 -117 -80l-91 -113l132 -168q36 -45 60 -65t50 -20h10z" />
<glyph unicode="y" horiz-adv-x="591" d="M351 145l101 253q6 17 6 28q0 43 -57 43h-10v23h183v-23h-10q-30 0 -48.5 -20t-34.5 -60l-187 -472q-28 -70 -59 -101t-81 -31q-33 0 -51.5 17.5t-18.5 41.5q0 22 14 38t39 16q22 0 42 -15t32 -15q20 0 33.5 19t27.5 55l26 63l-188 379q-23 44 -42 64.5t-43 20.5h-11v23 h281v-23h-13q-28 0 -43.5 -13.5t-15.5 -36.5q0 -18 11 -40z" />
<glyph unicode="z" horiz-adv-x="467" d="M305 467h-102q-68 0 -102.5 -27.5t-43.5 -93.5h-14v146h381v-25l-261 -442h100q64 0 101.5 24.5t51.5 93.5h16v-143h-399v25z" />
<glyph unicode="{" horiz-adv-x="266" d="M61 389v172q0 87 33 121.5t104 34.5h44v-31h-15q-46 0 -57.5 -22t-11.5 -75v-156q0 -102 -70 -117q70 -15 70 -116v-156q0 -27 1.5 -41t8 -29t21 -21t38.5 -6h15v-31h-44q-71 0 -104 34.5t-33 121.5v172q0 35 -10.5 46t-40.5 11v31q30 0 40.5 11t10.5 46z" />
<glyph unicode="|" horiz-adv-x="143" d="M92 717v-717h-41v717h41z" />
<glyph unicode="}" horiz-adv-x="267" d="M206 561v-172q0 -35 10.5 -46t40.5 -11v-31q-30 0 -40.5 -11t-10.5 -46v-172q0 -87 -32.5 -121.5t-103.5 -34.5h-44v31h14q32 0 48 13t19 30.5t3 53.5v156q0 101 69 116q-69 15 -69 117v156q0 36 -3 53.5t-19 30.5t-48 13h-14v31h44q71 0 103.5 -34.5t32.5 -121.5z" />
<glyph unicode="~" horiz-adv-x="394" d="M20 293q1 48 28.5 80.5t79.5 32.5q37 0 86.5 -26t76.5 -26q25 0 41 15t21 37h21q-1 -51 -28 -82t-80 -31q-37 0 -86.5 25.5t-76.5 25.5q-25 0 -41 -14.5t-21 -36.5h-21z" />
<glyph unicode="&#xa1;" horiz-adv-x="184" d="M92 -240q-29 0 -47 18.5t-18 50.5q0 15 26 159.5t26 271.5h26q0 -95 13.5 -187.5t26.5 -156t13 -87.5q0 -32 -18.5 -50.5t-47.5 -18.5zM92 369q-27 0 -45.5 18.5t-18.5 45.5t18.5 46t45.5 19t46 -19t19 -46t-19 -45.5t-46 -18.5z" />
<glyph unicode="&#xa2;" horiz-adv-x="474" d="M289 608v-102q69 -1 111.5 -36.5t42.5 -80.5q0 -26 -17 -42.5t-40 -16.5q-25 0 -39 16t-14 42q0 7 2.5 21.5t2.5 20.5q0 15 -9 26q-11 16 -40 21v-421q7 -1 12 -1q92 0 136 109l17 -6q-14 -70 -56.5 -116t-108.5 -55v-89h-35v88q-99 4 -163 73t-64 179q0 112 66.5 185 t160.5 83v102h35zM254 477q-47 -9 -84 -63t-37 -135q0 -80 30.5 -138.5t90.5 -78.5v415z" />
<glyph unicode="&#xa3;" horiz-adv-x="507" d="M302 731q72 0 123 -34t51 -83q0 -32 -19 -50t-44 -18t-39.5 16.5t-14.5 42.5q0 9 4 28.5t4 26.5q0 6 -5 16q-16 24 -61 24q-44 0 -75 -38t-31 -100q0 -67 27 -140h124v-35h-115q33 -99 33 -190q0 -49 -14 -97q56 -28 101 -28q103 0 127 125l17 -2q-9 -103 -43 -156 t-102 -53q-61 0 -126 60q-38 -60 -99 -60q-35 0 -60 22.5t-25 61.5q0 35 24 57.5t63 22.5q32 0 60 -17q0 45 -10.5 91t-21.5 75t-37 88h-83v35h69q-20 53 -20 112q0 91 67.5 144t150.5 53zM183 91q-28 28 -59 28q-22 0 -34 -13t-12 -33t13 -31.5t32 -11.5q46 0 60 61z" />
<glyph unicode="&#xa4;" horiz-adv-x="561" d="M503 18l-86 86q-59 -45 -136 -45q-78 0 -137 45l-86 -86l-42 42l86 86q-45 59 -45 137q0 77 45 136l-86 86l42 42l86 -86q59 45 137 45q77 0 136 -45l86 86l42 -42l-86 -86q45 -59 45 -136q0 -78 -45 -137l86 -86zM444 283q0 71 -45.5 119.5t-117.5 48.5t-118 -48.5 t-46 -119.5t46 -119.5t118 -48.5t117.5 48.5t45.5 119.5z" />
<glyph unicode="&#xa5;" horiz-adv-x="712" d="M702 717v-23h-10q-35 0 -69.5 -28.5t-60.5 -78.5l-108 -211h87v-35h-105l-16 -32v-66h121v-35h-121v-95q0 -90 80 -90h10v-23h-291v23h10q80 0 80 90v95h-127v35h127v42l-31 56h-96v35h75l-122 214q-33 57 -56.5 80.5t-59.5 23.5h-10v23h326v-23h-27q-30 0 -45.5 -14.5 t-15.5 -37.5q0 -22 13 -45l141 -250l130 253q15 28 15 48q0 46 -53 46h-19v23h228z" />
<glyph unicode="&#xa6;" horiz-adv-x="143" d="M92 415h-41v302h41v-302zM51 302h41v-302h-41v302z" />
<glyph unicode="&#xa7;" horiz-adv-x="516" d="M265 731q70 0 116 -36t46 -77q0 -25 -13 -38t-34 -13q-17 0 -30 12.5t-13 34.5q0 11 2.5 25t2.5 18q0 19 -28 32q-22 11 -55 11q-42 0 -69.5 -23.5t-27.5 -60.5q0 -47 43.5 -85t119.5 -75q73 -36 111 -75t38 -89q0 -52 -34.5 -86.5t-89.5 -39.5q87 -57 87 -148 q0 -69 -54 -116t-130 -47q-75 0 -119.5 35.5t-44.5 75.5q0 25 14 38.5t34 13.5q19 0 32 -11.5t13 -32.5q0 -13 -3 -26t-3 -16q0 -23 30 -35q29 -12 62 -12q37 0 61.5 23t24.5 59q0 48 -42 84.5t-121 76.5q-75 38 -112 76.5t-37 89.5q0 54 38.5 87t86.5 36q-39 25 -63.5 64 t-24.5 85q0 71 51 118t135 47zM182 396q-32 0 -51.5 -17.5t-19.5 -43.5q0 -49 62 -81l80 -43q48 -25 80 -25q30 0 49.5 17.5t19.5 44.5q0 46 -59 78l-99 55q-26 15 -62 15z" />
<glyph unicode="&#xa8;" horiz-adv-x="391" d="M233 620q0 22 16 37.5t38 15.5q23 0 38 -15.5t15 -37.5q0 -23 -15.5 -38.5t-37.5 -15.5t-38 16t-16 38zM51 620q0 22 15.5 37.5t37.5 15.5t38 -15.5t16 -37.5t-16 -38t-38 -16t-37.5 15.5t-15.5 38.5z" />
<glyph unicode="&#xa9;" horiz-adv-x="792" d="M396 731q155 0 260.5 -106.5t105.5 -266.5t-105.5 -266t-260.5 -106t-260 106t-105 266t105 266.5t260 106.5zM414 594q46 0 102 -29q12 -6 20 -6q17 0 17 21v5h15v-157h-15q-10 67 -47 105t-91 38q-73 0 -110 -57t-37 -156q0 -100 39 -151t112 -51q109 0 149 140l15 -5 q-15 -74 -64 -121t-117 -47q-86 0 -151.5 62t-65.5 173t70.5 173.5t158.5 62.5zM396 696q-135 0 -229.5 -96.5t-94.5 -241.5t94.5 -241.5t229.5 -96.5t230 96.5t95 241.5t-95 241.5t-230 96.5z" />
<glyph unicode="&#xaa;" horiz-adv-x="360" d="M357 439q-2 -39 -20 -60t-47 -21q-51 0 -62 59l-13 -14q-45 -45 -98 -45q-40 0 -67 26t-27 68q0 83 110 112l95 25v50q0 34 -17 52t-46 18q-27 0 -44 -12.5t-17 -31.5q0 -4 3 -13.5t3 -15.5q0 -16 -9.5 -26.5t-25.5 -10.5q-14 0 -24 10t-10 25q0 16 6 26q15 31 50 51 t77 20q123 0 123 -105v-184q0 -29 22 -29q24 0 29 29zM228 438v133l-53 -20q-84 -30 -84 -89q0 -26 15.5 -44t44.5 -18q37 0 61 24z" />
<glyph unicode="&#xab;" horiz-adv-x="353" d="M10 330l164 158l16 -15l-105 -156l105 -155l-16 -16l-164 159v25zM161 330l164 158l16 -15l-105 -156l105 -155l-16 -16l-164 159v25z" />
<glyph unicode="&#xac;" horiz-adv-x="437" d="M15 340v35h402v-193h-35v158h-367z" />
<glyph unicode="&#xad;" horiz-adv-x="379" d="M15 285v34h350v-34h-350z" />
<glyph unicode="&#xae;" horiz-adv-x="792" d="M393 588q81 0 128 -31.5t47 -91.5q0 -43 -28.5 -75.5t-74.5 -43.5l64 -159q13 -31 54 -44v-14h-94q-16 5 -23 21l-79 187h-49v-136q0 -58 51 -58h6v-14h-185v14h6q51 0 51 58v315q0 57 -51 57h-6v15h183zM411 565h-27q-25 0 -35.5 -10.5t-10.5 -38.5v-157h27 q69 0 101 29.5t32 78.5q0 42 -24 70t-63 28zM396 731q155 0 260.5 -106.5t105.5 -266.5t-105.5 -266t-260.5 -106t-260 106t-105 266t105 266.5t260 106.5zM396 696q-135 0 -229.5 -96.5t-94.5 -241.5t94.5 -241.5t229.5 -96.5t230 96.5t95 241.5t-95 241.5t-230 96.5z" />
<glyph unicode="&#xaf;" horiz-adv-x="317" d="M31 612v35h256v-35h-256z" />
<glyph unicode="&#xb0;" horiz-adv-x="309" d="M31 605q0 53 36 89.5t88 36.5t88 -36.5t36 -89.5t-36 -89.5t-88 -36.5t-88 36.5t-36 89.5zM75 605q0 -35 22.5 -59.5t57.5 -24.5t57 24.5t22 59.5t-22 59.5t-57 24.5t-57.5 -24.5t-22.5 -59.5z" />
<glyph unicode="&#xb1;" horiz-adv-x="442" d="M204 549h35v-189h188v-34h-188v-189h-35v189h-189v34h189v189zM15 0v35h412v-35h-412z" />
<glyph unicode="&#xb2;" horiz-adv-x="314" d="M102 401h78q32 0 49 12.5t24 44.5h12l-9 -100h-214v8q159 147 159 246q0 72 -62 72q-27 0 -49.5 -16t-32.5 -41l-8 3q11 43 40 72t73 29q43 0 70 -25t27 -69q0 -53 -36.5 -105.5t-120.5 -130.5z" />
<glyph unicode="&#xb3;" horiz-adv-x="311" d="M145 352q-44 0 -69 13.5t-25 35.5q0 12 8.5 21.5t21.5 9.5q25 0 38 -33q12 -26 37 -26t43 21.5t18 57.5q0 40 -28.5 63.5t-68.5 23.5v9q35 10 55 32.5t20 51.5q0 28 -16.5 45t-45.5 17q-25 0 -45 -16t-27 -43l-8 2q5 41 33.5 67.5t68.5 26.5t64 -20.5t24 -53.5 q0 -53 -50 -85q31 -11 53 -36t22 -61q0 -55 -36 -89t-87 -34z" />
<glyph unicode="&#xb4;" horiz-adv-x="241" d="M51 549l68 144q13 28 38 28q14 0 23.5 -9.5t9.5 -23.5q0 -18 -14 -33l-98 -106h-27z" />
<glyph unicode="&#xb5;" horiz-adv-x="592" d="M504 506v-408q0 -42 14 -58.5t47 -16.5h10v-23l-167 -14v115q-70 -115 -171 -115q-85 0 -123 61v-24q0 -55 18 -102t18 -71q0 -23 -15 -37t-34 -14t-33.5 14t-14.5 37q0 24 18 71t18 102v370q0 42 -14 59t-47 17h-11v23l168 14v-349q0 -51 24 -77.5t67 -26.5q74 0 132 85 v255q0 42 -14 59t-48 17h-10v23z" />
<glyph unicode="&#xb6;" horiz-adv-x="537" d="M521 717v-23h-10q-80 0 -80 -90v-604q0 -90 80 -90h10v-23h-125v773q0 22 -19 22h-41q-20 0 -20 -22v-773h-125v23h11q80 0 80 90v373h-70q-78 0 -129.5 50t-51.5 122t51.5 122t129.5 50h309z" />
<glyph unicode="&#xb7;" horiz-adv-x="180" d="M23 358q0 27 18.5 46t45.5 19t46 -19t19 -46t-19 -45.5t-46 -18.5t-45.5 18.5t-18.5 45.5z" />
<glyph unicode="&#xb8;" horiz-adv-x="264" d="M133 18l-37 -65q21 8 42 8q30 0 53 -22t23 -61q0 -43 -26.5 -67t-65.5 -24q-55 0 -80 50l9 9q23 -31 55 -31q24 0 39 15t15 44q0 24 -15 39t-37 15q-28 0 -49 -21l-7 4l50 107h31z" />
<glyph unicode="&#xb9;" horiz-adv-x="245" d="M97 643q0 26 -9.5 36t-30.5 10h-4v11l91 27h6v-311q0 -45 39 -45h6v-13h-144v13h5q41 0 41 45v227z" />
<glyph unicode="&#xba;" horiz-adv-x="399" d="M23 536q0 88 49.5 141.5t125.5 53.5q78 0 128.5 -49.5t50.5 -127.5q0 -84 -52 -140t-124 -56q-82 0 -130 51t-48 127zM98 559q0 -79 28.5 -129t77.5 -50q43 0 69.5 39.5t26.5 109.5q0 89 -28 134.5t-76 45.5q-42 0 -70 -40.5t-28 -109.5z" />
<glyph unicode="&#xbb;" horiz-adv-x="353" d="M179 488l164 -158v-25l-164 -159l-16 16l105 155l-105 156zM29 488l164 -158v-25l-164 -159l-17 16l106 155l-106 156z" />
<glyph unicode="&#xbc;" horiz-adv-x="631" d="M115 22l416 695l35 -22l-416 -695zM97 643q0 26 -9.5 36t-30.5 10h-4v11l91 27h6v-311q0 -45 39 -45h6v-13h-144v13h5q41 0 41 45v227zM568 117v-21h-45v-39q0 -45 41 -45h5v-12h-147v12h5q41 0 41 45v39h-145v20l185 257h15v-256h45zM468 283l-120 -166h120v166z" />
<glyph unicode="&#xbd;" horiz-adv-x="665" d="M115 22l416 695l35 -22l-416 -695zM97 643q0 26 -9.5 36t-30.5 10h-4v11l91 27h6v-311q0 -45 39 -45h6v-13h-144v13h5q41 0 41 45v227zM449 43h77q32 0 49 12t24 44h12l-9 -99h-214v7q159 147 159 247q0 72 -62 72q-27 0 -49.5 -16.5t-32.5 -41.5l-8 3q11 43 40 72.5 t73 29.5q43 0 70 -25t27 -69q0 -53 -36 -106t-120 -130z" />
<glyph unicode="&#xbe;" horiz-adv-x="664" d="M145 352q-44 0 -69 13.5t-25 35.5q0 12 8.5 21.5t21.5 9.5q25 0 38 -33q12 -26 37 -26t43 21.5t18 57.5q0 40 -28.5 63.5t-68.5 23.5v9q35 10 55 32.5t20 51.5q0 28 -16.5 45t-45.5 17q-25 0 -45 -16t-27 -43l-8 2q5 41 33.5 67.5t68.5 26.5t64 -20.5t24 -53.5 q0 -53 -50 -85q31 -11 53 -36t22 -61q0 -55 -36 -89t-87 -34zM147 22l417 695l35 -22l-417 -695zM601 117v-21h-45v-39q0 -45 41 -45h5v-12h-147v12h5q41 0 41 45v39h-146v20l186 257h15v-256h45zM501 283l-120 -166h120v166z" />
<glyph unicode="&#xbf;" horiz-adv-x="466" d="M246 -240q-103 0 -164.5 55.5t-61.5 145.5q0 179 218 233v80h30v-101q-77 -33 -107 -82t-30 -135q0 -79 39.5 -123.5t90.5 -44.5q39 0 64.5 21t25.5 55q0 8 -6 26t-6 30q0 24 15.5 38.5t39.5 14.5q25 0 42 -16t17 -47q0 -52 -55.5 -101t-151.5 -49zM253 369 q-27 0 -46 18.5t-19 45.5t19 46t46 19t45.5 -19t18.5 -46t-18.5 -45.5t-45.5 -18.5z" />
<glyph unicode="&#xc0;" horiz-adv-x="798" d="M398 731l247 -581q54 -127 135 -127h11v-23h-323v23h10q27 0 46 15.5t19 37.5q0 19 -19 60l-37 82h-266l-35 -87q-9 -23 -9 -43q0 -29 18 -47t48 -18h10v-23h-245v23h10q39 0 77 36t63 97l230 575h10zM351 545l-115 -292h237zM387 919l68 -145h-27l-98 107q-15 16 -15 32 q0 14 10 23.5t24 9.5q25 0 38 -27z" />
<glyph unicode="&#xc1;" horiz-adv-x="798" d="M398 731l247 -581q54 -127 135 -127h11v-23h-323v23h10q27 0 46 15.5t19 37.5q0 19 -19 60l-37 82h-266l-35 -87q-9 -23 -9 -43q0 -29 18 -47t48 -18h10v-23h-245v23h10q39 0 77 36t63 97l230 575h10zM351 545l-115 -292h237zM343 774l68 145q13 27 38 27q14 0 23.5 -9.5 t9.5 -23.5q0 -17 -14 -32l-98 -107h-27z" />
<glyph unicode="&#xc2;" horiz-adv-x="798" d="M398 731l247 -581q54 -127 135 -127h11v-23h-323v23h10q27 0 46 15.5t19 37.5q0 19 -19 60l-37 82h-266l-35 -87q-9 -23 -9 -43q0 -29 18 -47t48 -18h10v-23h-245v23h10q39 0 77 36t63 97l230 575h10zM351 545l-115 -292h237zM438 942l102 -154h-31l-112 98l-111 -98h-31 l101 154h82z" />
<glyph unicode="&#xc3;" horiz-adv-x="798" d="M398 731l247 -581q54 -127 135 -127h11v-23h-323v23h10q27 0 46 15.5t19 37.5q0 19 -19 60l-37 82h-266l-35 -87q-9 -23 -9 -43q0 -29 18 -47t48 -18h10v-23h-245v23h10q39 0 77 36t63 97l230 575h10zM351 545l-115 -292h237zM236 795q1 50 27 80.5t70 30.5 q30 0 73 -25.5t66 -25.5q48 0 59 51h19q-1 -50 -27 -80.5t-70 -30.5q-30 0 -73.5 25.5t-66.5 25.5q-48 0 -59 -51h-18z" />
<glyph unicode="&#xc4;" horiz-adv-x="798" d="M398 731l247 -581q54 -127 135 -127h11v-23h-323v23h10q27 0 46 15.5t19 37.5q0 19 -19 60l-37 82h-266l-35 -87q-9 -23 -9 -43q0 -29 18 -47t48 -18h10v-23h-245v23h10q39 0 77 36t63 97l230 575h10zM351 545l-115 -292h237zM434 845q0 22 15.5 37.5t37.5 15.5 q23 0 38.5 -15.5t15.5 -37.5t-15.5 -37.5t-38.5 -15.5q-22 0 -37.5 15.5t-15.5 37.5zM252 845q0 23 15 38t38 15q22 0 37.5 -15.5t15.5 -37.5t-15.5 -37.5t-37.5 -15.5q-23 0 -38 15t-15 38z" />
<glyph unicode="&#xc5;" horiz-adv-x="798" d="M398 731l247 -581q54 -127 135 -127h11v-23h-323v23h10q27 0 46 15.5t19 37.5q0 19 -19 60l-37 82h-266l-35 -87q-9 -23 -9 -43q0 -29 18 -47t48 -18h10v-23h-245v23h10q39 0 77 36t63 97l230 575h10zM351 545l-115 -292h237zM310 843q0 35 25 59t60 24t60 -24t25 -59 t-25 -59t-60 -24t-60 24t-25 59zM341 843q0 -23 15.5 -39t38.5 -16t39 16t16 39t-16 38.5t-39 15.5t-38.5 -15.5t-15.5 -38.5z" />
<glyph unicode="&#xc6;" horiz-adv-x="994" d="M981 191l-14 -191h-539v23h10q80 0 80 90v105h-268l-41 -63q-23 -37 -23 -67q0 -29 18 -47t48 -18h10v-23h-254v23h6q70 0 153 133l276 440q15 26 15 44q0 24 -18.5 39t-50.5 15h-22v23h590v-181h-22q-5 77 -39.5 111.5t-114.5 34.5h-91q-33 0 -47 -14.5t-14 -57.5v-232 h120q53 0 80.5 33.5t27.5 89.5h23v-281h-23q0 56 -27.5 89.5t-80.5 33.5h-120v-237q0 -43 14 -57t47 -14h74q86 0 131 35t63 121h23zM518 253v395l-248 -395h248z" />
<glyph unicode="&#xc7;" horiz-adv-x="654" d="M379 731q73 0 158 -46q18 -9 29 -9q27 0 27 34v7h23v-234h-23q-18 99 -74.5 156t-137.5 57q-113 0 -167 -90.5t-54 -247.5t57.5 -240t167.5 -83q167 0 238 217l19 -7q-29 -125 -102.5 -191.5t-177.5 -67.5l-18 -33q21 8 42 8q30 0 53 -22t23 -61q0 -43 -26.5 -67 t-65.5 -24q-55 0 -80 50l9 9q23 -31 55 -31q24 0 39 15t15 44q0 24 -15.5 39t-37.5 15q-27 0 -48 -21l-7 4l35 76q-124 10 -214 108.5t-90 262.5q0 88 31 161t82 118t111.5 69.5t123.5 24.5z" />
<glyph unicode="&#xc8;" horiz-adv-x="582" d="M337 378q52 0 80 33.5t28 89.5h23v-281h-23q0 56 -28 89.5t-80 33.5h-120v-237q0 -43 14.5 -57t47.5 -14h73q87 0 132 35t63 121h22l-14 -191h-539v23h11q79 0 79 90v491q0 90 -79 90h-11v23h530v-181h-23q-5 78 -39 112t-114 34h-91q-33 0 -47.5 -14.5t-14.5 -57.5v-232 h120zM302 919l68 -145h-27l-98 107q-15 16 -15 32q0 14 10 23.5t24 9.5q25 0 38 -27z" />
<glyph unicode="&#xc9;" horiz-adv-x="582" d="M337 378q52 0 80 33.5t28 89.5h23v-281h-23q0 56 -28 89.5t-80 33.5h-120v-237q0 -43 14.5 -57t47.5 -14h73q87 0 132 35t63 121h22l-14 -191h-539v23h11q79 0 79 90v491q0 90 -79 90h-11v23h530v-181h-23q-5 78 -39 112t-114 34h-91q-33 0 -47.5 -14.5t-14.5 -57.5v-232 h120zM249 774l67 145q13 27 38 27q14 0 24 -9.5t10 -23.5q0 -17 -14 -32l-99 -107h-26z" />
<glyph unicode="&#xca;" horiz-adv-x="582" d="M337 378q52 0 80 33.5t28 89.5h23v-281h-23q0 56 -28 89.5t-80 33.5h-120v-237q0 -43 14.5 -57t47.5 -14h73q87 0 132 35t63 121h22l-14 -191h-539v23h11q79 0 79 90v491q0 90 -79 90h-11v23h530v-181h-23q-5 78 -39 112t-114 34h-91q-33 0 -47.5 -14.5t-14.5 -57.5v-232 h120zM351 942l102 -154h-31l-112 98l-111 -98h-31l101 154h82z" />
<glyph unicode="&#xcb;" horiz-adv-x="584" d="M339 378q52 0 80 33.5t28 89.5h23v-281h-23q0 56 -28 89.5t-80 33.5h-120v-237q0 -43 14.5 -57t47.5 -14h73q87 0 132 35t63 121h22l-14 -191h-539v23h11q80 0 80 90v491q0 90 -80 90h-11v23h530v-181h-23q-5 78 -39 112t-114 34h-91q-33 0 -47.5 -14.5t-14.5 -57.5v-232 h120zM341 845q0 22 15.5 37.5t37.5 15.5t37.5 -15t15.5 -38t-15.5 -38t-37.5 -15t-37.5 15.5t-15.5 37.5zM159 845q0 23 15.5 38t37.5 15t37.5 -15.5t15.5 -37.5t-15.5 -37.5t-37.5 -15.5t-37.5 15t-15.5 38z" />
<glyph unicode="&#xcc;" horiz-adv-x="323" d="M217 113q0 -90 80 -90h10v-23h-291v23h11q79 0 79 90v491q0 90 -79 90h-11v23h291v-23h-10q-80 0 -80 -90v-491zM168 919l68 -145h-27l-98 107q-15 16 -15 32q0 14 10 23.5t24 9.5q25 0 38 -27z" />
<glyph unicode="&#xcd;" horiz-adv-x="323" d="M217 113q0 -90 80 -90h10v-23h-291v23h11q79 0 79 90v491q0 90 -79 90h-11v23h291v-23h-10q-80 0 -80 -90v-491zM88 774l68 145q13 27 38 27q14 0 23.5 -9.5t9.5 -23.5q0 -17 -14 -32l-98 -107h-27z" />
<glyph unicode="&#xce;" horiz-adv-x="323" d="M217 113q0 -90 80 -90h10v-23h-291v23h11q79 0 79 90v491q0 90 -79 90h-11v23h291v-23h-10q-80 0 -80 -90v-491zM203 942l101 -154h-31l-111 98l-112 -98h-31l102 154h82z" />
<glyph unicode="&#xcf;" horiz-adv-x="323" d="M217 113q0 -90 80 -90h10v-23h-291v23h11q79 0 79 90v491q0 90 -79 90h-11v23h291v-23h-10q-80 0 -80 -90v-491zM200 845q0 22 15.5 37.5t37.5 15.5q23 0 38 -15t15 -38t-15 -38t-38 -15q-22 0 -37.5 15.5t-15.5 37.5zM17 845q0 22 15.5 37.5t38.5 15.5q22 0 37.5 -15.5 t15.5 -37.5t-15.5 -37.5t-37.5 -15.5q-23 0 -38.5 15.5t-15.5 37.5z" />
<glyph unicode="&#xd0;" horiz-adv-x="707" d="M7 343v31h90v230q0 90 -80 90h-10v23h297q75 0 140.5 -21t118 -63.5t83.5 -113t31 -161.5t-31 -161.5t-83.5 -112.5t-118 -63t-140.5 -21h-297v23h10q80 0 80 90v230h-90zM304 682h-35q-33 0 -47 -14.5t-14 -57.5v-236h104v-31h-104v-237q0 -43 14 -57t47 -14h37 q119 0 180.5 87.5t61.5 235.5q0 149 -62 236.5t-182 87.5z" />
<glyph unicode="&#xd1;" horiz-adv-x="728" d="M141 560v-447q0 -90 80 -90h10v-23h-215v23h11q79 0 79 90v491q0 90 -79 90h-11v23h146l425 -511v398q0 90 -80 90h-10v23h215v-23h-11q-79 0 -79 -90v-610h-11zM210 795q1 50 27 80.5t70 30.5q30 0 73 -25.5t66 -25.5q49 0 60 51h18q-1 -50 -27 -80.5t-70 -30.5 q-30 0 -73 25.5t-66 25.5q-49 0 -60 -51h-18z" />
<glyph unicode="&#xd2;" horiz-adv-x="763" d="M382 731q63 0 124.5 -24.5t112.5 -69.5t82.5 -118t31.5 -161t-31.5 -161t-82.5 -117.5t-112.5 -69t-124.5 -24.5t-124.5 24.5t-112.5 69t-82.5 117.5t-31.5 161t31.5 161t82.5 118t112.5 69.5t124.5 24.5zM604 358q0 164 -57.5 251t-164.5 87t-164.5 -87t-57.5 -251 t57.5 -251t164.5 -87t164.5 87t57.5 251zM357 919l68 -145h-27l-98 107q-14 15 -14 32q0 14 9.5 23.5t23.5 9.5q25 0 38 -27z" />
<glyph unicode="&#xd3;" horiz-adv-x="763" d="M382 731q63 0 124.5 -24.5t112.5 -69.5t82.5 -118t31.5 -161t-31.5 -161t-82.5 -117.5t-112.5 -69t-124.5 -24.5t-124.5 24.5t-112.5 69t-82.5 117.5t-31.5 161t31.5 161t82.5 118t112.5 69.5t124.5 24.5zM604 358q0 164 -57.5 251t-164.5 87t-164.5 -87t-57.5 -251 t57.5 -251t164.5 -87t164.5 87t57.5 251zM339 774l68 145q13 27 37 27q14 0 24 -9.5t10 -23.5q0 -17 -14 -32l-98 -107h-27z" />
<glyph unicode="&#xd4;" horiz-adv-x="763" d="M382 731q63 0 124.5 -24.5t112.5 -69.5t82.5 -118t31.5 -161t-31.5 -161t-82.5 -117.5t-112.5 -69t-124.5 -24.5t-124.5 24.5t-112.5 69t-82.5 117.5t-31.5 161t31.5 161t82.5 118t112.5 69.5t124.5 24.5zM604 358q0 164 -57.5 251t-164.5 87t-164.5 -87t-57.5 -251 t57.5 -251t164.5 -87t164.5 87t57.5 251zM423 942l101 -154h-30l-112 98l-112 -98h-30l101 154h82z" />
<glyph unicode="&#xd5;" horiz-adv-x="763" d="M382 731q63 0 124.5 -24.5t112.5 -69.5t82.5 -118t31.5 -161t-31.5 -161t-82.5 -117.5t-112.5 -69t-124.5 -24.5t-124.5 24.5t-112.5 69t-82.5 117.5t-31.5 161t31.5 161t82.5 118t112.5 69.5t124.5 24.5zM604 358q0 164 -57.5 251t-164.5 87t-164.5 -87t-57.5 -251 t57.5 -251t164.5 -87t164.5 87t57.5 251zM225 795q1 50 27.5 80.5t70.5 30.5q30 0 73 -25.5t66 -25.5q48 0 59 51h19q-1 -50 -27.5 -80.5t-70.5 -30.5q-30 0 -73 25.5t-66 25.5q-48 0 -59 -51h-19z" />
<glyph unicode="&#xd6;" horiz-adv-x="763" d="M382 731q63 0 124.5 -24.5t112.5 -69.5t82.5 -118t31.5 -161t-31.5 -161t-82.5 -117.5t-112.5 -69t-124.5 -24.5t-124.5 24.5t-112.5 69t-82.5 117.5t-31.5 161t31.5 161t82.5 118t112.5 69.5t124.5 24.5zM604 358q0 164 -57.5 251t-164.5 87t-164.5 -87t-57.5 -251 t57.5 -251t164.5 -87t164.5 87t57.5 251zM420 845q0 22 15.5 37.5t37.5 15.5q23 0 38 -15t15 -38t-15 -38t-38 -15q-22 0 -37.5 15.5t-15.5 37.5zM238 845q0 23 15 38t38 15q22 0 37.5 -15.5t15.5 -37.5t-15.5 -37.5t-37.5 -15.5q-23 0 -38 15t-15 38z" />
<glyph unicode="&#xd7;" horiz-adv-x="397" d="M41 476l25 25l133 -133l133 133l24 -25l-133 -133l133 -133l-24 -25l-133 133l-133 -133l-25 25l133 133z" />
<glyph unicode="&#xd8;" horiz-adv-x="763" d="M127 7l37 56q-133 107 -133 295q0 88 31.5 161t82.5 118t112.5 69.5t124.5 24.5q98 0 184 -54l36 54l35 -21l-38 -58q134 -105 134 -294q0 -88 -31.5 -161t-82.5 -117.5t-112.5 -69t-124.5 -24.5q-99 0 -185 54l-35 -54zM604 358q0 146 -46 232l-329 -500q56 -70 153 -70 q107 0 164.5 87t57.5 251zM160 358q0 -148 46 -231l328 500q-57 69 -152 69q-107 0 -164.5 -87t-57.5 -251z" />
<glyph unicode="&#xd9;" horiz-adv-x="728" d="M217 228q0 -191 189 -191q89 0 135 51.5t46 147.5v368q0 90 -80 90h-10v23h215v-23h-11q-79 0 -79 -90v-371q0 -114 -62.5 -180.5t-174.5 -66.5q-123 0 -201 69.5t-78 209.5v339q0 90 -79 90h-11v23h291v-23h-10q-80 0 -80 -90v-376zM401 919l68 -145h-27l-98 107 q-14 15 -14 32q0 14 10 23.5t24 9.5q24 0 37 -27z" />
<glyph unicode="&#xda;" horiz-adv-x="728" d="M217 228q0 -191 189 -191q89 0 135 51.5t46 147.5v368q0 90 -80 90h-10v23h215v-23h-11q-79 0 -79 -90v-371q0 -114 -62.5 -180.5t-174.5 -66.5q-123 0 -201 69.5t-78 209.5v339q0 90 -79 90h-11v23h291v-23h-10q-80 0 -80 -90v-376zM381 774l68 145q13 27 37 27 q14 0 24 -9.5t10 -23.5q0 -17 -14 -32l-98 -107h-27z" />
<glyph unicode="&#xdb;" horiz-adv-x="728" d="M217 228q0 -191 189 -191q89 0 135 51.5t46 147.5v368q0 90 -80 90h-10v23h215v-23h-11q-79 0 -79 -90v-371q0 -114 -62.5 -180.5t-174.5 -66.5q-123 0 -201 69.5t-78 209.5v339q0 90 -79 90h-11v23h291v-23h-10q-80 0 -80 -90v-376zM470 942l101 -154h-30l-112 98 l-112 -98h-30l101 154h82z" />
<glyph unicode="&#xdc;" horiz-adv-x="728" d="M217 228q0 -191 189 -191q89 0 135 51.5t46 147.5v368q0 90 -80 90h-10v23h215v-23h-11q-79 0 -79 -90v-371q0 -114 -62.5 -180.5t-174.5 -66.5q-123 0 -201 69.5t-78 209.5v339q0 90 -79 90h-11v23h291v-23h-10q-80 0 -80 -90v-376zM468 845q0 22 15.5 37.5t37.5 15.5 q23 0 38 -15t15 -38t-15 -38t-38 -15q-22 0 -37.5 15.5t-15.5 37.5zM286 845q0 23 15 38t38 15q22 0 37.5 -15.5t15.5 -37.5t-15.5 -37.5t-37.5 -15.5q-23 0 -38 15t-15 38z" />
<glyph unicode="&#xdd;" horiz-adv-x="724" d="M9 717h326v-23h-27q-30 0 -45.5 -14.5t-15.5 -37.5q0 -24 13 -45l148 -250l136 253q14 25 14 48q0 46 -53 46h-19v23h229v-23h-10q-35 0 -70 -28.5t-61 -78.5l-148 -278v-196q0 -90 80 -90h10v-23h-291v23h11q79 0 79 90v172l-180 305q-34 58 -57 81t-59 23h-10v23z M401 774l68 145q13 27 38 27q14 0 24 -9.5t10 -23.5q0 -16 -15 -32l-98 -107h-27z" />
<glyph unicode="&#xde;" horiz-adv-x="614" d="M307 717v-23h-10q-80 0 -80 -90v-40h99q127 0 207.5 -52.5t80.5 -151.5q0 -97 -85 -149t-209 -52h-93v-46q0 -90 80 -90h10v-23h-291v23h11q79 0 79 90v491q0 90 -79 90h-11v23h291zM291 529q-38 0 -56 -14.5t-18 -56.5v-264h82q95 0 145 46t50 127q0 162 -203 162z" />
<glyph unicode="&#xdf;" horiz-adv-x="528" d="M249 26q20 -8 41 -8q46 0 81 46t35 142q0 90 -33 139t-84 62v20q99 44 99 142q0 63 -29 97t-71 34q-103 0 -103 -146v-554h-168v23h11q33 0 47 16.5t14 58.5v421q0 102 52 157t147 55q83 0 130.5 -42.5t47.5 -109.5q0 -112 -136 -160q79 -25 125.5 -79.5t46.5 -128.5 q0 -106 -55 -162.5t-135 -56.5q-41 0 -71 12z" />
<glyph unicode="&#xe0;" horiz-adv-x="508" d="M497 98q-4 -54 -29.5 -83t-65.5 -29q-33 0 -56 20.5t-30 60.5l-18 -19q-37 -37 -68.5 -49.5t-68.5 -12.5q-56 0 -94 35.5t-38 94.5q0 114 154 156l132 35v70q0 48 -23.5 73t-64.5 25q-37 0 -61 -17.5t-24 -43.5q0 -6 4.5 -19.5t4.5 -21.5q0 -22 -13.5 -36.5t-36.5 -14.5 q-21 0 -34 13.5t-13 35.5q0 21 8 37q22 43 71 70.5t108 27.5q171 0 171 -148v-255q0 -20 8.5 -31t22.5 -11q32 0 40 41zM315 97v186l-73 -28q-117 -44 -117 -125q0 -36 21.5 -61t61.5 -25q50 0 86 33zM227 693l68 -144h-27l-98 106q-14 15 -14 33q0 14 9.5 23.5t23.5 9.5 q25 0 38 -28z" />
<glyph unicode="&#xe1;" horiz-adv-x="508" d="M497 98q-4 -54 -29.5 -83t-65.5 -29q-33 0 -56 20.5t-30 60.5l-18 -19q-37 -37 -68.5 -49.5t-68.5 -12.5q-56 0 -94 35.5t-38 94.5q0 114 154 156l132 35v70q0 48 -23.5 73t-64.5 25q-37 0 -61 -17.5t-24 -43.5q0 -6 4.5 -19.5t4.5 -21.5q0 -22 -13.5 -36.5t-36.5 -14.5 q-21 0 -34 13.5t-13 35.5q0 21 8 37q22 43 71 70.5t108 27.5q171 0 171 -148v-255q0 -20 8.5 -31t22.5 -11q32 0 40 41zM315 97v186l-73 -28q-117 -44 -117 -125q0 -36 21.5 -61t61.5 -25q50 0 86 33zM195 549l67 144q13 28 38 28q14 0 24 -9.5t10 -23.5q0 -17 -15 -33 l-98 -106h-26z" />
<glyph unicode="&#xe2;" horiz-adv-x="508" d="M497 98q-4 -54 -29.5 -83t-65.5 -29q-33 0 -56 20.5t-30 60.5l-18 -19q-37 -37 -68.5 -49.5t-68.5 -12.5q-56 0 -94 35.5t-38 94.5q0 114 154 156l132 35v70q0 48 -23.5 73t-64.5 25q-37 0 -61 -17.5t-24 -43.5q0 -6 4.5 -19.5t4.5 -21.5q0 -22 -13.5 -36.5t-36.5 -14.5 q-21 0 -34 13.5t-13 35.5q0 21 8 37q22 43 71 70.5t108 27.5q171 0 171 -148v-255q0 -20 8.5 -31t22.5 -11q32 0 40 41zM315 97v186l-73 -28q-117 -44 -117 -125q0 -36 21.5 -61t61.5 -25q50 0 86 33zM292 717l101 -154h-31l-111 97l-112 -97h-30l101 154h82z" />
<glyph unicode="&#xe3;" horiz-adv-x="508" d="M497 98q-4 -54 -29.5 -83t-65.5 -29q-33 0 -56 20.5t-30 60.5l-18 -19q-37 -37 -68.5 -49.5t-68.5 -12.5q-56 0 -94 35.5t-38 94.5q0 114 154 156l132 35v70q0 48 -23.5 73t-64.5 25q-37 0 -61 -17.5t-24 -43.5q0 -6 4.5 -19.5t4.5 -21.5q0 -22 -13.5 -36.5t-36.5 -14.5 q-21 0 -34 13.5t-13 35.5q0 21 8 37q22 43 71 70.5t108 27.5q171 0 171 -148v-255q0 -20 8.5 -31t22.5 -11q32 0 40 41zM315 97v186l-73 -28q-117 -44 -117 -125q0 -36 21.5 -61t61.5 -25q50 0 86 33zM97 569q1 50 27.5 81t70.5 31q30 0 73 -25.5t66 -25.5q48 0 59 51h19 q-1 -50 -27.5 -81t-70.5 -31q-30 0 -73 26t-66 26q-48 0 -59 -52h-19z" />
<glyph unicode="&#xe4;" horiz-adv-x="508" d="M497 98q-4 -54 -29.5 -83t-65.5 -29q-33 0 -56 20.5t-30 60.5l-18 -19q-37 -37 -68.5 -49.5t-68.5 -12.5q-56 0 -94 35.5t-38 94.5q0 114 154 156l132 35v70q0 48 -23.5 73t-64.5 25q-37 0 -61 -17.5t-24 -43.5q0 -6 4.5 -19.5t4.5 -21.5q0 -22 -13.5 -36.5t-36.5 -14.5 q-21 0 -34 13.5t-13 35.5q0 21 8 37q22 43 71 70.5t108 27.5q171 0 171 -148v-255q0 -20 8.5 -31t22.5 -11q32 0 40 41zM315 97v186l-73 -28q-117 -44 -117 -125q0 -36 21.5 -61t61.5 -25q50 0 86 33zM293 620q0 22 15.5 37.5t37.5 15.5t37.5 -15.5t15.5 -37.5 q0 -23 -15.5 -38.5t-37.5 -15.5t-37.5 16t-15.5 38zM111 620q0 22 15.5 37.5t37.5 15.5t37.5 -15.5t15.5 -37.5t-15.5 -38t-37.5 -16t-37.5 15.5t-15.5 38.5z" />
<glyph unicode="&#xe5;" horiz-adv-x="508" d="M497 98q-4 -54 -29.5 -83t-65.5 -29q-33 0 -56 20.5t-30 60.5l-18 -19q-37 -37 -68.5 -49.5t-68.5 -12.5q-56 0 -94 35.5t-38 94.5q0 114 154 156l132 35v70q0 48 -23.5 73t-64.5 25q-37 0 -61 -17.5t-24 -43.5q0 -6 4.5 -19.5t4.5 -21.5q0 -22 -13.5 -36.5t-36.5 -14.5 q-21 0 -34 13.5t-13 35.5q0 21 8 37q22 43 71 70.5t108 27.5q171 0 171 -148v-255q0 -20 8.5 -31t22.5 -11q32 0 40 41zM315 97v186l-73 -28q-117 -44 -117 -125q0 -36 21.5 -61t61.5 -25q50 0 86 33zM160 617q0 35 25 59t60 24t60 -24t25 -59t-24.5 -58.5t-60.5 -23.5 t-60.5 23.5t-24.5 58.5zM190 617q0 -23 16 -38.5t39 -15.5t38.5 15.5t15.5 38.5t-15.5 39t-38.5 16t-39 -16t-16 -39z" />
<glyph unicode="&#xe6;" horiz-adv-x="765" d="M315 97v186l-73 -28q-117 -44 -117 -125q0 -36 21.5 -61t61.5 -25q50 0 86 33zM647 321q0 66 -30 110t-83 44q-43 0 -76.5 -42.5t-37.5 -111.5h227zM346 85h-12l-36 -37q-37 -37 -68.5 -49.5t-68.5 -12.5q-56 0 -94 35.5t-38 94.5q0 114 154 156l132 35v70q0 48 -23.5 73 t-64.5 25q-37 0 -61 -17.5t-24 -43.5q0 -6 4.5 -19.5t4.5 -21.5q0 -22 -13.5 -36.5t-36.5 -14.5q-21 0 -34 13.5t-13 35.5q0 21 8 37q22 43 71 70.5t108 27.5q107 0 148 -60q63 60 147 60q87 0 147 -60t60 -156h-324v-17q0 -99 43.5 -161.5t116.5 -62.5q103 0 142 126l15 -4 q-12 -84 -66 -134.5t-132 -50.5q-126 0 -192 99z" />
<glyph unicode="&#xe7;" horiz-adv-x="474" d="M443 389q0 -26 -17 -42.5t-40 -16.5q-25 0 -39 16t-14 42q0 7 2.5 21.5t2.5 20.5q0 15 -9 26q-16 22 -60 22q-51 0 -93.5 -55.5t-42.5 -143.5q0 -97 45 -160.5t122 -63.5q51 0 83 27.5t54 81.5l17 -6q-14 -73 -64 -122.5t-126 -49.5h-5l-18 -33q21 8 42 8q30 0 52.5 -22 t22.5 -61q0 -43 -26.5 -67t-65.5 -24q-55 0 -80 50l10 9q23 -31 55 -31q24 0 38.5 15t14.5 44q0 24 -15 39t-37 15q-27 0 -48 -21l-7 4l33 77q-90 11 -146.5 79t-56.5 171q0 119 75 193.5t173 74.5q77 0 122.5 -35t45.5 -82z" />
<glyph unicode="&#xe8;" horiz-adv-x="488" d="M258 506q87 0 147.5 -60t60.5 -156h-325v-17q0 -99 43.5 -161.5t116.5 -62.5q103 0 142 126l16 -4q-12 -84 -66.5 -134.5t-132.5 -50.5q-104 0 -168.5 69.5t-64.5 182.5q0 116 68 192t163 76zM370 321q0 66 -30.5 110t-83.5 44q-43 0 -76.5 -42.5t-37.5 -111.5h228z M246 693l67 -144h-26l-99 106q-14 15 -14 33q0 14 10 23.5t24 9.5q25 0 38 -28z" />
<glyph unicode="&#xe9;" horiz-adv-x="488" d="M258 506q87 0 147.5 -60t60.5 -156h-325v-17q0 -99 43.5 -161.5t116.5 -62.5q103 0 142 126l16 -4q-12 -84 -66.5 -134.5t-132.5 -50.5q-104 0 -168.5 69.5t-64.5 182.5q0 116 68 192t163 76zM370 321q0 66 -30.5 110t-83.5 44q-43 0 -76.5 -42.5t-37.5 -111.5h228z M198 549l67 144q13 28 38 28q14 0 24 -9.5t10 -23.5q0 -18 -14 -33l-99 -106h-26z" />
<glyph unicode="&#xea;" horiz-adv-x="488" d="M258 506q87 0 147.5 -60t60.5 -156h-325v-17q0 -99 43.5 -161.5t116.5 -62.5q103 0 142 126l16 -4q-12 -84 -66.5 -134.5t-132.5 -50.5q-104 0 -168.5 69.5t-64.5 182.5q0 116 68 192t163 76zM370 321q0 66 -30.5 110t-83.5 44q-43 0 -76.5 -42.5t-37.5 -111.5h228z M304 717l102 -154h-31l-112 97l-111 -97h-31l101 154h82z" />
<glyph unicode="&#xeb;" horiz-adv-x="488" d="M258 506q87 0 147.5 -60t60.5 -156h-325v-17q0 -99 43.5 -161.5t116.5 -62.5q103 0 142 126l16 -4q-12 -84 -66.5 -134.5t-132.5 -50.5q-104 0 -168.5 69.5t-64.5 182.5q0 116 68 192t163 76zM370 321q0 66 -30.5 110t-83.5 44q-43 0 -76.5 -42.5t-37.5 -111.5h228z M304 620q0 22 15.5 37.5t37.5 15.5q23 0 38.5 -15.5t15.5 -37.5t-15.5 -38t-38.5 -16q-22 0 -37.5 16t-15.5 38zM122 620q0 22 15 37.5t38 15.5q22 0 37.5 -15.5t15.5 -37.5t-15.5 -38t-37.5 -16t-37.5 15.5t-15.5 38.5z" />
<glyph unicode="&#xec;" horiz-adv-x="274" d="M118 693l67 -144h-26l-99 106q-14 15 -14 33q0 14 10 23.5t24 9.5q25 0 38 -28zM185 98q0 -42 14 -58.5t48 -16.5h10v-23h-240v23h11q33 0 47 16.5t14 58.5v298q0 42 -16 57.5t-45 15.5h-11v23l168 14v-408z" />
<glyph unicode="&#xed;" horiz-adv-x="274" d="M61 549l68 144q13 28 38 28q14 0 24 -9.5t10 -23.5q0 -17 -15 -33l-98 -106h-27zM185 98q0 -42 14 -58.5t48 -16.5h10v-23h-240v23h11q33 0 47 16.5t14 58.5v298q0 42 -16 57.5t-45 15.5h-11v23l168 14v-408z" />
<glyph unicode="&#xee;" horiz-adv-x="274" d="M168 717l101 -154h-30l-112 97l-112 -97h-30l101 154h82zM185 98q0 -42 14 -58.5t48 -16.5h10v-23h-240v23h11q33 0 47 16.5t14 58.5v298q0 42 -16 57.5t-45 15.5h-11v23l168 14v-408z" />
<glyph unicode="&#xef;" horiz-adv-x="274" d="M164 620q0 22 15.5 37.5t37.5 15.5q23 0 38 -15.5t15 -37.5q0 -23 -15.5 -38.5t-37.5 -15.5t-37.5 16t-15.5 38zM-18 620q0 22 15 37.5t38 15.5q22 0 37.5 -15.5t15.5 -37.5t-15.5 -38t-37.5 -16t-37.5 15.5t-15.5 38.5zM185 98q0 -42 14 -58.5t48 -16.5h10v-23h-240v23 h11q33 0 47 16.5t14 58.5v298q0 42 -16 57.5t-45 15.5h-11v23l168 14v-408z" />
<glyph unicode="&#xf0;" horiz-adv-x="551" d="M189 555l-13 33l125 48q-71 65 -158 73v22q126 -6 217 -72l79 31l14 -33l-62 -23q134 -123 134 -348q0 -140 -73.5 -220t-173.5 -80q-119 0 -185 72t-66 184q0 115 64 189.5t165 74.5q94 0 155 -76q-15 100 -83 179zM134 267q0 -113 39 -182t109 -69q56 0 94.5 50.5 t38.5 157.5q0 121 -40 186t-105 65q-58 0 -97 -55t-39 -153z" />
<glyph unicode="&#xf1;" horiz-adv-x="594" d="M185 385q73 121 182 121q67 0 103 -38t36 -101v-269q0 -42 14 -58.5t47 -16.5h11v-23h-240v23h10q34 0 48 16.5t14 58.5v237q0 102 -97 102q-36 0 -71 -24.5t-57 -64.5v-250q0 -42 14 -58.5t48 -16.5h10v-23h-240v23h11q33 0 47 16.5t14 58.5v295q0 42 -14 59t-47 17h-11 v23l168 14v-121zM153 569q1 50 27 81t70 31q30 0 73 -25.5t66 -25.5q49 0 60 51h18q-1 -50 -27 -81t-70 -31q-30 0 -73.5 26t-66.5 26q-48 0 -59 -52h-18z" />
<glyph unicode="&#xf2;" horiz-adv-x="547" d="M27 232q0 123 69.5 198.5t174.5 75.5q109 0 179.5 -69t70.5 -179q0 -117 -72.5 -194.5t-173.5 -77.5q-114 0 -181 70.5t-67 175.5zM133 265q0 -110 39.5 -179.5t107.5 -69.5q61 0 98 55t37 153q0 125 -40 188t-107 63q-59 0 -97 -56t-38 -154zM259 693l68 -144h-27 l-98 106q-15 16 -15 33q0 14 10 23.5t24 9.5q25 0 38 -28z" />
<glyph unicode="&#xf3;" horiz-adv-x="547" d="M27 232q0 123 69.5 198.5t174.5 75.5q109 0 179.5 -69t70.5 -179q0 -117 -72.5 -194.5t-173.5 -77.5q-114 0 -181 70.5t-67 175.5zM133 265q0 -110 39.5 -179.5t107.5 -69.5q61 0 98 55t37 153q0 125 -40 188t-107 63q-59 0 -97 -56t-38 -154zM221 549l68 144 q13 28 38 28q14 0 23.5 -9.5t9.5 -23.5q0 -18 -14 -33l-98 -106h-27z" />
<glyph unicode="&#xf4;" horiz-adv-x="547" d="M27 232q0 123 69.5 198.5t174.5 75.5q109 0 179.5 -69t70.5 -179q0 -117 -72.5 -194.5t-173.5 -77.5q-114 0 -181 70.5t-67 175.5zM133 265q0 -110 39.5 -179.5t107.5 -69.5q61 0 98 55t37 153q0 125 -40 188t-107 63q-59 0 -97 -56t-38 -154zM314 717l102 -154h-31 l-112 97l-111 -97h-31l101 154h82z" />
<glyph unicode="&#xf5;" horiz-adv-x="547" d="M27 232q0 123 69.5 198.5t174.5 75.5q109 0 179.5 -69t70.5 -179q0 -117 -72.5 -194.5t-173.5 -77.5q-114 0 -181 70.5t-67 175.5zM133 265q0 -110 39.5 -179.5t107.5 -69.5q61 0 98 55t37 153q0 125 -40 188t-107 63q-59 0 -97 -56t-38 -154zM118 569q1 50 27 81t70 31 q30 0 73 -25.5t66 -25.5q49 0 60 51h18q-1 -50 -27 -81t-70 -31q-30 0 -73 26t-66 26q-49 0 -60 -52h-18z" />
<glyph unicode="&#xf6;" horiz-adv-x="547" d="M27 232q0 123 69.5 198.5t174.5 75.5q109 0 179.5 -69t70.5 -179q0 -117 -72.5 -194.5t-173.5 -77.5q-114 0 -181 70.5t-67 175.5zM133 265q0 -110 39.5 -179.5t107.5 -69.5q61 0 98 55t37 153q0 125 -40 188t-107 63q-59 0 -97 -56t-38 -154zM311 620q0 22 16 37.5 t38 15.5q23 0 38 -15.5t15 -37.5q0 -23 -15.5 -38.5t-37.5 -15.5t-38 16t-16 38zM129 620q0 22 15.5 37.5t37.5 15.5t38 -15.5t16 -37.5t-16 -38t-38 -16t-37.5 15.5t-15.5 38.5z" />
<glyph unicode="&#xf7;" horiz-adv-x="442" d="M157 58q0 27 18.5 46t45.5 19t46 -19t19 -46t-19 -45.5t-46 -18.5t-45.5 18.5t-18.5 45.5zM157 427q0 27 18.5 46t45.5 19t46 -19t19 -46t-19 -46t-46 -19t-45.5 19t-18.5 46zM15 224v35h412v-35h-412z" />
<glyph unicode="&#xf8;" horiz-adv-x="547" d="M96 5l21 31q-90 70 -90 196q0 122 69 198t173 76q74 0 133 -34l22 34l32 -20l-23 -34q88 -70 88 -194q0 -115 -72.5 -193.5t-173.5 -78.5q-70 0 -128 29l-19 -29zM133 265q0 -92 29 -160l207 316q-38 54 -101 54q-59 0 -97 -56t-38 -154zM415 224q0 97 -26 160l-207 -315 q40 -53 98 -53q61 0 98 55t37 153z" />
<glyph unicode="&#xf9;" horiz-adv-x="592" d="M504 506v-408q0 -42 14 -58.5t47 -16.5h10v-23l-167 -14v115q-70 -115 -171 -115q-68 0 -108 41.5t-40 122.5v243q0 42 -14 59t-47 17h-11v23l168 14v-349q0 -51 24 -77.5t67 -26.5q74 0 132 85v255q0 42 -14 59t-48 17h-10v23zM253 693l68 -144h-27l-98 106 q-15 16 -15 33q0 14 10 23.5t24 9.5q25 0 38 -28z" />
<glyph unicode="&#xfa;" horiz-adv-x="592" d="M504 506v-408q0 -42 14 -58.5t47 -16.5h10v-23l-167 -14v115q-70 -115 -171 -115q-68 0 -108 41.5t-40 122.5v243q0 42 -14 59t-47 17h-11v23l168 14v-349q0 -51 24 -77.5t67 -26.5q74 0 132 85v255q0 42 -14 59t-48 17h-10v23zM242 549l67 144q13 28 38 28q14 0 24 -9.5 t10 -23.5q0 -18 -14 -33l-99 -106h-26z" />
<glyph unicode="&#xfb;" horiz-adv-x="592" d="M504 506v-408q0 -42 14 -58.5t47 -16.5h10v-23l-167 -14v115q-70 -115 -171 -115q-68 0 -108 41.5t-40 122.5v243q0 42 -14 59t-47 17h-11v23l168 14v-349q0 -51 24 -77.5t67 -26.5q74 0 132 85v255q0 42 -14 59t-48 17h-10v23zM323 717l101 -154h-31l-111 97l-112 -97 h-31l102 154h82z" />
<glyph unicode="&#xfc;" horiz-adv-x="592" d="M504 506v-408q0 -42 14 -58.5t47 -16.5h10v-23l-167 -14v115q-70 -115 -171 -115q-68 0 -108 41.5t-40 122.5v243q0 42 -14 59t-47 17h-11v23l168 14v-349q0 -51 24 -77.5t67 -26.5q74 0 132 85v255q0 42 -14 59t-48 17h-10v23zM309 620q0 22 15.5 37.5t37.5 15.5 q23 0 38.5 -15.5t15.5 -37.5t-16 -38t-38 -16t-37.5 16t-15.5 38zM127 620q0 22 15.5 37.5t37.5 15.5t37.5 -15.5t15.5 -37.5t-15.5 -38t-37.5 -16t-37.5 15.5t-15.5 38.5z" />
<glyph unicode="&#xfd;" horiz-adv-x="591" d="M351 145l101 253q6 17 6 28q0 43 -57 43h-10v23h183v-23h-10q-30 0 -48.5 -20t-34.5 -60l-187 -472q-28 -70 -59 -101t-81 -31q-33 0 -51.5 17.5t-18.5 41.5q0 22 14 38t39 16q22 0 42 -15t32 -15q20 0 33.5 19t27.5 55l26 63l-188 379q-23 44 -42 64.5t-43 20.5h-11v23 h281v-23h-13q-28 0 -43.5 -13.5t-15.5 -36.5q0 -18 11 -40zM297 549l68 144q13 28 37 28q14 0 24 -9.5t10 -23.5q0 -18 -14 -33l-98 -106h-27z" />
<glyph unicode="&#xfe;" horiz-adv-x="569" d="M182 731v-319q63 94 166 94q87 0 141 -67.5t54 -183.5q0 -120 -70.5 -194.5t-168.5 -74.5q-77 0 -122 42v-155q0 -42 14 -59t48 -17h10v-22h-240v22h11q33 0 47 17t14 59v749q0 42 -16 57t-45 15h-11v23zM298 442q-79 0 -116 -67v-255q0 -48 30 -75t76 -27q70 0 111 62 t41 164q0 96 -38.5 147t-103.5 51z" />
<glyph unicode="&#xff;" horiz-adv-x="591" d="M351 145l101 253q6 17 6 28q0 43 -57 43h-10v23h183v-23h-10q-30 0 -48.5 -20t-34.5 -60l-187 -472q-28 -70 -59 -101t-81 -31q-33 0 -51.5 17.5t-18.5 41.5q0 22 14 38t39 16q22 0 42 -15t32 -15q20 0 33.5 19t27.5 55l26 63l-188 379q-23 44 -42 64.5t-43 20.5h-11v23 h281v-23h-13q-28 0 -43.5 -13.5t-15.5 -36.5q0 -18 11 -40zM386 620q0 22 15.5 37.5t37.5 15.5q23 0 38.5 -15.5t15.5 -37.5t-15.5 -38t-38.5 -16q-22 0 -37.5 16t-15.5 38zM204 620q0 22 15 37.5t38 15.5q22 0 37.5 -15.5t15.5 -37.5t-15.5 -38t-37.5 -16t-37.5 15.5 t-15.5 38.5z" />
<glyph unicode="&#x100;" horiz-adv-x="798" d="M398 731l247 -581q54 -127 135 -127h11v-23h-323v23h10q27 0 46 15.5t19 37.5q0 19 -19 60l-37 82h-266l-35 -87q-9 -23 -9 -43q0 -29 18 -47t48 -18h10v-23h-245v23h10q39 0 77 36t63 97l230 575h10zM351 545l-115 -292h237zM270 838v34h256v-34h-256z" />
<glyph unicode="&#x101;" horiz-adv-x="508" d="M497 98q-4 -54 -29.5 -83t-65.5 -29q-33 0 -56 20.5t-30 60.5l-18 -19q-37 -37 -68.5 -49.5t-68.5 -12.5q-56 0 -94 35.5t-38 94.5q0 114 154 156l132 35v70q0 48 -23.5 73t-64.5 25q-37 0 -61 -17.5t-24 -43.5q0 -6 4.5 -19.5t4.5 -21.5q0 -22 -13.5 -36.5t-36.5 -14.5 q-21 0 -34 13.5t-13 35.5q0 21 8 37q22 43 71 70.5t108 27.5q171 0 171 -148v-255q0 -20 8.5 -31t22.5 -11q32 0 40 41zM315 97v186l-73 -28q-117 -44 -117 -125q0 -36 21.5 -61t61.5 -25q50 0 86 33zM121 612v35h256v-35h-256z" />
<glyph unicode="&#x102;" horiz-adv-x="798" d="M398 731l247 -581q54 -127 135 -127h11v-23h-323v23h10q27 0 46 15.5t19 37.5q0 19 -19 60l-37 82h-266l-35 -87q-9 -23 -9 -43q0 -29 18 -47t48 -18h10v-23h-245v23h10q39 0 77 36t63 97l230 575h10zM351 545l-115 -292h237zM490 893q0 -45 -24 -76.5t-68 -31.5 t-68 31.5t-24 76.5h20q17 -62 72 -62q56 0 73 62h19z" />
<glyph unicode="&#x103;" horiz-adv-x="508" d="M497 98q-4 -54 -29.5 -83t-65.5 -29q-33 0 -56 20.5t-30 60.5l-18 -19q-37 -37 -68.5 -49.5t-68.5 -12.5q-56 0 -94 35.5t-38 94.5q0 114 154 156l132 35v70q0 48 -23.5 73t-64.5 25q-37 0 -61 -17.5t-24 -43.5q0 -6 4.5 -19.5t4.5 -21.5q0 -22 -13.5 -36.5t-36.5 -14.5 q-21 0 -34 13.5t-13 35.5q0 21 8 37q22 43 71 70.5t108 27.5q171 0 171 -148v-255q0 -20 8.5 -31t22.5 -11q32 0 40 41zM315 97v186l-73 -28q-117 -44 -117 -125q0 -36 21.5 -61t61.5 -25q50 0 86 33zM339 668q0 -45 -24 -76.5t-68 -31.5t-68 31.5t-24 76.5h19 q17 -62 73 -62q55 0 72 62h20z" />
<glyph unicode="&#x104;" horiz-adv-x="798" d="M398 731l247 -581q54 -127 135 -127h11v-23h-79q-72 -43 -72 -101q0 -29 16 -47t44 -18q43 0 66 45l9 -4q-28 -78 -93 -78q-40 0 -66 26.5t-26 64.5q0 71 86 112h-208v23h10q27 0 46 15.5t19 37.5q0 19 -19 60l-37 82h-266l-35 -87q-9 -23 -9 -43q0 -29 18 -47t48 -18h10 v-23h-245v23h10q39 0 77 36t63 97l230 575h10zM351 545l-115 -292h237z" />
<glyph unicode="&#x105;" horiz-adv-x="522" d="M497 98q-5 -74 -45 -98q-72 -46 -72 -101q0 -29 16 -47t44 -18q43 0 66 45l9 -4q-28 -78 -93 -78q-40 0 -66 26.5t-26 64.5q0 60 60 99q-61 7 -74 80l-18 -19q-37 -37 -68.5 -49.5t-68.5 -12.5q-56 0 -94 35.5t-38 94.5q0 114 154 156l132 35v70q0 48 -23.5 73t-64.5 25 q-37 0 -61 -17.5t-24 -43.5q0 -6 4.5 -19.5t4.5 -21.5q0 -22 -13.5 -36.5t-36.5 -14.5q-21 0 -34 13.5t-13 35.5q0 21 8 37q22 43 71 70.5t108 27.5q171 0 171 -148v-255q0 -20 8.5 -31t22.5 -11q32 0 40 41zM315 97v186l-73 -28q-117 -44 -117 -125q0 -36 21.5 -61 t61.5 -25q50 0 86 33z" />
<glyph unicode="&#x106;" horiz-adv-x="654" d="M379 731q73 0 158 -46q18 -9 29 -9q27 0 27 34v7h23v-234h-23q-18 99 -74.5 156t-137.5 57q-113 0 -167 -90.5t-54 -247.5t57.5 -240t167.5 -83q167 0 238 217l19 -7q-29 -125 -103 -192t-179 -67q-62 0 -119.5 24t-105 69.5t-76 118t-28.5 160.5t31 161t82 118 t111.5 69.5t123.5 24.5zM318 774l68 145q13 27 38 27q14 0 24 -9.5t10 -23.5q0 -16 -15 -32l-98 -107h-27z" />
<glyph unicode="&#x107;" horiz-adv-x="474" d="M443 389q0 -26 -17 -42.5t-40 -16.5q-25 0 -39 16t-14 42q0 7 2.5 21.5t2.5 20.5q0 15 -9 26q-16 22 -60 22q-51 0 -93.5 -55.5t-42.5 -143.5q0 -97 45 -160.5t122 -63.5q51 0 83 27.5t54 81.5l17 -6q-14 -73 -64 -122.5t-126 -49.5q-102 0 -169.5 69.5t-67.5 182.5 q0 119 75 193.5t173 74.5q77 0 122.5 -35t45.5 -82zM209 549l67 144q13 28 38 28q14 0 24 -9.5t10 -23.5q0 -18 -14 -33l-98 -106h-27z" />
<glyph unicode="&#x108;" horiz-adv-x="654" d="M379 731q73 0 158 -46q18 -9 29 -9q27 0 27 34v7h23v-234h-23q-18 99 -74.5 156t-137.5 57q-113 0 -167 -90.5t-54 -247.5t57.5 -240t167.5 -83q167 0 238 217l19 -7q-29 -125 -103 -192t-179 -67q-62 0 -119.5 24t-105 69.5t-76 118t-28.5 160.5t31 161t82 118 t111.5 69.5t123.5 24.5zM422 942l101 -154h-30l-112 98l-112 -98h-30l101 154h82z" />
<glyph unicode="&#x109;" horiz-adv-x="474" d="M443 389q0 -26 -17 -42.5t-40 -16.5q-25 0 -39 16t-14 42q0 7 2.5 21.5t2.5 20.5q0 15 -9 26q-16 22 -60 22q-51 0 -93.5 -55.5t-42.5 -143.5q0 -97 45 -160.5t122 -63.5q51 0 83 27.5t54 81.5l17 -6q-14 -73 -64 -122.5t-126 -49.5q-102 0 -169.5 69.5t-67.5 182.5 q0 119 75 193.5t173 74.5q77 0 122.5 -35t45.5 -82zM312 717l102 -154h-31l-112 97l-111 -97h-31l101 154h82z" />
<glyph unicode="&#x10a;" horiz-adv-x="654" d="M379 731q73 0 158 -46q18 -9 29 -9q27 0 27 34v7h23v-234h-23q-18 99 -74.5 156t-137.5 57q-113 0 -167 -90.5t-54 -247.5t57.5 -240t167.5 -83q167 0 238 217l19 -7q-29 -125 -103 -192t-179 -67q-62 0 -119.5 24t-105 69.5t-76 118t-28.5 160.5t31 161t82 118 t111.5 69.5t123.5 24.5zM314 863q0 28 19.5 47.5t47.5 19.5t47 -19.5t19 -47.5t-19 -47t-47 -19t-47.5 19t-19.5 47z" />
<glyph unicode="&#x10b;" horiz-adv-x="474" d="M443 389q0 -26 -17 -42.5t-40 -16.5q-25 0 -39 16t-14 42q0 7 2.5 21.5t2.5 20.5q0 15 -9 26q-16 22 -60 22q-51 0 -93.5 -55.5t-42.5 -143.5q0 -97 45 -160.5t122 -63.5q51 0 83 27.5t54 81.5l17 -6q-14 -73 -64 -122.5t-126 -49.5q-102 0 -169.5 69.5t-67.5 182.5 q0 119 75 193.5t173 74.5q77 0 122.5 -35t45.5 -82zM202 638q0 28 19 47.5t47 19.5t47.5 -19.5t19.5 -47.5t-19.5 -47.5t-47.5 -19.5t-47 19.5t-19 47.5z" />
<glyph unicode="&#x10c;" horiz-adv-x="654" d="M379 731q73 0 158 -46q18 -9 29 -9q27 0 27 34v7h23v-234h-23q-18 99 -74.5 156t-137.5 57q-113 0 -167 -90.5t-54 -247.5t57.5 -240t167.5 -83q167 0 238 217l19 -7q-29 -125 -103 -192t-179 -67q-62 0 -119.5 24t-105 69.5t-76 118t-28.5 160.5t31 161t82 118 t111.5 69.5t123.5 24.5zM521 942l-101 -154h-82l-101 154h30l112 -97l111 97h31z" />
<glyph unicode="&#x10d;" horiz-adv-x="474" d="M443 389q0 -26 -17 -42.5t-40 -16.5q-25 0 -39 16t-14 42q0 7 2.5 21.5t2.5 20.5q0 15 -9 26q-16 22 -60 22q-51 0 -93.5 -55.5t-42.5 -143.5q0 -97 45 -160.5t122 -63.5q51 0 83 27.5t54 81.5l17 -6q-14 -73 -64 -122.5t-126 -49.5q-102 0 -169.5 69.5t-67.5 182.5 q0 119 75 193.5t173 74.5q77 0 122.5 -35t45.5 -82zM412 717l-102 -154h-82l-101 154h31l111 -97l112 97h31z" />
<glyph unicode="&#x10e;" horiz-adv-x="716" d="M16 23h11q79 0 79 90v491q0 90 -79 90h-11v23h297q75 0 140.5 -21t118 -63.5t83.5 -113t31 -161.5t-31 -161.5t-83.5 -112.5t-118 -63t-140.5 -21h-297v23zM279 682q-33 0 -47.5 -14.5t-14.5 -57.5v-504q0 -43 14.5 -57t47.5 -14h36q119 0 180.5 87.5t61.5 235.5 t-61.5 236t-180.5 88h-36zM460 942l-102 -154h-82l-101 154h31l111 -97l112 97h31z" />
<glyph unicode="&#x10f;" horiz-adv-x="684" d="M475 731v-633q0 -42 14 -58.5t48 -16.5h10v-23h-168v58q-47 -72 -136 -72q-90 0 -148.5 67t-58.5 174q0 122 64 200.5t166 78.5q66 0 113 -36v152q0 41 -16.5 56.5t-45.5 15.5h-10v23zM276 473q-55 0 -96.5 -58t-41.5 -155q0 -100 39 -158t103 -58q32 0 59 13t40 34v265 q0 48 -28 82.5t-75 34.5zM624 731q37 0 56.5 -25.5t19.5 -64.5q0 -64 -40.5 -117t-104.5 -72l-7 15q106 45 110 142q-14 -7 -36 -7q-27 0 -45.5 18t-18.5 45q0 28 18 47t48 19z" />
<glyph unicode="&#x110;" horiz-adv-x="707" d="M7 343v31h90v230q0 90 -80 90h-10v23h297q75 0 140.5 -21t118 -63.5t83.5 -113t31 -161.5t-31 -161.5t-83.5 -112.5t-118 -63t-140.5 -21h-297v23h10q80 0 80 90v230h-90zM304 682h-35q-33 0 -47 -14.5t-14 -57.5v-236h104v-31h-104v-237q0 -43 14 -57t47 -14h37 q119 0 180.5 87.5t61.5 235.5q0 149 -62 236.5t-182 87.5z" />
<glyph unicode="&#x111;" horiz-adv-x="572" d="M466 731v-127h89v-35h-89v-471q0 -42 14 -58.5t47 -16.5h11v-23h-168v58q-47 -72 -137 -72t-148 67t-58 174q0 122 64 200.5t166 78.5q69 0 113 -36v99h-137v35h137v18q0 41 -16.5 56.5t-45.5 15.5h-10v23zM267 473q-55 0 -96.5 -58t-41.5 -155q0 -100 38.5 -158 t102.5 -58q32 0 59.5 13t40.5 34v265q0 47 -29 82t-74 35z" />
<glyph unicode="&#x112;" horiz-adv-x="582" d="M337 378q52 0 80 33.5t28 89.5h23v-281h-23q0 56 -28 89.5t-80 33.5h-120v-237q0 -43 14.5 -57t47.5 -14h73q87 0 132 35t63 121h22l-14 -191h-539v23h11q79 0 79 90v491q0 90 -79 90h-11v23h530v-181h-23q-5 78 -39 112t-114 34h-91q-33 0 -47.5 -14.5t-14.5 -57.5v-232 h120zM182 838v34h256v-34h-256z" />
<glyph unicode="&#x113;" horiz-adv-x="488" d="M258 506q87 0 147.5 -60t60.5 -156h-325v-17q0 -99 43.5 -161.5t116.5 -62.5q103 0 142 126l16 -4q-12 -84 -66.5 -134.5t-132.5 -50.5q-104 0 -168.5 69.5t-64.5 182.5q0 116 68 192t163 76zM370 321q0 66 -30.5 110t-83.5 44q-43 0 -76.5 -42.5t-37.5 -111.5h228z M135 612v35h256v-35h-256z" />
<glyph unicode="&#x114;" horiz-adv-x="582" d="M337 378q52 0 80 33.5t28 89.5h23v-281h-23q0 56 -28 89.5t-80 33.5h-120v-237q0 -43 14.5 -57t47.5 -14h73q87 0 132 35t63 121h22l-14 -191h-539v23h11q79 0 79 90v491q0 90 -79 90h-11v23h530v-181h-23q-5 78 -39 112t-114 34h-91q-33 0 -47.5 -14.5t-14.5 -57.5v-232 h120zM402 893q0 -45 -24 -76.5t-68 -31.5t-68 31.5t-24 76.5h20q17 -62 72 -62q56 0 73 62h19z" />
<glyph unicode="&#x115;" horiz-adv-x="488" d="M258 506q87 0 147.5 -60t60.5 -156h-325v-17q0 -99 43.5 -161.5t116.5 -62.5q103 0 142 126l16 -4q-12 -84 -66.5 -134.5t-132.5 -50.5q-104 0 -168.5 69.5t-64.5 182.5q0 116 68 192t163 76zM370 321q0 66 -30.5 110t-83.5 44q-43 0 -76.5 -42.5t-37.5 -111.5h228z M358 668q0 -45 -24 -76.5t-68 -31.5t-68 31.5t-24 76.5h20q17 -62 72 -62q56 0 73 62h19z" />
<glyph unicode="&#x116;" horiz-adv-x="582" d="M337 378q52 0 80 33.5t28 89.5h23v-281h-23q0 56 -28 89.5t-80 33.5h-120v-237q0 -43 14.5 -57t47.5 -14h73q87 0 132 35t63 121h22l-14 -191h-539v23h11q79 0 79 90v491q0 90 -79 90h-11v23h530v-181h-23q-5 78 -39 112t-114 34h-91q-33 0 -47.5 -14.5t-14.5 -57.5v-232 h120zM248 863q0 28 19 47.5t47 19.5t47.5 -19.5t19.5 -47.5t-19.5 -47t-47.5 -19t-47 19t-19 47z" />
<glyph unicode="&#x117;" horiz-adv-x="488" d="M258 506q87 0 147.5 -60t60.5 -156h-325v-17q0 -99 43.5 -161.5t116.5 -62.5q103 0 142 126l16 -4q-12 -84 -66.5 -134.5t-132.5 -50.5q-104 0 -168.5 69.5t-64.5 182.5q0 116 68 192t163 76zM370 321q0 66 -30.5 110t-83.5 44q-43 0 -76.5 -42.5t-37.5 -111.5h228z M194 638q0 28 19 47.5t47 19.5t47.5 -19.5t19.5 -47.5t-19.5 -47.5t-47.5 -19.5t-47 19.5t-19 47.5z" />
<glyph unicode="&#x118;" horiz-adv-x="583" d="M337 378q52 0 80 33.5t28 89.5h23v-281h-23q0 56 -28 89.5t-80 33.5h-120v-237q0 -43 14.5 -57t47.5 -14h73q87 0 132 35t63 121h22l-14 -191h-56q-72 -43 -72 -101q0 -29 16 -47t44 -18q43 0 66 45l9 -4q-28 -78 -93 -78q-40 0 -66 26.5t-26 64.5q0 71 86 112h-447v23 h11q79 0 79 90v491q0 90 -79 90h-11v23h530v-181h-23q-5 78 -39 112t-114 34h-91q-33 0 -47.5 -14.5t-14.5 -57.5v-232h120z" />
<glyph unicode="&#x119;" horiz-adv-x="489" d="M258 506q87 0 147.5 -60t60.5 -156h-325v-17q0 -99 43.5 -161.5t116.5 -62.5q103 0 142 126l16 -4q-18 -122 -124 -171q-32 -14 -52 -44t-20 -57q0 -28 16.5 -46.5t44.5 -18.5q42 0 65 45l9 -4q-28 -78 -93 -78q-40 0 -66 26.5t-26 64.5q0 60 60 99q-4 -1 -13 -1 q-104 0 -168.5 69.5t-64.5 182.5q0 116 68 192t163 76zM370 321q0 66 -30.5 110t-83.5 44q-43 0 -76.5 -42.5t-37.5 -111.5h228z" />
<glyph unicode="&#x11a;" horiz-adv-x="582" d="M337 378q52 0 80 33.5t28 89.5h23v-281h-23q0 56 -28 89.5t-80 33.5h-120v-237q0 -43 14.5 -57t47.5 -14h73q87 0 132 35t63 121h22l-14 -191h-539v23h11q79 0 79 90v491q0 90 -79 90h-11v23h530v-181h-23q-5 78 -39 112t-114 34h-91q-33 0 -47.5 -14.5t-14.5 -57.5v-232 h120zM445 942l-101 -154h-82l-101 154h30l112 -97l112 97h30z" />
<glyph unicode="&#x11b;" horiz-adv-x="488" d="M258 506q87 0 147.5 -60t60.5 -156h-325v-17q0 -99 43.5 -161.5t116.5 -62.5q103 0 142 126l16 -4q-12 -84 -66.5 -134.5t-132.5 -50.5q-104 0 -168.5 69.5t-64.5 182.5q0 116 68 192t163 76zM370 321q0 66 -30.5 110t-83.5 44q-43 0 -76.5 -42.5t-37.5 -111.5h228z M411 717l-102 -154h-82l-101 154h31l111 -97l112 97h31z" />
<glyph unicode="&#x11c;" horiz-adv-x="711" d="M429 942l101 -154h-30l-112 98l-112 -98h-30l101 154h82zM387 731q89 0 170 -44q20 -10 34 -10q26 0 26 33v7h24v-231h-24q-24 93 -83 151.5t-142 58.5q-120 0 -176 -85.5t-56 -252.5q0 -338 211 -338q50 0 96 19.5t74 50.5v106q0 66 -20.5 90.5t-73.5 24.5h-10v23h265 v-23h-10q-37 0 -46 -22t-9 -93v-196h-21q-4 21 -15 33t-26 12q-13 0 -28 -9q-77 -50 -181 -50q-66 0 -125 23t-106.5 67.5t-75.5 117.5t-28 164q0 73 22 135.5t58 105t83 73t96 45t97 14.5z" />
<glyph unicode="&#x11d;" horiz-adv-x="517" d="M250 506q51 0 109 -29h133v-37h-89q42 -48 42 -111q0 -82 -61.5 -133t-145.5 -51q-53 0 -103 29q-21 -16 -21 -38q0 -26 38 -38t127 -13q95 -1 149.5 -38.5t54.5 -105.5q0 -81 -75 -131t-166 -50q-93 0 -157.5 40.5t-64.5 108.5q0 61 77 110q-52 31 -52 78q0 51 66 94 q-62 52 -62 125q0 88 59 139t142 51zM123 9q-29 -41 -29 -91q0 -47 42.5 -86t115.5 -39q72 0 117.5 34.5t45.5 76.5t-36.5 62.5t-123.5 20.5q-73 0 -132 22zM244 471q-45 0 -75 -35t-30 -95q0 -37 9.5 -71.5t35.5 -62t64 -27.5q52 0 79.5 35t27.5 97q0 64 -29.5 111.5 t-81.5 47.5zM289 717l101 -154h-31l-111 97l-112 -97h-31l102 154h82z" />
<glyph unicode="&#x11e;" horiz-adv-x="711" d="M387 731q89 0 170 -44q20 -10 34 -10q26 0 26 33v7h24v-231h-24q-24 93 -83 151.5t-142 58.5q-120 0 -176 -85.5t-56 -252.5q0 -338 211 -338q50 0 96 19.5t74 50.5v106q0 66 -20.5 90.5t-73.5 24.5h-10v23h265v-23h-10q-37 0 -46 -22t-9 -93v-196h-21q-4 21 -15 33 t-26 12q-13 0 -28 -9q-77 -50 -181 -50q-66 0 -125 23t-106.5 67.5t-75.5 117.5t-28 164q0 73 22 135.5t58 105t83 73t96 45t97 14.5zM474 893q0 -45 -24 -76.5t-68 -31.5t-68 31.5t-24 76.5h19q17 -62 73 -62t73 62h19z" />
<glyph unicode="&#x11f;" horiz-adv-x="517" d="M250 506q51 0 109 -29h133v-37h-89q42 -48 42 -111q0 -82 -61.5 -133t-145.5 -51q-53 0 -103 29q-21 -16 -21 -38q0 -26 38 -38t127 -13q95 -1 149.5 -38.5t54.5 -105.5q0 -81 -75 -131t-166 -50q-93 0 -157.5 40.5t-64.5 108.5q0 61 77 110q-52 31 -52 78q0 51 66 94 q-62 52 -62 125q0 88 59 139t142 51zM123 9q-29 -41 -29 -91q0 -47 42.5 -86t115.5 -39q72 0 117.5 34.5t45.5 76.5t-36.5 62.5t-123.5 20.5q-73 0 -132 22zM244 471q-45 0 -75 -35t-30 -95q0 -37 9.5 -71.5t35.5 -62t64 -27.5q52 0 79.5 35t27.5 97q0 64 -29.5 111.5 t-81.5 47.5zM345 668q0 -45 -24 -76.5t-68 -31.5t-68 31.5t-24 76.5h19q17 -62 73 -62t73 62h19z" />
<glyph unicode="&#x120;" horiz-adv-x="711" d="M315 863q0 28 19.5 47.5t47.5 19.5t47.5 -19.5t19.5 -47.5t-19.5 -47t-47.5 -19t-47.5 19t-19.5 47zM387 731q89 0 170 -44q20 -10 34 -10q26 0 26 33v7h24v-231h-24q-24 93 -83 151.5t-142 58.5q-120 0 -176 -85.5t-56 -252.5q0 -338 211 -338q50 0 96 19.5t74 50.5v106 q0 66 -20.5 90.5t-73.5 24.5h-10v23h265v-23h-10q-37 0 -46 -22t-9 -93v-196h-21q-4 21 -15 33t-26 12q-13 0 -28 -9q-77 -50 -181 -50q-66 0 -125 23t-106.5 67.5t-75.5 117.5t-28 164q0 73 22 135.5t58 105t83 73t96 45t97 14.5z" />
<glyph unicode="&#x121;" horiz-adv-x="517" d="M250 506q51 0 109 -29h133v-37h-89q42 -48 42 -111q0 -82 -61.5 -133t-145.5 -51q-53 0 -103 29q-21 -16 -21 -38q0 -26 38 -38t127 -13q95 -1 149.5 -38.5t54.5 -105.5q0 -81 -75 -131t-166 -50q-93 0 -157.5 40.5t-64.5 108.5q0 61 77 110q-52 31 -52 78q0 51 66 94 q-62 52 -62 125q0 88 59 139t142 51zM123 9q-29 -41 -29 -91q0 -47 42.5 -86t115.5 -39q72 0 117.5 34.5t45.5 76.5t-36.5 62.5t-123.5 20.5q-73 0 -132 22zM244 471q-45 0 -75 -35t-30 -95q0 -37 9.5 -71.5t35.5 -62t64 -27.5q52 0 79.5 35t27.5 97q0 64 -29.5 111.5 t-81.5 47.5zM184 638q0 28 19.5 47.5t47.5 19.5t47 -19.5t19 -47.5t-19 -47.5t-47 -19.5t-47.5 19.5t-19.5 47.5z" />
<glyph unicode="&#x122;" horiz-adv-x="711" d="M392 -53q37 0 57 -25.5t20 -64.5q0 -118 -130 -195l-13 15q94 67 101 148q-14 -7 -35 -7q-27 0 -46 17.5t-19 44.5q0 26 18 46.5t47 20.5zM387 731q89 0 170 -44q20 -10 34 -10q26 0 26 33v7h24v-231h-24q-24 93 -83 151.5t-142 58.5q-120 0 -176 -85.5t-56 -252.5 q0 -338 211 -338q50 0 96 19.5t74 50.5v106q0 66 -20.5 90.5t-73.5 24.5h-10v23h265v-23h-10q-37 0 -46 -22t-9 -93v-196h-21q-4 21 -15 33t-26 12q-13 0 -28 -9q-77 -50 -181 -50q-66 0 -125 23t-106.5 67.5t-75.5 117.5t-28 164q0 73 22 135.5t58 105t83 73t96 45t97 14.5 z" />
<glyph unicode="&#x123;" horiz-adv-x="517" d="M250 506q51 0 109 -29h133v-37h-89q42 -48 42 -111q0 -82 -61.5 -133t-145.5 -51q-53 0 -103 29q-21 -16 -21 -38q0 -26 38 -38t127 -13q95 -1 149.5 -38.5t54.5 -105.5q0 -81 -75 -131t-166 -50q-93 0 -157.5 40.5t-64.5 108.5q0 61 77 110q-52 31 -52 78q0 51 66 94 q-62 52 -62 125q0 88 59 139t142 51zM123 9q-29 -41 -29 -91q0 -47 42.5 -86t115.5 -39q72 0 117.5 34.5t45.5 76.5t-36.5 62.5t-123.5 20.5q-73 0 -132 22zM244 471q-45 0 -75 -35t-30 -95q0 -37 9.5 -71.5t35.5 -62t64 -27.5q52 0 79.5 35t27.5 97q0 64 -29.5 111.5 t-81.5 47.5zM252 551q-37 0 -57 25.5t-20 64.5q0 64 41 117t105 72l7 -15q-107 -46 -111 -142q14 7 37 7q26 0 44.5 -18t18.5 -45q0 -28 -17.5 -47t-47.5 -19z" />
<glyph unicode="&#x124;" horiz-adv-x="744" d="M217 113q0 -90 80 -90h10v-23h-291v23h11q79 0 79 90v491q0 90 -79 90h-11v23h291v-23h-10q-80 0 -80 -90v-205h310v205q0 90 -80 90h-10v23h291v-23h-10q-80 0 -80 -90v-491q0 -90 80 -90h10v-23h-291v23h10q80 0 80 90v252h-310v-252zM413 942l101 -154h-31l-111 98 l-112 -98h-31l102 154h82z" />
<glyph unicode="&#x125;" horiz-adv-x="602" d="M585 23v-23h-240v23h10q34 0 48 16.5t14 58.5v237q0 50 -26.5 76t-69.5 26q-33 0 -70.5 -21.5t-65.5 -59.5v-258q0 -42 14 -58.5t48 -16.5h10v-23h-240v23h11q33 0 47 16.5t14 58.5v520q0 42 -14 59t-47 17h-11v23l168 14v-338q82 113 191 113q66 0 101.5 -36t35.5 -103 v-269q0 -42 14 -58.5t47 -16.5h11zM185 942l102 -154h-31l-112 98l-111 -98h-31l101 154h82z" />
<glyph unicode="&#x126;" horiz-adv-x="744" d="M217 113q0 -90 80 -90h10v-23h-291v23h11q79 0 79 90v405h-90v35h90v51q0 90 -79 90h-11v23h291v-23h-10q-80 0 -80 -90v-51h310v51q0 90 -80 90h-10v23h291v-23h-10q-80 0 -80 -90v-51h90v-35h-90v-405q0 -90 80 -90h10v-23h-291v23h10q80 0 80 90v252h-310v-252z M217 399h310v119h-310v-119z" />
<glyph unicode="&#x127;" horiz-adv-x="589" d="M572 23v-23h-239v23h10q33 0 47 16.5t14 58.5v237q0 102 -90 102q-68 0 -129 -81v-258q0 -42 14 -58.5t48 -16.5h10v-23h-240v23h11q33 0 47 16.5t14 58.5v471h-72v35h72v14q0 42 -14 59t-47 17h-11v23l168 14v-127h143v-35h-143v-176q42 57 82 85t91 28q71 0 107 -36.5 t36 -102.5v-269q0 -42 14 -58.5t47 -16.5h10z" />
<glyph unicode="&#x128;" horiz-adv-x="323" d="M217 113q0 -90 80 -90h10v-23h-291v23h11q79 0 79 90v491q0 90 -79 90h-11v23h291v-23h-10q-80 0 -80 -90v-491zM5 795q1 50 27 80.5t70 30.5q30 0 73.5 -25.5t66.5 -25.5q48 0 59 51h18q-1 -50 -27 -80.5t-70 -30.5q-30 0 -73 25.5t-66 25.5q-48 0 -59 -51h-19z" />
<glyph unicode="&#x129;" horiz-adv-x="274" d="M185 98q0 -42 14 -58.5t48 -16.5h10v-23h-240v23h11q33 0 47 16.5t14 58.5v298q0 42 -16 57.5t-45 15.5h-11v23l168 14v-408zM-19 569q1 50 27 81t70 31q30 0 73 -25.5t66 -25.5q48 0 59 51h19q-1 -50 -27 -81t-70 -31q-30 0 -73.5 26t-66.5 26q-48 0 -59 -52h-18z" />
<glyph unicode="&#x12a;" horiz-adv-x="323" d="M217 113q0 -90 80 -90h10v-23h-291v23h11q79 0 79 90v491q0 90 -79 90h-11v23h291v-23h-10q-80 0 -80 -90v-491zM34 838v34h256v-34h-256z" />
<glyph unicode="&#x12b;" horiz-adv-x="274" d="M185 98q0 -42 14 -58.5t48 -16.5h10v-23h-240v23h11q33 0 47 16.5t14 58.5v298q0 42 -16 57.5t-45 15.5h-11v23l168 14v-408zM-2 612v35h256v-35h-256z" />
<glyph unicode="&#x12c;" horiz-adv-x="323" d="M217 113q0 -90 80 -90h10v-23h-291v23h11q79 0 79 90v491q0 90 -79 90h-11v23h291v-23h-10q-80 0 -80 -90v-491zM254 893q0 -45 -24 -76.5t-68 -31.5t-68 31.5t-24 76.5h19q17 -62 73 -62q55 0 72 62h20z" />
<glyph unicode="&#x12d;" horiz-adv-x="274" d="M185 98q0 -42 14 -58.5t48 -16.5h10v-23h-240v23h11q33 0 47 16.5t14 58.5v298q0 42 -16 57.5t-45 15.5h-11v23l168 14v-408zM225 668q0 -45 -24 -76.5t-68 -31.5t-68 31.5t-24 76.5h19q17 -62 73 -62t73 62h19z" />
<glyph unicode="&#x12e;" horiz-adv-x="323" d="M217 113q0 -90 80 -90h10v-23h-107q-72 -43 -72 -101q0 -29 16 -47t44 -18q43 0 66 45l9 -4q-28 -78 -93 -78q-40 0 -66 26.5t-26 64.5q0 71 86 112h-148v23h11q79 0 79 90v491q0 90 -79 90h-11v23h291v-23h-10q-80 0 -80 -90v-491z" />
<glyph unicode="&#x12f;" horiz-adv-x="274" d="M185 98q0 -42 14 -58.5t48 -16.5h10v-23h-94q-72 -43 -72 -101q0 -28 16.5 -46.5t44.5 -18.5q42 0 65 45l9 -4q-28 -78 -93 -78q-40 0 -66 26.5t-26 64.5q0 71 86 112h-110v23h11q33 0 47 16.5t14 58.5v298q0 42 -16 57.5t-45 15.5h-11v23l168 14v-408zM71 638 q0 28 19 47.5t47 19.5t47.5 -19.5t19.5 -47.5t-19.5 -47.5t-47.5 -19.5t-47 19.5t-19 47.5z" />
<glyph unicode="&#x130;" horiz-adv-x="323" d="M217 113q0 -90 80 -90h10v-23h-291v23h11q79 0 79 90v491q0 90 -79 90h-11v23h291v-23h-10q-80 0 -80 -90v-491zM95 863q0 28 19.5 47.5t47.5 19.5t47 -19.5t19 -47.5t-19 -47t-47 -19t-47.5 19t-19.5 47z" />
<glyph unicode="&#x131;" horiz-adv-x="274" d="M185 98q0 -42 14 -58.5t48 -16.5h10v-23h-240v23h11q33 0 47 16.5t14 58.5v298q0 42 -16 57.5t-45 15.5h-11v23l168 14v-408z" />
<glyph unicode="&#x132;" horiz-adv-x="758" d="M217 113q0 -90 80 -90h10v-23h-291v23h11q79 0 79 90v491q0 90 -79 90h-11v23h291v-23h-10q-80 0 -80 -90v-491zM542 604q0 90 -80 90h-10v23h290v-23h-10q-80 0 -80 -90v-450q0 -80 -54 -124t-130 -44q-63 0 -107 28.5t-44 81.5q0 27 16.5 45.5t42.5 18.5t43 -16t17 -40 q0 -17 -10.5 -34t-10.5 -23q0 -15 14 -25t38 -10q75 0 75 92v500z" />
<glyph unicode="&#x133;" horiz-adv-x="490" d="M71 638q0 28 19 47.5t47 19.5t47.5 -19.5t19.5 -47.5t-19.5 -47.5t-47.5 -19.5t-47 19.5t-19 47.5zM185 98q0 -42 14 -58.5t48 -16.5h10v-23h-240v23h11q33 0 47 16.5t14 58.5v298q0 42 -16 57.5t-45 15.5h-11v23l168 14v-408zM445 506v-548q0 -144 -117 -144 q-52 0 -80 25.5t-28 56.5q0 24 13 37.5t35 13.5q21 0 34.5 -12t13.5 -32q0 -5 -2.5 -17t-2.5 -17q0 -13 9.5 -22t25.5 -9q18 0 28.5 13t10.5 31q0 23 -18 76.5t-18 99.5v338q0 42 -16 57.5t-45 15.5h-10v23zM331 638q0 28 19 47.5t47 19.5t47.5 -19.5t19.5 -47.5 t-19.5 -47.5t-47.5 -19.5t-47 19.5t-19 47.5z" />
<glyph unicode="&#x134;" horiz-adv-x="464" d="M239 604q0 90 -80 90h-11v23h291v-23h-10q-80 0 -80 -90v-450q0 -80 -54 -124t-130 -44q-63 0 -107 28.5t-44 81.5q0 27 16.5 45.5t42.5 18.5t43 -16t17 -40q0 -17 -10.5 -34t-10.5 -23q0 -15 14 -25t38 -10q75 0 75 92v500zM335 942l101 -154h-30l-112 98l-112 -98h-30 l101 154h82z" />
<glyph unicode="&#x135;" horiz-adv-x="261" d="M218 -35q0 -151 -122 -151q-50 0 -76.5 25.5t-26.5 56.5q0 24 13 37.5t35 13.5q21 0 34.5 -12t13.5 -32q0 -5 -2.5 -17t-2.5 -17q0 -11 11 -20.5t24 -9.5q17 0 28 12.5t11 30.5q0 23 -18 76.5t-18 99.5v338q0 42 -16.5 57.5t-45.5 15.5h-10v23l168 14v-541zM190 717 l102 -154h-31l-111 97l-112 -97h-31l102 154h81z" />
<glyph unicode="&#x136;" horiz-adv-x="674" d="M307 717v-23h-10q-80 0 -80 -90v-238l213 244q34 38 34 56q0 28 -37 28h-13v23h220v-23h-10q-44 0 -79.5 -23t-83.5 -79l-138 -161l256 -341q38 -49 83 -67v-23h-159q-18 9 -39 36l-247 330v-253q0 -90 80 -90h10v-23h-291v23h11q79 0 79 90v491q0 90 -79 90h-11v23h291z M398 -53q37 0 57 -25.5t20 -64.5q0 -118 -130 -195l-13 15q94 67 101 148q-14 -7 -35 -7q-27 0 -46 17.5t-19 44.5q0 26 18 46.5t47 20.5z" />
<glyph unicode="&#x137;" horiz-adv-x="566" d="M185 98q0 -42 14 -58.5t48 -16.5h10v-23h-240v23h11q33 0 47 16.5t14 58.5v524q0 42 -16 57t-45 15h-11v23l168 14v-633zM283 325l186 -242q22 -30 39.5 -43t43.5 -17v-23h-215v23q22 0 22 21q0 9 -6 18l-168 217l150 132q19 18 19 33q0 25 -36 25h-10v23h194v-23h-8 q-48 0 -114 -59zM321 -53q37 0 56.5 -25.5t19.5 -64.5q0 -118 -130 -195l-13 15q94 67 101 148q-14 -7 -34 -7q-27 0 -46.5 17.5t-19.5 44.5q0 26 18.5 46.5t47.5 20.5z" />
<glyph unicode="&#x138;" horiz-adv-x="566" d="M185 98q0 -42 14 -58.5t48 -16.5h10v-23h-240v23h11q33 0 47 16.5t14 58.5v298q0 42 -16 57.5t-45 15.5h-11v23l168 14v-408zM283 325l186 -242q22 -30 39.5 -43t43.5 -17v-23h-215v23q22 0 22 21q0 9 -6 18l-168 217l150 132q19 18 19 33q0 25 -36 25h-10v23h194v-23h-8 q-48 0 -114 -59z" />
<glyph unicode="&#x139;" horiz-adv-x="586" d="M217 106q0 -43 14.5 -57t47.5 -14h82q88 0 127 39t65 140h24l-15 -214h-546v23h11q79 0 79 90v491q0 90 -79 90h-11v23h291v-23h-10q-80 0 -80 -90v-498zM100 774l68 145q13 27 38 27q14 0 24 -9.5t10 -23.5q0 -16 -15 -32l-98 -107h-27z" />
<glyph unicode="&#x13a;" horiz-adv-x="274" d="M185 98q0 -42 14 -58.5t48 -16.5h10v-23h-240v23h11q33 0 47 16.5t14 58.5v524q0 42 -16 57t-45 15h-11v23l168 14v-633zM65 774l67 145q13 27 38 27q14 0 24 -9.5t10 -23.5q0 -16 -15 -32l-98 -107h-26z" />
<glyph unicode="&#x13b;" horiz-adv-x="586" d="M217 106q0 -43 14.5 -57t47.5 -14h82q88 0 127 39t65 140h24l-15 -214h-546v23h11q79 0 79 90v491q0 90 -79 90h-11v23h291v-23h-10q-80 0 -80 -90v-498zM324 -53q37 0 56.5 -25.5t19.5 -64.5q0 -118 -130 -195l-13 15q94 67 101 148q-14 -7 -34 -7q-27 0 -46.5 17.5 t-19.5 44.5q0 26 18.5 46.5t47.5 20.5z" />
<glyph unicode="&#x13c;" horiz-adv-x="274" d="M185 98q0 -42 14 -58.5t48 -16.5h10v-23h-240v23h11q33 0 47 16.5t14 58.5v524q0 42 -16 57t-45 15h-11v23l168 14v-633zM157 -53q37 0 56.5 -25.5t19.5 -64.5q0 -118 -130 -195l-13 15q94 67 101 148q-14 -7 -34 -7q-27 0 -46.5 17.5t-19.5 44.5q0 26 18.5 46.5 t47.5 20.5z" />
<glyph unicode="&#x13d;" horiz-adv-x="600" d="M217 106q0 -43 14.5 -57t47.5 -14h82q88 0 127 39t65 140h24l-15 -214h-546v23h11q79 0 79 90v491q0 90 -79 90h-11v23h291v-23h-10q-80 0 -80 -90v-498zM527 731q37 0 57 -25.5t20 -64.5q0 -64 -40.5 -117t-104.5 -72l-7 15q106 45 110 142q-14 -7 -37 -7 q-26 0 -44.5 18t-18.5 45q0 28 17.5 47t47.5 19z" />
<glyph unicode="&#x13e;" horiz-adv-x="405" d="M185 98q0 -42 14 -58.5t48 -16.5h10v-23h-240v23h11q33 0 47 16.5t14 58.5v524q0 42 -16 57t-45 15h-11v23l168 14v-633zM345 731q37 0 57 -25.5t20 -64.5q0 -64 -41 -117t-105 -72l-7 15q107 46 111 142q-14 -7 -37 -7q-26 0 -44.5 18t-18.5 45q0 28 17.5 47t47.5 19z " />
<glyph unicode="&#x13f;" horiz-adv-x="586" d="M217 106q0 -43 14.5 -57t47.5 -14h82q88 0 127 39t65 140h24l-15 -214h-546v23h11q79 0 79 90v491q0 90 -79 90h-11v23h291v-23h-10q-80 0 -80 -90v-498zM432 358q0 27 19 46t46 19t45.5 -19t18.5 -46t-18.5 -45.5t-45.5 -18.5t-46 18.5t-19 45.5z" />
<glyph unicode="&#x140;" horiz-adv-x="442" d="M185 98q0 -42 14 -58.5t48 -16.5h10v-23h-240v23h11q33 0 47 16.5t14 58.5v524q0 42 -16 57t-45 15h-11v23l168 14v-633zM308 358q0 27 19 46t46 19t45.5 -19t18.5 -46t-18.5 -45.5t-45.5 -18.5t-46 18.5t-19 45.5z" />
<glyph unicode="&#x141;" horiz-adv-x="570" d="M201 106q0 -43 14 -57t47 -14h83q88 0 127 39t65 140h23l-14 -214h-546v23h10q80 0 80 90v131l-82 -45l-17 29l99 56v320q0 90 -80 90h-10v23h291v-23h-10q-80 0 -80 -90v-259l213 118l17 -31l-230 -128v-198z" />
<glyph unicode="&#x142;" horiz-adv-x="306" d="M199 98q0 -42 14 -58.5t47 -16.5h10v-23h-239v23h10q33 0 47 16.5t14 58.5v158l-93 -51l-17 29l110 61v327q0 42 -16 57t-45 15h-10v23l168 14v-383l98 54l17 -30l-115 -64v-210z" />
<glyph unicode="&#x143;" horiz-adv-x="728" d="M141 560v-447q0 -90 80 -90h10v-23h-215v23h11q79 0 79 90v491q0 90 -79 90h-11v23h146l425 -511v398q0 90 -80 90h-10v23h215v-23h-11q-79 0 -79 -90v-610h-11zM311 774l68 145q13 27 38 27q14 0 24 -9.5t10 -23.5q0 -16 -15 -32l-98 -107h-27z" />
<glyph unicode="&#x144;" horiz-adv-x="594" d="M185 385q73 121 182 121q67 0 103 -38t36 -101v-269q0 -42 14 -58.5t47 -16.5h11v-23h-240v23h10q34 0 48 16.5t14 58.5v237q0 102 -97 102q-36 0 -71 -24.5t-57 -64.5v-250q0 -42 14 -58.5t48 -16.5h10v-23h-240v23h11q33 0 47 16.5t14 58.5v295q0 42 -14 59t-47 17h-11 v23l168 14v-121zM268 549l68 144q13 28 38 28q14 0 24 -9.5t10 -23.5q0 -17 -15 -33l-98 -106h-27z" />
<glyph unicode="&#x145;" horiz-adv-x="728" d="M141 560v-447q0 -90 80 -90h10v-23h-215v23h11q79 0 79 90v491q0 90 -79 90h-11v23h146l425 -511v398q0 90 -80 90h-10v23h215v-23h-11q-79 0 -79 -90v-610h-11zM394 -53q37 0 57 -25.5t20 -64.5q0 -118 -130 -195l-13 15q94 67 101 148q-14 -7 -35 -7q-27 0 -46 17.5 t-19 44.5q0 26 18 46.5t47 20.5z" />
<glyph unicode="&#x146;" horiz-adv-x="594" d="M185 385q73 121 182 121q67 0 103 -38t36 -101v-269q0 -42 14 -58.5t47 -16.5h11v-23h-240v23h10q34 0 48 16.5t14 58.5v237q0 102 -97 102q-36 0 -71 -24.5t-57 -64.5v-250q0 -42 14 -58.5t48 -16.5h10v-23h-240v23h11q33 0 47 16.5t14 58.5v295q0 42 -14 59t-47 17h-11 v23l168 14v-121zM312 -53q37 0 57 -25.5t20 -64.5q0 -118 -130 -195l-13 15q94 67 101 148q-14 -7 -35 -7q-27 0 -46 17.5t-19 44.5q0 26 18 46.5t47 20.5z" />
<glyph unicode="&#x147;" horiz-adv-x="728" d="M141 560v-447q0 -90 80 -90h10v-23h-215v23h11q79 0 79 90v491q0 90 -79 90h-11v23h146l425 -511v398q0 90 -80 90h-10v23h215v-23h-11q-79 0 -79 -90v-610h-11zM507 942l-101 -154h-82l-102 154h31l112 -97l111 97h31z" />
<glyph unicode="&#x148;" horiz-adv-x="594" d="M185 385q73 121 182 121q67 0 103 -38t36 -101v-269q0 -42 14 -58.5t47 -16.5h11v-23h-240v23h10q34 0 48 16.5t14 58.5v237q0 102 -97 102q-36 0 -71 -24.5t-57 -64.5v-250q0 -42 14 -58.5t48 -16.5h10v-23h-240v23h11q33 0 47 16.5t14 58.5v295q0 42 -14 59t-47 17h-11 v23l168 14v-121zM442 717l-101 -154h-82l-101 154h30l112 -97l112 97h30z" />
<glyph unicode="&#x149;" horiz-adv-x="665" d="M185 385q73 121 182 121q67 0 103 -38t36 -101v-269q0 -42 14 -58.5t47 -16.5h11v-23h-240v23h10q34 0 48 16.5t14 58.5v237q0 102 -97 102q-36 0 -71 -24.5t-57 -64.5v-250q0 -42 14 -58.5t48 -16.5h10v-23h-240v23h11q33 0 47 16.5t14 58.5v295q0 42 -14 59t-47 17h-11 v23l168 14v-121zM605 731q37 0 57 -25.5t20 -64.5q0 -64 -40.5 -117t-104.5 -72l-8 15q107 46 111 142q-14 -7 -37 -7q-26 0 -44.5 18t-18.5 45q0 28 17.5 47t47.5 19z" />
<glyph unicode="&#x14a;" horiz-adv-x="728" d="M712 717v-23h-11q-79 0 -79 -90v-710q0 -134 -113 -134q-48 0 -79 26t-31 67q0 25 17.5 42.5t42.5 17.5t40 -14t15 -36q0 -16 -9.5 -29t-9.5 -21q0 -22 31 -22q29 0 45 23.5t16 61.5v148l-446 536v-447q0 -90 80 -90h10v-23h-215v23h11q79 0 79 90v491q0 90 -79 90h-11 v23h146l425 -511v398q0 90 -80 90h-10v23h215z" />
<glyph unicode="&#x14b;" horiz-adv-x="555" d="M367 506q67 0 103 -38t36 -101v-402q0 -151 -122 -151q-50 0 -76.5 25.5t-26.5 56.5q0 24 13 37.5t35 13.5q21 0 34.5 -12t13.5 -32q0 -5 -2.5 -17t-2.5 -17q0 -11 11 -20.5t24 -9.5q17 0 27.5 12.5t10.5 30.5q0 23 -17.5 76.5t-17.5 99.5v277q0 102 -97 102 q-36 0 -71 -24.5t-57 -64.5v-250q0 -42 14 -58.5t48 -16.5h10v-23h-240v23h11q33 0 47 16.5t14 58.5v295q0 42 -14 59t-47 17h-11v23l168 14v-121q73 121 182 121z" />
<glyph unicode="&#x14c;" horiz-adv-x="763" d="M382 731q63 0 124.5 -24.5t112.5 -69.5t82.5 -118t31.5 -161t-31.5 -161t-82.5 -117.5t-112.5 -69t-124.5 -24.5t-124.5 24.5t-112.5 69t-82.5 117.5t-31.5 161t31.5 161t82.5 118t112.5 69.5t124.5 24.5zM604 358q0 164 -57.5 251t-164.5 87t-164.5 -87t-57.5 -251 t57.5 -251t164.5 -87t164.5 87t57.5 251zM254 838v34h256v-34h-256z" />
<glyph unicode="&#x14d;" horiz-adv-x="547" d="M27 232q0 123 69.5 198.5t174.5 75.5q109 0 179.5 -69t70.5 -179q0 -117 -72.5 -194.5t-173.5 -77.5q-114 0 -181 70.5t-67 175.5zM133 265q0 -110 39.5 -179.5t107.5 -69.5q61 0 98 55t37 153q0 125 -40 188t-107 63q-59 0 -97 -56t-38 -154zM145 612v35h256v-35h-256z " />
<glyph unicode="&#x14e;" horiz-adv-x="763" d="M382 731q63 0 124.5 -24.5t112.5 -69.5t82.5 -118t31.5 -161t-31.5 -161t-82.5 -117.5t-112.5 -69t-124.5 -24.5t-124.5 24.5t-112.5 69t-82.5 117.5t-31.5 161t31.5 161t82.5 118t112.5 69.5t124.5 24.5zM604 358q0 164 -57.5 251t-164.5 87t-164.5 -87t-57.5 -251 t57.5 -251t164.5 -87t164.5 87t57.5 251zM474 893q0 -45 -24 -76.5t-68 -31.5t-68 31.5t-24 76.5h19q17 -62 73 -62t73 62h19z" />
<glyph unicode="&#x14f;" horiz-adv-x="547" d="M27 232q0 123 69.5 198.5t174.5 75.5q109 0 179.5 -69t70.5 -179q0 -117 -72.5 -194.5t-173.5 -77.5q-114 0 -181 70.5t-67 175.5zM133 265q0 -110 39.5 -179.5t107.5 -69.5q61 0 98 55t37 153q0 125 -40 188t-107 63q-59 0 -97 -56t-38 -154zM366 668q0 -45 -24.5 -76.5 t-68.5 -31.5t-68 31.5t-24 76.5h20q17 -62 72 -62q56 0 73 62h20z" />
<glyph unicode="&#x150;" horiz-adv-x="763" d="M382 731q63 0 124.5 -24.5t112.5 -69.5t82.5 -118t31.5 -161t-31.5 -161t-82.5 -117.5t-112.5 -69t-124.5 -24.5t-124.5 24.5t-112.5 69t-82.5 117.5t-31.5 161t31.5 161t82.5 118t112.5 69.5t124.5 24.5zM604 358q0 164 -57.5 251t-164.5 87t-164.5 -87t-57.5 -251 t57.5 -251t164.5 -87t164.5 87t57.5 251zM265 774l68 145q13 27 38 27q14 0 23.5 -9.5t9.5 -23.5q0 -17 -14 -32l-98 -107h-27zM397 774l68 145q13 27 38 27q14 0 24 -9.5t10 -23.5q0 -16 -15 -32l-98 -107h-27z" />
<glyph unicode="&#x151;" horiz-adv-x="547" d="M27 232q0 123 69.5 198.5t174.5 75.5q109 0 179.5 -69t70.5 -179q0 -117 -72.5 -194.5t-173.5 -77.5q-114 0 -181 70.5t-67 175.5zM133 265q0 -110 39.5 -179.5t107.5 -69.5q61 0 98 55t37 153q0 125 -40 188t-107 63q-59 0 -97 -56t-38 -154zM157 549l67 144 q13 28 38 28q14 0 24 -9.5t10 -23.5q0 -18 -14 -33l-99 -106h-26zM289 549l67 144q13 28 38 28q14 0 24 -9.5t10 -23.5q0 -18 -14 -33l-99 -106h-26z" />
<glyph unicode="&#x152;" horiz-adv-x="1099" d="M1072 0h-594q-50 -14 -96 -14q-63 0 -124.5 24.5t-112.5 69t-82.5 117.5t-31.5 161t31.5 161t82.5 118t112.5 69.5t124.5 24.5q46 0 96 -14h585v-181h-23q-5 78 -39 112t-114 34h-91q-33 0 -47.5 -14.5t-14.5 -57.5v-232h120q52 0 80.5 33.5t28.5 89.5h22v-281h-22 q0 56 -28.5 89.5t-80.5 33.5h-120v-237q0 -43 14.5 -57t47.5 -14h73q87 0 132 35t63 121h22zM160 358q0 -164 57.5 -251t164.5 -87t164.5 87t57.5 251t-57.5 251t-164.5 87t-164.5 -87t-57.5 -251z" />
<glyph unicode="&#x153;" horiz-adv-x="884" d="M646 506q87 0 147.5 -60t60.5 -156h-325v-17q0 -99 43.5 -161.5t116.5 -62.5q103 0 142 126l16 -4q-12 -84 -66.5 -134.5t-132.5 -50.5q-122 0 -187 92q-73 -92 -186 -92q-114 0 -181 70.5t-67 175.5q0 123 69.5 198.5t174.5 75.5q129 0 199 -91q69 91 176 91zM133 265 q0 -110 39.5 -179.5t107.5 -69.5q62 0 98.5 56.5t36.5 165.5q0 115 -40 176t-107 61q-59 0 -97 -56t-38 -154zM758 321q0 66 -30.5 110t-83.5 44q-43 0 -76.5 -42.5t-37.5 -111.5h228z" />
<glyph unicode="&#x154;" horiz-adv-x="643" d="M415 339l130 -248q17 -32 35.5 -47t48.5 -21v-23h-147q-24 6 -37 32l-151 293h-77v-212q0 -90 80 -90h10v-23h-291v23h11q79 0 79 90v491q0 90 -79 90h-11v23h288q129 0 204.5 -49.5t75.5 -142.5q0 -68 -46 -116.5t-123 -69.5zM326 682h-37q-39 0 -55.5 -17t-16.5 -61 v-245h41q215 0 215 168q0 68 -37.5 111.5t-109.5 43.5zM250 774l67 145q13 27 38 27q14 0 24 -9.5t10 -23.5q0 -17 -14 -32l-99 -107h-26z" />
<glyph unicode="&#x155;" horiz-adv-x="401" d="M303 506q38 0 60.5 -19.5t22.5 -54.5q0 -29 -18 -45.5t-44 -16.5q-30 0 -48 27l-6 12t-5.5 11.5t-5.5 8.5t-7 7t-8.5 4t-12.5 2q-10 0 -19.5 -6t-18 -27t-8.5 -55v-256q0 -42 14 -58.5t48 -16.5h10v-23h-240v23h11q33 0 47 16.5t14 58.5v295q0 42 -14 59t-47 17h-11v23 l168 14v-70q17 30 50.5 50t67.5 20zM151 549l67 144q13 28 38 28q14 0 24 -9.5t10 -23.5q0 -17 -15 -33l-98 -106h-26z" />
<glyph unicode="&#x156;" horiz-adv-x="643" d="M415 339l130 -248q17 -32 35.5 -47t48.5 -21v-23h-147q-24 6 -37 32l-151 293h-77v-212q0 -90 80 -90h10v-23h-291v23h11q79 0 79 90v491q0 90 -79 90h-11v23h288q129 0 204.5 -49.5t75.5 -142.5q0 -68 -46 -116.5t-123 -69.5zM326 682h-37q-39 0 -55.5 -17t-16.5 -61 v-245h41q215 0 215 168q0 68 -37.5 111.5t-109.5 43.5zM388 -53q37 0 57 -25.5t20 -64.5q0 -118 -130 -195l-13 15q94 67 101 148q-14 -7 -35 -7q-27 0 -46 17.5t-19 44.5q0 26 18 46.5t47 20.5z" />
<glyph unicode="&#x157;" horiz-adv-x="401" d="M303 506q38 0 60.5 -19.5t22.5 -54.5q0 -29 -18 -45.5t-44 -16.5q-30 0 -48 27l-6 12t-5.5 11.5t-5.5 8.5t-7 7t-8.5 4t-12.5 2q-10 0 -19.5 -6t-18 -27t-8.5 -55v-256q0 -42 14 -58.5t48 -16.5h10v-23h-240v23h11q33 0 47 16.5t14 58.5v295q0 42 -14 59t-47 17h-11v23 l168 14v-70q17 30 50.5 50t67.5 20zM135 -53q37 0 57 -25.5t20 -64.5q0 -118 -130 -195l-13 15q94 67 101 148q-14 -7 -35 -7q-27 0 -46 17.5t-19 44.5q0 26 18 46.5t47 20.5z" />
<glyph unicode="&#x158;" horiz-adv-x="643" d="M415 339l130 -248q17 -32 35.5 -47t48.5 -21v-23h-147q-24 6 -37 32l-151 293h-77v-212q0 -90 80 -90h10v-23h-291v23h11q79 0 79 90v491q0 90 -79 90h-11v23h288q129 0 204.5 -49.5t75.5 -142.5q0 -68 -46 -116.5t-123 -69.5zM326 682h-37q-39 0 -55.5 -17t-16.5 -61 v-245h41q215 0 215 168q0 68 -37.5 111.5t-109.5 43.5zM444 942l-101 -154h-82l-101 154h30l112 -97l112 97h30z" />
<glyph unicode="&#x159;" horiz-adv-x="401" d="M303 506q38 0 60.5 -19.5t22.5 -54.5q0 -29 -18 -45.5t-44 -16.5q-30 0 -48 27l-6 12t-5.5 11.5t-5.5 8.5t-7 7t-8.5 4t-12.5 2q-10 0 -19.5 -6t-18 -27t-8.5 -55v-256q0 -42 14 -58.5t48 -16.5h10v-23h-240v23h11q33 0 47 16.5t14 58.5v295q0 42 -14 59t-47 17h-11v23 l168 14v-70q17 30 50.5 50t67.5 20zM347 717l-101 -154h-82l-102 154h31l112 -97l111 97h31z" />
<glyph unicode="&#x15a;" horiz-adv-x="516" d="M393 150q0 63 -47 101t-142 78q-168 70 -168 214q0 85 63.5 136.5t150.5 51.5q68 0 139 -41q13 -8 23 -8q18 0 18 26v9h25v-204h-25q-11 86 -59.5 134.5t-119.5 48.5q-54 0 -86.5 -30t-32.5 -79q0 -56 48 -96.5t139 -78.5t133 -86t42 -119q0 -100 -70 -160.5t-156 -60.5 q-48 0 -83.5 14t-79.5 43q-13 8 -25 8q-27 0 -27 -51h-24v245h24q14 -92 74.5 -158.5t134.5 -66.5q59 0 95 35.5t36 94.5zM209 774l67 145q13 27 38 27q14 0 24 -9.5t10 -23.5q0 -17 -14 -32l-98 -107h-27z" />
<glyph unicode="&#x15b;" horiz-adv-x="408" d="M293 98q0 43 -30.5 65.5t-95.5 46.5q-134 49 -134 155q0 62 48.5 101.5t117.5 39.5q49 0 101 -31q10 -6 18 -6q17 0 17 23h24v-158h-19q-8 65 -44.5 102t-93.5 37q-40 0 -63 -21t-23 -52q0 -36 30.5 -60.5t95.5 -50.5q70 -28 104 -62t34 -87q0 -68 -47.5 -111t-122.5 -43 q-65 0 -120 37q-8 5 -15 5q-10 0 -16.5 -8t-6.5 -20h-26v176h24q12 -72 54.5 -115t93.5 -43q44 0 69.5 22t25.5 58zM155 549l67 144q13 28 38 28q14 0 24 -9.5t10 -23.5q0 -18 -14 -33l-99 -106h-26z" />
<glyph unicode="&#x15c;" horiz-adv-x="516" d="M393 150q0 63 -47 101t-142 78q-168 70 -168 214q0 85 63.5 136.5t150.5 51.5q68 0 139 -41q13 -8 23 -8q18 0 18 26v9h25v-204h-25q-11 86 -59.5 134.5t-119.5 48.5q-54 0 -86.5 -30t-32.5 -79q0 -56 48 -96.5t139 -78.5t133 -86t42 -119q0 -100 -70 -160.5t-156 -60.5 q-48 0 -83.5 14t-79.5 43q-13 8 -25 8q-27 0 -27 -51h-24v245h24q14 -92 74.5 -158.5t134.5 -66.5q59 0 95 35.5t36 94.5zM298 942l101 -154h-30l-112 98l-112 -98h-30l101 154h82z" />
<glyph unicode="&#x15d;" horiz-adv-x="408" d="M293 98q0 43 -30.5 65.5t-95.5 46.5q-134 49 -134 155q0 62 48.5 101.5t117.5 39.5q49 0 101 -31q10 -6 18 -6q17 0 17 23h24v-158h-19q-8 65 -44.5 102t-93.5 37q-40 0 -63 -21t-23 -52q0 -36 30.5 -60.5t95.5 -50.5q70 -28 104 -62t34 -87q0 -68 -47.5 -111t-122.5 -43 q-65 0 -120 37q-8 5 -15 5q-10 0 -16.5 -8t-6.5 -20h-26v176h24q12 -72 54.5 -115t93.5 -43q44 0 69.5 22t25.5 58zM243 717l101 -154h-31l-111 97l-112 -97h-31l102 154h82z" />
<glyph unicode="&#x15e;" horiz-adv-x="516" d="M393 150q0 63 -47 101t-142 78q-168 70 -168 214q0 85 63.5 136.5t150.5 51.5q68 0 139 -41q13 -8 23 -8q18 0 18 26v9h25v-204h-25q-11 86 -59.5 134.5t-119.5 48.5q-54 0 -86.5 -30t-32.5 -79q0 -56 48 -96.5t139 -78.5t133 -86t42 -119q0 -100 -70 -160.5t-156 -60.5 h-15l-19 -33q21 8 42 8q30 0 53 -22t23 -61q0 -43 -26.5 -67t-65.5 -24q-55 0 -80 50l9 9q23 -31 56 -31q24 0 38.5 15t14.5 44q0 24 -15 39t-37 15q-27 0 -48 -21l-8 4l36 78q-55 10 -121 54q-13 8 -25 8q-27 0 -27 -51h-24v245h24q14 -92 74.5 -158.5t134.5 -66.5 q59 0 95 35.5t36 94.5z" />
<glyph unicode="&#x15f;" horiz-adv-x="408" d="M293 98q0 43 -30.5 65.5t-95.5 46.5q-134 49 -134 155q0 62 48.5 101.5t117.5 39.5q49 0 101 -31q10 -6 18 -6q17 0 17 23h24v-158h-19q-8 65 -44.5 102t-93.5 37q-40 0 -63 -21t-23 -52q0 -36 30.5 -60.5t95.5 -50.5q70 -28 104 -62t34 -87q0 -68 -47.5 -111t-122.5 -43 q-8 0 -16 1l-19 -34q21 8 42 8q30 0 53 -22t23 -61q0 -43 -26.5 -67t-65.5 -24q-55 0 -80 50l9 9q23 -31 55 -31q24 0 39 15t15 44q0 24 -15.5 39t-37.5 15q-27 0 -48 -21l-7 4l36 79q-37 6 -77 33q-8 5 -15 5q-10 0 -16.5 -8t-6.5 -20h-26v176h24q12 -72 54.5 -115 t93.5 -43q44 0 69.5 22t25.5 58z" />
<glyph unicode="&#x160;" horiz-adv-x="516" d="M393 150q0 63 -47 101t-142 78q-168 70 -168 214q0 85 63.5 136.5t150.5 51.5q68 0 139 -41q13 -8 23 -8q18 0 18 26v9h25v-204h-25q-11 86 -59.5 134.5t-119.5 48.5q-54 0 -86.5 -30t-32.5 -79q0 -56 48 -96.5t139 -78.5t133 -86t42 -119q0 -100 -70 -160.5t-156 -60.5 q-48 0 -83.5 14t-79.5 43q-13 8 -25 8q-27 0 -27 -51h-24v245h24q14 -92 74.5 -158.5t134.5 -66.5q59 0 95 35.5t36 94.5zM402 942l-101 -154h-82l-101 154h30l112 -97l112 97h30z" />
<glyph unicode="&#x161;" horiz-adv-x="408" d="M293 98q0 43 -30.5 65.5t-95.5 46.5q-134 49 -134 155q0 62 48.5 101.5t117.5 39.5q49 0 101 -31q10 -6 18 -6q17 0 17 23h24v-158h-19q-8 65 -44.5 102t-93.5 37q-40 0 -63 -21t-23 -52q0 -36 30.5 -60.5t95.5 -50.5q70 -28 104 -62t34 -87q0 -68 -47.5 -111t-122.5 -43 q-65 0 -120 37q-8 5 -15 5q-10 0 -16.5 -8t-6.5 -20h-26v176h24q12 -72 54.5 -115t93.5 -43q44 0 69.5 22t25.5 58zM347 717l-101 -154h-82l-102 154h31l112 -97l111 97h31z" />
<glyph unicode="&#x162;" horiz-adv-x="602" d="M246 643q0 39 -37 39h-26q-130 0 -147 -148h-20v183h570v-183h-20q-17 148 -147 148h-26q-37 0 -37 -39v-530q0 -90 80 -90h10v-23h-290v23h10q80 0 80 90v530zM296 -53q37 0 57 -25.5t20 -64.5q0 -118 -130 -195l-14 15q95 67 102 148q-14 -7 -35 -7q-27 0 -46.5 17.5 t-19.5 44.5q0 26 18.5 46.5t47.5 20.5z" />
<glyph unicode="&#x163;" horiz-adv-x="317" d="M181 639v-147h94v-25h-94v-349q0 -64 46 -64q39 0 58 36l10 -6q-28 -98 -111 -98q-49 0 -77.5 38.5t-28.5 100.5q0 27 3.5 106t3.5 131v105h-70v25q125 0 142 147h24zM203 -53q37 0 57 -25.5t20 -64.5q0 -118 -130 -195l-14 15q95 67 102 148q-14 -7 -35 -7 q-27 0 -46.5 17.5t-19.5 44.5q0 26 18.5 46.5t47.5 20.5z" />
<glyph unicode="&#x164;" horiz-adv-x="602" d="M246 643q0 39 -37 39h-26q-130 0 -147 -148h-20v183h570v-183h-20q-17 148 -147 148h-26q-37 0 -37 -39v-530q0 -90 80 -90h10v-23h-290v23h10q80 0 80 90v530zM443 942l-101 -154h-82l-101 154h30l112 -97l112 97h30z" />
<glyph unicode="&#x165;" horiz-adv-x="489" d="M178 639v-147h94v-25h-94v-349q0 -64 46 -64q39 0 58 36l10 -6q-28 -98 -111 -98q-49 0 -77.5 38.5t-28.5 100.5q0 27 3.5 106t3.5 131v105h-70v25q125 0 142 147h24zM429 731q37 0 57 -25.5t20 -64.5q0 -64 -41 -117t-105 -72l-7 15q107 46 111 142q-14 -7 -37 -7 q-26 0 -44.5 18t-18.5 45q0 28 17.5 47t47.5 19z" />
<glyph unicode="&#x166;" horiz-adv-x="602" d="M246 643q0 39 -37 39h-26q-130 0 -147 -148h-20v183h570v-183h-20q-17 148 -147 148h-26q-37 0 -37 -39v-186h140v-35h-140v-309q0 -90 80 -90h10v-23h-290v23h10q80 0 80 90v309h-140v35h140v186z" />
<glyph unicode="&#x167;" horiz-adv-x="314" d="M178 639v-147h94v-25h-94v-170h48v-35h-48v-144q0 -64 46 -64q39 0 58 36l10 -6q-28 -98 -111 -98q-49 0 -77.5 38.5t-28.5 100.5q0 7 5 137h-57v35h58q0 9 0.5 31t0.5 34v105h-70v25q125 0 142 147h24z" />
<glyph unicode="&#x168;" horiz-adv-x="728" d="M217 228q0 -191 189 -191q89 0 135 51.5t46 147.5v368q0 90 -80 90h-10v23h215v-23h-11q-79 0 -79 -90v-371q0 -114 -62.5 -180.5t-174.5 -66.5q-123 0 -201 69.5t-78 209.5v339q0 90 -79 90h-11v23h291v-23h-10q-80 0 -80 -90v-376zM268 795q1 50 27.5 80.5t70.5 30.5 q30 0 73 -25.5t66 -25.5q48 0 59 51h19q-1 -50 -27.5 -80.5t-70.5 -30.5q-30 0 -73 25.5t-66 25.5q-48 0 -59 -51h-19z" />
<glyph unicode="&#x169;" horiz-adv-x="592" d="M504 506v-408q0 -42 14 -58.5t47 -16.5h10v-23l-167 -14v115q-70 -115 -171 -115q-68 0 -108 41.5t-40 122.5v243q0 42 -14 59t-47 17h-11v23l168 14v-349q0 -51 24 -77.5t67 -26.5q74 0 132 85v255q0 42 -14 59t-48 17h-10v23zM131 569q1 50 27 81t70 31 q30 0 73.5 -25.5t66.5 -25.5q48 0 59 51h18q-1 -50 -27 -81t-70 -31q-30 0 -73 26t-66 26q-48 0 -59 -52h-19z" />
<glyph unicode="&#x16a;" horiz-adv-x="728" d="M217 228q0 -191 189 -191q89 0 135 51.5t46 147.5v368q0 90 -80 90h-10v23h215v-23h-11q-79 0 -79 -90v-371q0 -114 -62.5 -180.5t-174.5 -66.5q-123 0 -201 69.5t-78 209.5v339q0 90 -79 90h-11v23h291v-23h-10q-80 0 -80 -90v-376zM306 838v34h256v-34h-256z" />
<glyph unicode="&#x16b;" horiz-adv-x="592" d="M504 506v-408q0 -42 14 -58.5t47 -16.5h10v-23l-167 -14v115q-70 -115 -171 -115q-68 0 -108 41.5t-40 122.5v243q0 42 -14 59t-47 17h-11v23l168 14v-349q0 -51 24 -77.5t67 -26.5q74 0 132 85v255q0 42 -14 59t-48 17h-10v23zM152 612v35h256v-35h-256z" />
<glyph unicode="&#x16c;" horiz-adv-x="728" d="M217 228q0 -191 189 -191q89 0 135 51.5t46 147.5v368q0 90 -80 90h-10v23h215v-23h-11q-79 0 -79 -90v-371q0 -114 -62.5 -180.5t-174.5 -66.5q-123 0 -201 69.5t-78 209.5v339q0 90 -79 90h-11v23h291v-23h-10q-80 0 -80 -90v-376zM520 893q0 -45 -24 -76.5t-68 -31.5 t-68 31.5t-24 76.5h19q17 -62 73 -62t73 62h19z" />
<glyph unicode="&#x16d;" horiz-adv-x="592" d="M504 506v-408q0 -42 14 -58.5t47 -16.5h10v-23l-167 -14v115q-70 -115 -171 -115q-68 0 -108 41.5t-40 122.5v243q0 42 -14 59t-47 17h-11v23l168 14v-349q0 -51 24 -77.5t67 -26.5q74 0 132 85v255q0 42 -14 59t-48 17h-10v23zM372 668q0 -45 -24 -76.5t-68 -31.5 t-68.5 31.5t-24.5 76.5h20q17 -62 73 -62q55 0 72 62h20z" />
<glyph unicode="&#x16e;" horiz-adv-x="728" d="M217 228q0 -191 189 -191q89 0 135 51.5t46 147.5v368q0 90 -80 90h-10v23h215v-23h-11q-79 0 -79 -90v-371q0 -114 -62.5 -180.5t-174.5 -66.5q-123 0 -201 69.5t-78 209.5v339q0 90 -79 90h-11v23h291v-23h-10q-80 0 -80 -90v-376zM325 843q0 35 25 59t60 24t60 -24 t25 -59t-25 -59t-60 -24t-60 24t-25 59zM355 843q0 -23 16 -39t39 -16t38.5 16t15.5 39t-15.5 38.5t-38.5 15.5t-39 -15.5t-16 -38.5z" />
<glyph unicode="&#x16f;" horiz-adv-x="590" d="M503 506v-408q0 -42 14 -58.5t47 -16.5h10v-23l-167 -14v115q-70 -115 -171 -115q-68 0 -108 41.5t-40 122.5v243q0 42 -14 59t-47 17h-11v23l168 14v-349q0 -51 24 -77.5t67 -26.5q74 0 132 85v255q0 42 -14.5 59t-47.5 17h-10v23zM183 617q0 35 25 59t60 24t60 -24 t25 -59t-24.5 -58.5t-60.5 -23.5t-60.5 23.5t-24.5 58.5zM214 617q0 -23 15.5 -38.5t38.5 -15.5t39 15.5t16 38.5t-16 39t-39 16t-38.5 -16t-15.5 -39z" />
<glyph unicode="&#x170;" horiz-adv-x="730" d="M218 228q0 -191 189 -191q89 0 135 51.5t46 147.5v368q0 90 -80 90h-10v23h215v-23h-11q-79 0 -79 -90v-371q0 -114 -62.5 -180.5t-174.5 -66.5q-123 0 -200.5 69.5t-77.5 209.5v339q0 90 -80 90h-11v23h291v-23h-10q-80 0 -80 -90v-376zM329 774l67 145q13 27 38 27 q14 0 24 -9.5t10 -23.5q0 -17 -14 -32l-99 -107h-26zM461 774l67 145q13 27 38 27q14 0 24 -9.5t10 -23.5q0 -17 -14 -32l-99 -107h-26z" />
<glyph unicode="&#x171;" horiz-adv-x="590" d="M503 506v-408q0 -42 14 -58.5t47 -16.5h10v-23l-167 -14v115q-70 -115 -171 -115q-68 0 -108 41.5t-40 122.5v243q0 42 -14 59t-47 17h-11v23l168 14v-349q0 -51 24 -77.5t67 -26.5q74 0 132 85v255q0 42 -14.5 59t-47.5 17h-10v23zM191 549l68 144q13 28 38 28 q14 0 24 -9.5t10 -23.5q0 -17 -15 -33l-98 -106h-27zM324 549l67 144q13 28 38 28q14 0 24 -9.5t10 -23.5q0 -18 -14 -33l-99 -106h-26z" />
<glyph unicode="&#x172;" horiz-adv-x="730" d="M218 228q0 -191 189 -191q89 0 135 51.5t46 147.5v368q0 90 -80 90h-10v23h215v-23h-11q-79 0 -79 -90v-371q0 -87 -35 -145.5t-100 -83.5q-40 -16 -61 -46t-21 -59t16 -47t44 -18q42 0 65 45l10 -4q-28 -78 -94 -78q-40 0 -66 26.5t-26 64.5q0 60 63 100q-20 -2 -32 -2 q-123 0 -200.5 69.5t-77.5 209.5v339q0 90 -80 90h-11v23h291v-23h-10q-80 0 -80 -90v-376z" />
<glyph unicode="&#x173;" horiz-adv-x="616" d="M503 506v-408q0 -42 14 -58.5t47 -16.5h10v-23l-44 -3q-65 -42 -65 -98q0 -29 16 -47t44 -18q43 0 66 45l9 -4q-28 -78 -93 -78q-40 0 -66 26.5t-26 64.5q0 65 70 105l-78 -7v115q-70 -115 -171 -115q-68 0 -108 41.5t-40 122.5v243q0 42 -14 59t-47 17h-11v23l168 14 v-349q0 -51 24 -77.5t67 -26.5q74 0 132 85v255q0 42 -14.5 59t-47.5 17h-10v23z" />
<glyph unicode="&#x174;" horiz-adv-x="1130" d="M1120 717v-23h-10q-84 0 -121 -103l-215 -605h-22l-179 467l-179 -467h-16l-230 579q-51 129 -128 129h-10v23h312v-23h-11q-65 0 -65 -56q0 -18 6 -34l173 -444l130 341l-31 81q-23 60 -41.5 86t-46.5 26h-7v23h272v-23h-24q-54 0 -54 -46q0 -16 6 -32l172 -449l151 422 q10 30 10 46q0 29 -18 44t-49 15h-10v23h235zM626 942l101 -154h-31l-111 98l-112 -98h-31l102 154h82z" />
<glyph unicode="&#x175;" horiz-adv-x="825" d="M811 492v-23h-10q-29 0 -48 -22.5t-42 -75.5l-161 -371h-14l-122 308l-133 -308h-15l-168 384q-20 43 -37 64t-39 21h-11v23h219v-23h-10q-29 0 -29 -28q0 -9 7 -25l113 -261l85 197l-28 73q-16 44 -50 44h-5v23h233v-23h-10q-54 0 -54 -46q0 -18 7 -36l92 -233l102 235 q9 19 9 36q0 20 -13 32t-36 12h-10v23h178zM478 717l102 -154h-31l-112 97l-111 -97h-31l101 154h82z" />
<glyph unicode="&#x176;" horiz-adv-x="724" d="M9 717h326v-23h-27q-30 0 -45.5 -14.5t-15.5 -37.5q0 -24 13 -45l148 -250l136 253q14 25 14 48q0 46 -53 46h-19v23h229v-23h-10q-35 0 -70 -28.5t-61 -78.5l-148 -278v-196q0 -90 80 -90h10v-23h-291v23h11q79 0 79 90v172l-180 305q-34 58 -57 81t-59 23h-10v23z M469 942l101 -154h-30l-112 98l-112 -98h-30l101 154h82z" />
<glyph unicode="&#x177;" horiz-adv-x="591" d="M351 145l101 253q6 17 6 28q0 43 -57 43h-10v23h183v-23h-10q-30 0 -48.5 -20t-34.5 -60l-187 -472q-28 -70 -59 -101t-81 -31q-33 0 -51.5 17.5t-18.5 41.5q0 22 14 38t39 16q22 0 42 -15t32 -15q20 0 33.5 19t27.5 55l26 63l-188 379q-23 44 -42 64.5t-43 20.5h-11v23 h281v-23h-13q-28 0 -43.5 -13.5t-15.5 -36.5q0 -18 11 -40zM394 717l102 -154h-31l-112 97l-111 -97h-31l101 154h82z" />
<glyph unicode="&#x178;" horiz-adv-x="723" d="M8 717h326v-23h-27q-30 0 -45.5 -14.5t-15.5 -37.5q0 -24 13 -45l148 -250l136 253q14 25 14 48q0 46 -53 46h-19v23h229v-23h-11q-35 0 -69 -28.5t-61 -78.5l-148 -278v-196q0 -90 80 -90h10v-23h-291v23h10q80 0 80 90v172l-180 305q-34 58 -57 81t-59 23h-10v23z M496 845q0 22 15.5 37.5t37.5 15.5q23 0 38 -15t15 -38t-15 -38t-38 -15q-22 0 -37.5 15.5t-15.5 37.5zM313 845q0 22 15.5 37.5t38.5 15.5q22 0 37.5 -15.5t15.5 -37.5t-15.5 -37.5t-37.5 -15.5q-23 0 -38.5 15.5t-15.5 37.5z" />
<glyph unicode="&#x179;" horiz-adv-x="602" d="M425 682h-195q-131 0 -162 -148h-18v183h509v-23l-389 -659h142q112 0 159 37t69 138h22v-210h-526v23zM255 774l68 145q13 27 37 27q14 0 24 -9.5t10 -23.5q0 -17 -14 -32l-98 -107h-27z" />
<glyph unicode="&#x17a;" horiz-adv-x="467" d="M305 467h-102q-68 0 -102.5 -27.5t-43.5 -93.5h-14v146h381v-25l-261 -442h100q64 0 101.5 24.5t51.5 93.5h16v-143h-399v25zM178 549l68 144q13 28 38 28q14 0 23.5 -9.5t9.5 -23.5q0 -18 -14 -33l-98 -106h-27z" />
<glyph unicode="&#x17b;" horiz-adv-x="602" d="M425 682h-195q-131 0 -162 -148h-18v183h509v-23l-389 -659h142q112 0 159 37t69 138h22v-210h-526v23zM238 863q0 28 19 47.5t47 19.5t47.5 -19.5t19.5 -47.5t-19.5 -47t-47.5 -19t-47 19t-19 47z" />
<glyph unicode="&#x17c;" horiz-adv-x="467" d="M305 467h-102q-68 0 -102.5 -27.5t-43.5 -93.5h-14v146h381v-25l-261 -442h100q64 0 101.5 24.5t51.5 93.5h16v-143h-399v25zM178 638q0 28 19.5 47.5t47.5 19.5t47 -19.5t19 -47.5t-19 -47.5t-47 -19.5t-47.5 19.5t-19.5 47.5z" />
<glyph unicode="&#x17d;" horiz-adv-x="602" d="M425 682h-195q-131 0 -162 -148h-18v183h509v-23l-389 -659h142q112 0 159 37t69 138h22v-210h-526v23zM462 942l-102 -154h-81l-102 154h31l111 -97l112 97h31z" />
<glyph unicode="&#x17e;" horiz-adv-x="467" d="M305 467h-102q-68 0 -102.5 -27.5t-43.5 -93.5h-14v146h381v-25l-261 -442h100q64 0 101.5 24.5t51.5 93.5h16v-143h-399v25zM381 717l-101 -154h-82l-102 154h31l112 -97l111 97h31z" />
<glyph unicode="&#x17f;" horiz-adv-x="267" d="M17 492h78v66q0 173 127 173q43 0 72.5 -24.5t29.5 -62.5q0 -25 -16 -40.5t-38 -15.5q-21 0 -35.5 14t-14.5 33q0 8 2.5 20t2.5 19q0 11 -7.5 18.5t-21.5 7.5q-20 0 -33 -13.5t-13 -38.5q0 -20 20.5 -62t20.5 -94v-394q0 -42 14 -58.5t48 -16.5h10v-23h-239v23h10 q33 0 47 16.5t14 58.5v369h-78v25z" />
<glyph unicode="&#x18e;" horiz-adv-x="582" d="M246 339q-52 0 -80.5 -33.5t-28.5 -89.5h-22v281h22q0 -56 28.5 -89.5t80.5 -33.5h120v236q0 43 -14.5 57.5t-47.5 14.5h-74q-86 0 -131 -35.5t-63 -121.5h-23l15 192h538v-23h-10q-80 0 -80 -90v-491q0 -90 80 -90h10v-23h-529v181h22q5 -77 39.5 -111.5t114.5 -34.5h91 q33 0 47.5 14t14.5 57v233h-120z" />
<glyph unicode="&#x18f;" horiz-adv-x="488" d="M230 -14q-87 0 -147 60t-60 156h324v16q0 99 -43.5 161.5t-116.5 62.5q-103 0 -142 -126l-15 5q12 84 66 134.5t132 50.5q104 0 169 -70t65 -182q0 -116 -68.5 -192t-163.5 -76zM119 171q0 -66 30 -110.5t83 -44.5q42 0 76 43t38 112h-227z" />
<glyph unicode="&#x192;" horiz-adv-x="418" d="M292 731q49 0 85 -28t36 -67q0 -24 -16.5 -40t-40.5 -16q-22 0 -36 14t-14 33q0 7 2.5 21t2.5 21q0 29 -41 29q-28 0 -47 -22t-19 -64q0 -32 5 -120h71v-25h-69q0 -6 3 -48t5 -97t2 -129q0 -115 -13 -191.5t-38 -111.5t-50 -47t-60 -12q-44 0 -76.5 25t-32.5 58 q0 23 12.5 37t34.5 14q21 0 35 -13t14 -33q0 -6 -2.5 -16t-2.5 -14q0 -27 37 -27q26 0 43 23.5t17 69.5q0 61 -9 202.5t-9 291.5v18h-66v25h66q15 239 171 239z" />
<glyph unicode="&#x1b5;" horiz-adv-x="589" d="M425 682h-195q-131 0 -162 -148h-18v183h509v-23l-182 -309h160v-35h-181l-186 -315h142q112 0 159 37t69 138h22v-210h-526v23l193 327h-175v35h196z" />
<glyph unicode="&#x1b6;" horiz-adv-x="462" d="M305 467h-102q-68 0 -102.5 -27.5t-43.5 -93.5h-14v146h381v-25l-118 -200h92v-24h-106l-129 -218h100q64 0 101.5 24.5t51.5 93.5h16v-143h-399v25l134 218h-98v24h113z" />
<glyph unicode="&#x1fa;" horiz-adv-x="798" d="M398 731l247 -581q54 -127 135 -127h11v-23h-323v23h10q27 0 46 15.5t19 37.5q0 19 -19 60l-37 82h-266l-35 -87q-9 -23 -9 -43q0 -29 18 -47t48 -18h10v-23h-245v23h10q39 0 77 36t63 97l230 575h10zM351 545l-115 -292h237zM310 843q0 35 25 59t60 24t60 -24t25 -59 t-25 -59t-60 -24t-60 24t-25 59zM341 843q0 -23 15.5 -39t38.5 -16t39 16t16 39t-16 38.5t-39 15.5t-38.5 -15.5t-15.5 -38.5zM344 948l68 145q13 27 38 27q14 0 23.5 -9.5t9.5 -23.5q0 -17 -14 -32l-98 -107h-27z" />
<glyph unicode="&#x1fb;" horiz-adv-x="508" d="M497 98q-4 -54 -29.5 -83t-65.5 -29q-33 0 -56 20.5t-30 60.5l-18 -19q-37 -37 -68.5 -49.5t-68.5 -12.5q-56 0 -94 35.5t-38 94.5q0 114 154 156l132 35v70q0 48 -23.5 73t-64.5 25q-37 0 -61 -17.5t-24 -43.5q0 -6 4.5 -19.5t4.5 -21.5q0 -22 -13.5 -36.5t-36.5 -14.5 q-21 0 -34 13.5t-13 35.5q0 21 8 37q22 43 71 70.5t108 27.5q171 0 171 -148v-255q0 -20 8.5 -31t22.5 -11q32 0 40 41zM315 97v186l-73 -28q-117 -44 -117 -125q0 -36 21.5 -61t61.5 -25q50 0 86 33zM160 617q0 35 25 59t60 24t60 -24t25 -59t-24.5 -58.5t-60.5 -23.5 t-60.5 23.5t-24.5 58.5zM190 617q0 -23 16 -38.5t39 -15.5t38.5 15.5t15.5 38.5t-15.5 39t-38.5 16t-39 -16t-16 -39zM194 723l67 144q13 28 38 28q14 0 24 -9.5t10 -23.5q0 -17 -15 -33l-98 -106h-26z" />
<glyph unicode="&#x1fc;" horiz-adv-x="994" d="M981 191l-14 -191h-539v23h10q80 0 80 90v105h-268l-41 -63q-23 -37 -23 -67q0 -29 18 -47t48 -18h10v-23h-254v23h6q70 0 153 133l276 440q15 26 15 44q0 24 -18.5 39t-50.5 15h-22v23h590v-181h-22q-5 77 -39.5 111.5t-114.5 34.5h-91q-33 0 -47 -14.5t-14 -57.5v-232 h120q53 0 80.5 33.5t27.5 89.5h23v-281h-23q0 56 -27.5 89.5t-80.5 33.5h-120v-237q0 -43 14 -57t47 -14h74q86 0 131 35t63 121h23zM518 253v395l-248 -395h248zM637 774l68 145q13 27 37 27q14 0 24 -9.5t10 -23.5q0 -17 -14 -32l-98 -107h-27z" />
<glyph unicode="&#x1fd;" horiz-adv-x="768" d="M365 549l67 144q13 28 38 28q14 0 24 -9.5t10 -23.5q0 -17 -15 -33l-98 -106h-26zM315 97v186l-73 -28q-117 -44 -117 -125q0 -36 21.5 -61t61.5 -25q50 0 86 33zM647 321q0 66 -30 110t-83 44q-43 0 -76.5 -42.5t-37.5 -111.5h227zM346 85h-12l-36 -37 q-37 -37 -68.5 -49.5t-68.5 -12.5q-56 0 -94 35.5t-38 94.5q0 114 154 156l132 35v70q0 48 -23.5 73t-64.5 25q-37 0 -61 -17.5t-24 -43.5q0 -6 4.5 -19.5t4.5 -21.5q0 -22 -13.5 -36.5t-36.5 -14.5q-21 0 -34 13.5t-13 35.5q0 21 8 37q22 43 71 70.5t108 27.5 q107 0 148 -60q63 60 147 60q87 0 147 -60t60 -156h-324v-17q0 -99 43.5 -161.5t116.5 -62.5q103 0 142 126l15 -4q-12 -84 -66 -134.5t-132 -50.5q-126 0 -192 99z" />
<glyph unicode="&#x2c6;" horiz-adv-x="350" d="M216 717l101 -154h-30l-112 97l-112 -97h-30l101 154h82z" />
<glyph unicode="&#x2c7;" horiz-adv-x="350" d="M317 717l-101 -154h-82l-101 154h30l112 -97l112 97h30z" />
<glyph unicode="&#x2d8;" horiz-adv-x="253" d="M219 668q0 -45 -24 -76.5t-68 -31.5t-68 31.5t-24 76.5h19q17 -62 73 -62t73 62h19z" />
<glyph unicode="&#x2d9;" horiz-adv-x="256" d="M61 638q0 28 19.5 47.5t47.5 19.5t47.5 -19.5t19.5 -47.5t-19.5 -47.5t-47.5 -19.5t-47.5 19.5t-19.5 47.5z" />
<glyph unicode="&#x2da;" horiz-adv-x="272" d="M51 617q0 35 25 59t60 24t60 -24t25 -59t-24.5 -58.5t-60.5 -23.5t-60.5 23.5t-24.5 58.5zM82 617q0 -23 15.5 -38.5t38.5 -15.5t38.5 15.5t15.5 38.5t-15.5 39t-38.5 16t-38.5 -16t-15.5 -39z" />
<glyph unicode="&#x2db;" horiz-adv-x="253" d="M160 0q-72 -43 -72 -101q0 -29 16 -47t44 -18q43 0 66 45l9 -4q-28 -78 -93 -78q-40 0 -66 26.5t-26 64.5q0 39 28 70.5t81 50.5z" />
<glyph unicode="&#x2dc;" horiz-adv-x="375" d="M31 569q1 50 27 81t70 31q30 0 73 -25.5t66 -25.5q49 0 60 51h18q-1 -50 -27 -81t-70 -31q-30 0 -73 26t-66 26q-49 0 -60 -52h-18z" />
<glyph unicode="&#x2dd;" horiz-adv-x="373" d="M51 549l68 144q13 28 38 28q14 0 23.5 -9.5t9.5 -23.5q0 -18 -14 -33l-98 -106h-27zM183 549l68 144q13 28 38 28q14 0 24 -9.5t10 -23.5q0 -17 -15 -33l-98 -106h-27z" />
<glyph unicode="&#x3c0;" horiz-adv-x="654" d="M45 492h566v-79h-123v-323q0 -24 11.5 -38t31.5 -14q46 0 59 87l17 -3q-6 -136 -109 -136q-45 0 -75.5 34t-30.5 96v297h-151v-193q0 -75 -11.5 -120.5t-47.5 -85.5q-25 -28 -55 -28q-21 0 -33.5 13t-12.5 31q0 23 17 36q10 7 40.5 8t44.5 17q27 31 27 151v171h-47 q-84 0 -93 -92h-25v171z" />
<glyph unicode="&#x2000;" horiz-adv-x="560" />
<glyph unicode="&#x2001;" horiz-adv-x="1120" />
<glyph unicode="&#x2002;" horiz-adv-x="560" />
<glyph unicode="&#x2003;" horiz-adv-x="1120" />
<glyph unicode="&#x2004;" horiz-adv-x="373" />
<glyph unicode="&#x2005;" horiz-adv-x="280" />
<glyph unicode="&#x2006;" horiz-adv-x="186" />
<glyph unicode="&#x2007;" horiz-adv-x="186" />
<glyph unicode="&#x2008;" horiz-adv-x="140" />
<glyph unicode="&#x2009;" horiz-adv-x="224" />
<glyph unicode="&#x200a;" horiz-adv-x="62" />
<glyph unicode="&#x2010;" horiz-adv-x="379" d="M15 285v34h350v-34h-350z" />
<glyph unicode="&#x2011;" horiz-adv-x="379" d="M15 285v34h350v-34h-350z" />
<glyph unicode="&#x2012;" horiz-adv-x="379" d="M15 285v34h350v-34h-350z" />
<glyph unicode="&#x2013;" horiz-adv-x="584" d="M15 285v34h554v-34h-554z" />
<glyph unicode="&#x2014;" horiz-adv-x="881" d="M15 285v34h851v-34h-851z" />
<glyph unicode="&#x2018;" horiz-adv-x="189" d="M97 446q-37 0 -57 26t-20 65q0 64 41 117t105 72l7 -15q-107 -46 -111 -143q14 7 37 7q27 0 45.5 -17.5t18.5 -44.5q0 -28 -18 -47.5t-48 -19.5z" />
<glyph unicode="&#x2019;" horiz-adv-x="189" d="M92 731q37 0 57 -25.5t20 -64.5q0 -64 -40.5 -117t-104.5 -72l-8 15q107 46 111 142q-14 -7 -37 -7q-26 0 -44.5 18t-18.5 45q0 28 17.5 47t47.5 19z" />
<glyph unicode="&#x201a;" horiz-adv-x="189" d="M92 122q37 0 57 -25.5t20 -64.5q0 -64 -40.5 -117.5t-104.5 -72.5l-8 16q107 46 111 142q-14 -7 -37 -7q-27 0 -45 17.5t-18 44.5q0 28 17.5 47.5t47.5 19.5z" />
<glyph unicode="&#x201c;" horiz-adv-x="374" d="M283 446q-37 0 -57 26t-20 65q0 64 40.5 117t104.5 72l7 -15q-106 -45 -110 -143q14 7 37 7q27 0 45 -17.5t18 -44.5q0 -28 -17.5 -47.5t-47.5 -19.5zM97 446q-37 0 -57 26t-20 65q0 64 41 117t105 72l7 -15q-107 -46 -111 -143q14 7 37 7q27 0 45.5 -17.5t18.5 -44.5 q0 -28 -18 -47.5t-48 -19.5z" />
<glyph unicode="&#x201d;" horiz-adv-x="374" d="M92 726q37 0 57 -25.5t20 -64.5q0 -64 -40.5 -117.5t-104.5 -72.5l-8 16q107 46 111 142q-14 -7 -37 -7q-27 0 -45 17.5t-18 44.5q0 28 17.5 47.5t47.5 19.5zM278 726q37 0 56.5 -25.5t19.5 -64.5q0 -64 -40.5 -117.5t-104.5 -72.5l-7 16q106 45 110 142q-14 -7 -37 -7 q-27 0 -45 17.5t-18 44.5q0 28 18 47.5t48 19.5z" />
<glyph unicode="&#x201e;" horiz-adv-x="374" d="M92 122q37 0 57 -25.5t20 -64.5q0 -64 -40.5 -117.5t-104.5 -72.5l-8 16q107 46 111 142q-14 -7 -37 -7q-27 0 -45 17.5t-18 44.5q0 28 17.5 47.5t47.5 19.5zM278 122q37 0 56.5 -25.5t19.5 -64.5q0 -64 -40.5 -117.5t-104.5 -72.5l-7 16q106 45 110 142q-14 -7 -37 -7 q-27 0 -45 17.5t-18 44.5q0 28 18 47.5t48 19.5z" />
<glyph unicode="&#x2020;" horiz-adv-x="378" d="M189 731q22 0 37 -14t15 -37q0 -18 -20.5 -64.5t-20.5 -83.5q27 0 63.5 20t51.5 20q21 0 36.5 -13.5t15.5 -36.5t-15.5 -36.5t-36.5 -13.5q-15 0 -51.5 20t-63.5 20q1 -34 3.5 -52.5t14.5 -43.5t35 -44v-12q-29 -62 -38.5 -139.5t-13.5 -302.5h-23q-4 225 -13.5 302.5 t-38.5 139.5v12q23 19 35 44t14.5 43.5t3.5 52.5q-26 0 -63.5 -20t-52.5 -20q-21 0 -36 13.5t-15 36.5t15 36.5t36 13.5q15 0 52.5 -20t63.5 -20q0 37 -20.5 83.5t-20.5 64.5q0 22 14.5 36.5t36.5 14.5z" />
<glyph unicode="&#x2021;" horiz-adv-x="378" d="M116 321q26 25 40.5 61t17.5 61t5 69q-26 0 -63.5 -20t-52.5 -20q-21 0 -36 13.5t-15 36.5t15 36.5t36 13.5q15 0 52.5 -20t63.5 -20q0 37 -20.5 83.5t-20.5 64.5q0 22 14.5 36.5t36.5 14.5t37 -14t15 -37q0 -18 -20.5 -64.5t-20.5 -83.5q27 0 63.5 20t51.5 20 q21 0 36.5 -13.5t15.5 -36.5t-15.5 -36.5t-36.5 -13.5q-15 0 -51.5 20t-63.5 20q2 -44 5 -69t17.5 -61t40.5 -61v-13q-26 -25 -40.5 -61t-17.5 -61t-5 -69q27 0 63.5 20t51.5 20q21 0 36.5 -14t15.5 -37t-15.5 -36.5t-36.5 -13.5q-15 0 -51.5 20t-63.5 20q0 -37 20.5 -83 t20.5 -64q0 -23 -15 -37t-37 -14t-36.5 14.5t-14.5 36.5q0 18 20.5 64t20.5 83q-26 0 -63.5 -20t-52.5 -20q-21 0 -36 13.5t-15 36.5t15 37t36 14q15 0 52.5 -20t63.5 -20q-2 44 -5 69t-17.5 61t-40.5 61v13z" />
<glyph unicode="&#x2022;" horiz-adv-x="210" d="M20 328q0 34 25 59.5t60 25.5t60 -25.5t25 -59.5t-25 -59.5t-60 -25.5t-60 25.5t-25 59.5z" />
<glyph unicode="&#x2026;" horiz-adv-x="540" d="M23 53q0 26 17 43t42 17t42 -17t17 -43q0 -25 -16.5 -42t-42.5 -17t-42.5 17t-16.5 42zM198 53q0 26 17 43t42 17t42 -17t17 -43q0 -25 -17 -42t-42 -17t-42 17t-17 42zM373 53q0 26 17 43t42 17q26 0 43 -17.5t17 -42.5t-17 -42t-43 -17t-42.5 17t-16.5 42z" />
<glyph unicode="&#x202f;" horiz-adv-x="224" />
<glyph unicode="&#x2030;" horiz-adv-x="1250" d="M20 508q0 96 60 159.5t162 63.5q72 0 119 -43.5t47 -114.5q0 -96 -63.5 -163t-151.5 -67q-78 0 -125.5 47t-47.5 118zM236 707q-64 0 -98.5 -67.5t-34.5 -154.5q0 -53 23.5 -85t64.5 -32q58 0 96 65t38 157q0 58 -24.5 87.5t-64.5 29.5zM606 717l28 -20l-417 -697l-28 19 zM413 151q0 96 59.5 159.5t161.5 63.5q72 0 119 -43.5t47 -114.5q0 -96 -63.5 -163t-151.5 -67q-78 0 -125 47t-47 118zM628 349q-64 0 -98 -67t-34 -154q0 -53 23.5 -85.5t64.5 -32.5q58 0 95.5 65t37.5 157q0 58 -24.5 87.5t-64.5 29.5zM843 151q0 96 59.5 159.5 t161.5 63.5q72 0 119 -43.5t47 -114.5q0 -96 -63.5 -163t-151.5 -67q-78 0 -125 47t-47 118zM1058 349q-64 0 -98 -67t-34 -154q0 -53 23.5 -85.5t64.5 -32.5q58 0 95.5 65t37.5 157q0 58 -24.5 87.5t-64.5 29.5z" />
<glyph unicode="&#x2039;" horiz-adv-x="202" d="M10 330l164 158l16 -15l-105 -156l105 -155l-16 -16l-164 159v25z" />
<glyph unicode="&#x203a;" horiz-adv-x="202" d="M29 488l164 -158v-25l-164 -159l-17 16l106 155l-106 156z" />
<glyph unicode="&#x2044;" horiz-adv-x="492" d="M20 22l417 695l35 -22l-417 -695z" />
<glyph unicode="&#x2059;" horiz-adv-x="702" d="M516 76q0 35 23.5 58.5t58.5 23.5t58.5 -23.5t23.5 -58.5t-23.5 -58.5t-58.5 -23.5t-58.5 23.5t-23.5 58.5zM516 641q0 35 23.5 58.5t58.5 23.5t58.5 -23.5t23.5 -58.5t-23.5 -58.5t-58.5 -23.5t-58.5 23.5t-23.5 58.5zM23 76q0 35 23 58.5t58 23.5t58.5 -23.5 t23.5 -58.5t-23.5 -58.5t-58.5 -23.5t-58 23.5t-23 58.5zM23 641q0 35 23 58.5t58 23.5t58.5 -23.5t23.5 -58.5t-23.5 -58.5t-58.5 -23.5t-58 23.5t-23 58.5zM269 358q0 35 23.5 58.5t58.5 23.5t58.5 -23.5t23.5 -58.5t-23.5 -58.5t-58.5 -23.5t-58.5 23.5t-23.5 58.5z" />
<glyph unicode="&#x205f;" horiz-adv-x="280" />
<glyph unicode="&#x2070;" horiz-adv-x="366" d="M183 731q62 0 102.5 -51t40.5 -138t-40.5 -138.5t-102.5 -51.5t-102 51.5t-40 138.5t40 138t102 51zM263 542q0 80 -21 123.5t-59 43.5t-59 -43.5t-21 -123.5t21 -123.5t59 -43.5t59 43.5t21 123.5z" />
<glyph unicode="&#x2074;" horiz-adv-x="313" d="M273 475v-20h-45v-39q0 -45 41 -45h5v-13h-147v13h5q41 0 41 45v39h-145v19l185 257h15v-256h45zM173 641l-120 -166h120v166z" />
<glyph unicode="&#x2075;" horiz-adv-x="310" d="M241 717l-7 -51h-151l-7 -66q28 10 56 10q55 0 91 -33.5t36 -90.5t-39 -95.5t-93 -38.5q-32 0 -60 13t-28 38q0 13 8.5 21t20.5 8q25 0 31 -34q5 -28 38 -28q30 0 50.5 24.5t20.5 63.5q0 48 -26.5 72.5t-67.5 24.5q-33 0 -61 -14l-3 3l20 173h171z" />
<glyph unicode="&#x2076;" horiz-adv-x="311" d="M252 731v-13q-64 -6 -103.5 -54t-53.5 -115q34 40 83 40q42 0 71.5 -31t29.5 -79q0 -57 -34.5 -92t-85.5 -35q-58 0 -94 41.5t-36 113.5q0 92 63 158t154 66h6zM92 527q-2 -12 -2 -35q0 -50 18.5 -86t53.5 -36q24 0 41.5 24.5t17.5 66.5q0 46 -18.5 73.5t-49.5 27.5 q-36 0 -61 -35z" />
<glyph unicode="&#x2077;" horiz-adv-x="266" d="M25 717h228v-7q-62 -67 -78 -133.5t-16 -188.5q0 -14 -9 -22t-20 -8t-20 8t-9 22q0 70 32 153t65 126h-96q-30 0 -45 -11.5t-21 -43.5h-11v105z" />
<glyph unicode="&#x2078;" horiz-adv-x="303" d="M147 731q41 0 69 -20t28 -55q0 -46 -60 -87q84 -44 84 -114q0 -47 -35.5 -75t-78.5 -28q-51 0 -85 26t-34 67q0 60 63 100q-53 39 -53 92q0 38 30.5 66t71.5 28zM117 534q-34 -33 -34 -81q0 -35 19.5 -58.5t51.5 -23.5q27 0 44 17.5t17 45.5q0 26 -21.5 47t-76.5 53z M147 713q-27 0 -42 -13.5t-15 -37.5q0 -43 76 -82q38 34 38 77q0 22 -15.5 39t-41.5 17z" />
<glyph unicode="&#x2079;" horiz-adv-x="311" d="M59 352v14q66 6 105 53.5t52 115.5q-34 -40 -83 -40q-42 0 -71 30.5t-29 78.5q0 58 34.5 92.5t85.5 34.5q58 0 94 -41t36 -113q0 -92 -63 -158.5t-154 -66.5h-7zM219 556q2 12 2 36q0 51 -18 86.5t-53 35.5q-24 0 -42 -24.5t-18 -66.5q0 -46 19 -74t50 -28q35 0 60 35z " />
<glyph unicode="&#x2080;" horiz-adv-x="366" d="M183 139q62 0 102.5 -51t40.5 -138t-40.5 -138.5t-102.5 -51.5t-102 51.5t-40 138.5t40 138t102 51zM263 -50q0 80 -21 123.5t-59 43.5t-59 -43.5t-21 -123.5t21 -123.5t59 -43.5t59 43.5t21 123.5z" />
<glyph unicode="&#x2081;" horiz-adv-x="249" d="M97 51q0 26 -9.5 36t-30.5 10h-4v12l91 26h6v-311q0 -45 39 -45h6v-12h-144v12h5q41 0 41 45v227z" />
<glyph unicode="&#x2082;" horiz-adv-x="314" d="M102 -190h78q32 0 49 12t24 44h12l-9 -99h-214v7q159 147 159 246q0 72 -62 72q-27 0 -49.5 -16t-32.5 -41l-8 3q11 43 40 72t73 29q43 0 70 -25t27 -69q0 -53 -36.5 -105t-120.5 -130z" />
<glyph unicode="&#x2083;" horiz-adv-x="311" d="M145 -240q-44 0 -69 14t-25 36q0 12 8.5 21t21.5 9q25 0 38 -33q12 -26 37 -26t43 21.5t18 57.5q0 40 -28.5 63.5t-68.5 23.5v9q35 10 55 32.5t20 51.5q0 28 -16.5 45t-45.5 17q-25 0 -45 -16t-27 -43l-8 2q5 41 33.5 67.5t68.5 26.5t64 -20t24 -53q0 -53 -50 -85 q31 -11 53 -36.5t22 -61.5q0 -55 -36 -89t-87 -34z" />
<glyph unicode="&#x2084;" horiz-adv-x="313" d="M273 -117v-20h-45v-39q0 -45 41 -45h5v-12h-147v12h5q41 0 41 45v39h-145v19l185 257h15v-256h45zM173 49l-120 -166h120v166z" />
<glyph unicode="&#x2085;" horiz-adv-x="310" d="M241 125l-7 -51h-151l-7 -66q28 10 56 10q55 0 91 -33t36 -90q0 -58 -39 -96.5t-93 -38.5q-32 0 -60 13.5t-28 38.5q0 12 8.5 20t20.5 8q25 0 31 -34q5 -28 38 -28q30 0 50.5 24.5t20.5 63.5q0 48 -26.5 72.5t-67.5 24.5q-33 0 -61 -14l-3 3l20 173h171z" />
<glyph unicode="&#x2086;" horiz-adv-x="311" d="M252 139v-13q-64 -6 -103.5 -54t-53.5 -115q34 40 83 40q42 0 71.5 -31t29.5 -79q0 -57 -34.5 -92t-85.5 -35q-58 0 -94 41.5t-36 113.5q0 92 63 158t154 66h6zM92 -65q-2 -12 -2 -35q0 -50 18.5 -86t53.5 -36q24 0 41.5 24.5t17.5 66.5q0 46 -18.5 73.5t-49.5 27.5 q-36 0 -61 -35z" />
<glyph unicode="&#x2087;" horiz-adv-x="266" d="M25 125h228v-7q-62 -67 -78 -133.5t-16 -188.5q0 -13 -9 -21t-20 -8t-20 8t-9 21q0 70 32 153t65 126h-96q-30 0 -45 -11.5t-21 -43.5h-11v105z" />
<glyph unicode="&#x2088;" horiz-adv-x="303" d="M147 139q41 0 69 -19.5t28 -54.5q0 -47 -60 -88q84 -44 84 -114q0 -47 -35.5 -75t-78.5 -28q-51 0 -85 26.5t-34 67.5q0 59 63 99q-53 39 -53 92q0 38 30.5 66t71.5 28zM117 -58q-34 -33 -34 -81q0 -35 19.5 -58.5t51.5 -23.5q27 0 44 17.5t17 45.5q0 26 -21.5 47 t-76.5 53zM147 121q-27 0 -42 -13.5t-15 -37.5q0 -43 76 -82q38 34 38 78q0 22 -15.5 38.5t-41.5 16.5z" />
<glyph unicode="&#x2089;" horiz-adv-x="311" d="M59 -240v14q66 6 105 53.5t52 115.5q-34 -40 -83 -40q-42 0 -71 30.5t-29 78.5q0 58 34.5 92.5t85.5 34.5q58 0 94 -41t36 -113q0 -92 -63 -158.5t-154 -66.5h-7zM219 -36q2 12 2 36q0 51 -18 86.5t-53 35.5q-24 0 -42 -24.5t-18 -66.5q0 -46 19 -74t50 -28q35 0 60 35z " />
<glyph unicode="&#x20ac;" horiz-adv-x="668" d="M396 731q64 0 149 -46q18 -9 29 -9q27 0 27 34v7h24v-231h-24q-14 100 -68 155t-125 55q-180 0 -203 -254h241l-15 -34h-229q-1 -16 -1 -50t1 -49h226l-15 -35h-208q25 -239 196 -239q78 0 138.5 52.5t87.5 166.5l21 -8q-22 -125 -93.5 -192.5t-167.5 -67.5 q-109 0 -198 76t-112 212h-85l15 35h65q-2 30 -2 49q0 18 2 50h-62l16 34h51q25 135 118 212t201 77z" />
<glyph unicode="&#x2122;" horiz-adv-x="846" d="M814 717v-11h-5q-40 0 -40 -46v-245q0 -45 40 -45h5v-12h-145v12h5q40 0 40 45v257l-141 -314h-8l-130 314v-257q0 -45 40 -45h5v-12h-109v12h5q38 0 38 45v245q0 46 -38 46h-5v11h110l109 -267l120 267h104zM331 717v-91h-10q-8 72 -72 72h-20q-18 0 -18 -19v-264 q0 -45 40 -45h5v-12h-145v12h5q40 0 40 45v264q0 19 -19 19h-19q-64 0 -72 -72h-10v91h295z" />
<glyph unicode="&#x2126;" horiz-adv-x="739" d="M205 72h58q-37 29 -70.5 62.5t-73 82t-63 106t-23.5 114.5q0 129 90 211.5t247 82.5t247 -82.5t90 -211.5q0 -46 -17 -94t-41 -86t-58 -76t-60.5 -62t-54.5 -47h59q126 0 155 122h23l-30 -194h-286v20q114 119 151 214t37 210q0 126 -62.5 189t-152.5 63t-152.5 -63 t-62.5 -189q0 -116 36.5 -210.5t150.5 -213.5v-20h-286l-29 194h22q29 -122 156 -122z" />
<glyph unicode="&#x2153;" horiz-adv-x="658" d="M115 22l416 695l35 -22l-416 -695zM97 643q0 26 -9.5 36t-30.5 10h-4v11l91 27h6v-311q0 -45 39 -45h6v-13h-144v13h5q41 0 41 45v227zM488 -14q-44 0 -69 13.5t-25 35.5q0 12 8.5 21.5t21.5 9.5q25 0 38 -33q12 -27 37 -27t43 21.5t18 57.5q0 40 -28.5 63.5t-68.5 23.5 v9q35 10 55 32.5t20 51.5t-17 46t-45 17q-25 0 -45 -16.5t-27 -43.5l-8 2q5 41 33.5 68t68.5 27t64 -20.5t24 -53.5q0 -53 -50 -85q31 -11 53 -36t22 -61q0 -55 -36 -89t-87 -34z" />
<glyph unicode="&#x2154;" horiz-adv-x="697" d="M102 401h78q32 0 49 12.5t24 44.5h12l-9 -100h-214v8q159 147 159 246q0 72 -62 72q-27 0 -49.5 -16t-32.5 -41l-8 3q11 43 40 72t73 29q43 0 70 -25t27 -69q0 -53 -36.5 -105.5t-120.5 -130.5zM154 22l416 695l35 -22l-417 -695zM527 -14q-44 0 -69 13.5t-25 35.5 q0 12 8.5 21.5t21.5 9.5q25 0 38 -33q12 -27 37 -27t43 21.5t18 57.5q0 40 -28.5 63.5t-68.5 23.5v9q35 10 55 32.5t20 51.5t-17 46t-45 17q-25 0 -45 -16.5t-27 -43.5l-8 2q5 41 33.5 68t68.5 27t64 -20.5t24 -53.5q0 -27 -15.5 -49.5t-35.5 -35.5q31 -11 53.5 -36 t22.5 -61q0 -55 -36 -89t-87 -34z" />
<glyph unicode="&#x215b;" horiz-adv-x="674" d="M115 22l416 695l35 -22l-416 -695zM97 643q0 26 -9.5 36t-30.5 10h-4v11l91 27h6v-311q0 -45 39 -45h6v-13h-144v13h5q41 0 41 45v227zM509 365q41 0 68.5 -20t27.5 -55q0 -47 -59 -87q84 -44 84 -115q0 -46 -35.5 -74t-79.5 -28q-51 0 -85 26t-34 67q0 58 64 99 q-53 39 -53 92q0 38 30.5 66.5t71.5 28.5zM478 167q-34 -33 -34 -81q0 -35 19.5 -58.5t51.5 -23.5q27 0 44.5 18t17.5 46q0 26 -21.5 46t-77.5 53zM509 346q-27 0 -42 -13.5t-15 -37.5q0 -44 75 -82q38 34 38 78q0 22 -15 38.5t-41 16.5z" />
<glyph unicode="&#x215c;" horiz-adv-x="707" d="M542 365q41 0 68.5 -20t27.5 -55q0 -47 -59 -87q84 -44 84 -115q0 -46 -35.5 -74t-79.5 -28q-51 0 -85 26t-34 67q0 58 64 99q-54 40 -54 92q0 38 31 66.5t72 28.5zM511 167q-34 -33 -34 -81q0 -35 19.5 -58.5t51.5 -23.5q26 0 43.5 18t17.5 46q0 26 -21 46t-77 53z M542 346q-27 0 -42.5 -13.5t-15.5 -37.5q0 -43 76 -82q38 34 38 78q0 22 -15 38.5t-41 16.5zM145 352q-44 0 -69 13.5t-25 35.5q0 12 8.5 21.5t21.5 9.5q25 0 38 -33q12 -26 37 -26t43 21.5t18 57.5q0 40 -28.5 63.5t-68.5 23.5v9q35 10 55 32.5t20 51.5q0 28 -16.5 45 t-45.5 17q-25 0 -45 -16t-27 -43l-8 2q5 41 33.5 67.5t68.5 26.5t64 -20.5t24 -53.5q0 -53 -50 -85q31 -11 53 -36t22 -61q0 -55 -36 -89t-87 -34zM147 22l417 695l35 -22l-417 -695z" />
<glyph unicode="&#x215d;" horiz-adv-x="694" d="M528 365q41 0 69 -20t28 -55q0 -46 -60 -87q84 -44 84 -115q0 -46 -35 -74t-79 -28q-51 0 -85 26t-34 67q0 59 63 99q-53 39 -53 92q0 38 30.5 66.5t71.5 28.5zM498 167q-34 -33 -34 -81q0 -35 19.5 -58.5t51.5 -23.5q26 0 43.5 18t17.5 46q0 26 -21 46t-77 53zM528 346 q-27 0 -42 -13.5t-15 -37.5q0 -43 76 -82q38 34 38 78q0 22 -15.5 38.5t-41.5 16.5zM134 22l417 695l35 -22l-417 -695zM260 717l-6 -51h-152l-7 -66q28 10 57 10q55 0 91 -33.5t36 -90.5t-39.5 -95.5t-93.5 -38.5q-32 0 -60 13t-28 38q0 13 8.5 21t20.5 8q26 0 32 -34 q5 -28 38 -28q30 0 50 24.5t20 63.5q0 48 -26.5 72.5t-67.5 24.5q-32 0 -60 -14l-3 3l19 173h171z" />
<glyph unicode="&#x215e;" horiz-adv-x="666" d="M501 365q41 0 68.5 -20t27.5 -55q0 -47 -59 -87q84 -44 84 -115q0 -46 -35.5 -74t-79.5 -28q-51 0 -85 26t-34 67q0 58 64 99q-54 40 -54 92q0 38 31 66.5t72 28.5zM470 167q-34 -33 -34 -81q0 -35 19.5 -58.5t51.5 -23.5q26 0 43.5 18t17.5 46q0 26 -21 46t-77 53z M501 346q-27 0 -42.5 -13.5t-15.5 -37.5q0 -43 76 -82q38 34 38 78q0 22 -15 38.5t-41 16.5zM106 22l417 695l35 -22l-417 -695zM35 717h228v-7q-62 -67 -78 -133.5t-16 -188.5q0 -14 -9 -22t-20 -8t-19.5 8t-8.5 22q0 70 31.5 153t64.5 126h-95q-31 0 -46 -11.5t-21 -43.5 h-11v105z" />
<glyph unicode="&#x2160;" horiz-adv-x="299" d="M205 113q0 -47 14.5 -68.5t52.5 -21.5h11v-23h-267v23h11q38 0 52.5 21.5t14.5 68.5v491q0 47 -14.5 68.5t-52.5 21.5h-11v23h267v-23h-11q-38 0 -52.5 -21.5t-14.5 -68.5v-491z" />
<glyph unicode="&#x2161;" horiz-adv-x="564" d="M538 694q-38 0 -53 -21.5t-15 -68.5v-491q0 -47 15 -68.5t53 -21.5h10v-23h-532v23h11q38 0 52.5 21.5t14.5 68.5v491q0 47 -14.5 68.5t-52.5 21.5h-11v23h532v-23h-10zM359 604q0 47 -14.5 68.5t-52.5 21.5h-20q-38 0 -52.5 -21.5t-14.5 -68.5v-491q0 -47 14.5 -68.5 t52.5 -21.5h20q38 0 52.5 21.5t14.5 68.5v491z" />
<glyph unicode="&#x2162;" horiz-adv-x="829" d="M359 604q0 47 -14.5 68.5t-52.5 21.5h-20q-38 0 -52.5 -21.5t-14.5 -68.5v-491q0 -47 14.5 -68.5t52.5 -21.5h20q38 0 52.5 21.5t14.5 68.5v491zM803 694q-38 0 -53 -21.5t-15 -68.5v-491q0 -47 15 -68.5t53 -21.5h10v-23h-797v23h11q38 0 52.5 21.5t14.5 68.5v491 q0 47 -14.5 68.5t-52.5 21.5h-11v23h797v-23h-10zM625 604q0 47 -15 68.5t-53 21.5h-19q-38 0 -53 -21.5t-15 -68.5v-491q0 -47 15 -68.5t53 -21.5h19q38 0 53 21.5t15 68.5v491z" />
<glyph unicode="&#x2163;" horiz-adv-x="1019" d="M1010 717v-23h-11q-90 0 -138 -133l-210 -575h-10l-230 589q-26 66 -51.5 92.5t-69.5 26.5h-18q-38 0 -52.5 -21.5t-14.5 -68.5v-491q0 -47 14.5 -68.5t52.5 -21.5h11v-23h-267v23h11q38 0 52.5 21.5t14.5 68.5v491q0 47 -14.5 68.5t-52.5 21.5h-11v23h573v-23h-17 q-29 0 -44 -14.5t-15 -38.5q0 -14 16 -54l157 -403l147 402q9 23 9 43q0 65 -66 65h-10v23h244z" />
<glyph unicode="&#x2164;" horiz-adv-x="752" d="M740 717v-23h-10q-90 0 -138 -133l-210 -575h-10l-231 589q-26 66 -51.5 92.5t-69.5 26.5h-10v23h309v-23h-16q-29 0 -44 -14.5t-15 -38.5q0 -14 16 -54l157 -403l146 402q9 23 9 43q0 65 -65 65h-10v23h243z" />
<glyph unicode="&#x2165;" horiz-adv-x="1020" d="M1004 717v-23h-11q-38 0 -52.5 -21.5t-14.5 -68.5v-491q0 -47 14.5 -68.5t52.5 -21.5h11v-23h-267v23h11q38 0 52.5 21.5t14.5 68.5v491q0 47 -14.5 68.5t-52.5 21.5h-18q-90 0 -138 -133l-210 -575h-10l-231 589q-26 66 -51.5 92.5t-69.5 26.5h-10v23h309v-23h-16 q-29 0 -44 -14.5t-15 -38.5q0 -14 16 -54l157 -403l146 402q9 23 9 43q0 65 -65 65h-10v23h507z" />
<glyph unicode="&#x2166;" horiz-adv-x="1284" d="M730 694q-90 0 -138 -133l-210 -575h-10l-231 589q-26 66 -51.5 92.5t-69.5 26.5h-10v23h309v-23h-16q-29 0 -44 -14.5t-15 -38.5q0 -14 16 -54l157 -403l146 402q9 23 9 43q0 65 -65 65h-10v23h771v-23h-11q-38 0 -52.5 -21.5t-14.5 -68.5v-491q0 -47 14.5 -68.5 t52.5 -21.5h11v-23h-531v23h11q38 0 52.5 21.5t14.5 68.5v491q0 47 -14.5 68.5t-52.5 21.5h-18zM1079 604q0 47 -14.5 68.5t-52.5 21.5h-19q-38 0 -52.5 -21.5t-14.5 -68.5v-491q0 -47 14.5 -68.5t52.5 -21.5h19q38 0 52.5 21.5t14.5 68.5v491z" />
<glyph unicode="&#x2167;" horiz-adv-x="1547" d="M1531 717v-23h-10q-38 0 -53 -21.5t-15 -68.5v-491q0 -47 15 -68.5t53 -21.5h10v-23h-794v23h11q38 0 52.5 21.5t14.5 68.5v491q0 47 -14.5 68.5t-52.5 21.5h-18q-90 0 -138 -133l-210 -575h-10l-231 589q-26 66 -51.5 92.5t-69.5 26.5h-10v23h309v-23h-16 q-29 0 -44 -14.5t-15 -38.5q0 -14 16 -54l157 -403l146 402q9 23 9 43q0 65 -65 65h-10v23h1034zM1079 604q0 47 -14.5 68.5t-52.5 21.5h-19q-38 0 -52.5 -21.5t-14.5 -68.5v-491q0 -47 14.5 -68.5t52.5 -21.5h19q38 0 52.5 21.5t14.5 68.5v491zM1342 604q0 47 -14.5 68.5 t-52.5 21.5h-18q-38 0 -52.5 -21.5t-14.5 -68.5v-491q0 -47 14.5 -68.5t52.5 -21.5h18q38 0 52.5 21.5t14.5 68.5v491z" />
<glyph unicode="&#x2168;" horiz-adv-x="1021" d="M975 717v-23h-10q-36 0 -64 -26.5t-73 -89.5l-127 -178l170 -264q37 -58 66 -85.5t65 -27.5h11v-23h-338v23h10q33 0 52.5 15.5t19.5 41.5q0 25 -19 54l-113 183l-131 -183q-27 -37 -27 -55q0 -25 16.5 -40.5t46.5 -15.5h11v-23h-525v23h11q38 0 52.5 21.5t14.5 68.5v491 q0 47 -14.5 68.5t-52.5 21.5h-11v23h621v-23h-15q-28 0 -44 -14t-16 -37q0 -19 16 -46l103 -167l117 163q21 29 21 46q0 24 -15 39.5t-43 15.5h-10v23h224zM341 694h-69q-38 0 -52.5 -21.5t-14.5 -68.5v-491q0 -47 14.5 -68.5t52.5 -21.5h23q79 0 163 119l147 205l-156 246 q-36 57 -58.5 79t-49.5 22z" />
<glyph unicode="&#x2169;" horiz-adv-x="737" d="M256 0h-246v23h10q39 0 74 28.5t79 90.5l148 205l-157 246q-36 57 -58 79t-50 22h-20v23h316v-23h-15q-28 0 -43.5 -14t-15.5 -37q0 -21 15 -46l103 -167l117 163q22 30 22 46q0 24 -15.5 39.5t-43.5 15.5h-10v23h224v-23h-10q-36 0 -63.5 -26t-72.5 -90l-127 -178 l170 -264q37 -58 66 -85.5t65 -27.5h10v-23h-338v23h10q33 0 52.5 15.5t19.5 41.5t-18 54l-114 183l-131 -183q-27 -37 -27 -55q0 -25 17 -40.5t47 -15.5h10v-23z" />
<glyph unicode="&#x216a;" horiz-adv-x="1088" d="M981 694q-38 0 -53 -21.5t-15 -68.5v-491q0 -47 15 -68.5t53 -21.5h10v-23h-601v23h10q33 0 52.5 15.5t19.5 41.5t-18 54l-114 183l-131 -183q-27 -37 -27 -55q0 -25 17 -40.5t47 -15.5h10v-23h-246v23h10q39 0 74 28.5t79 90.5l148 205l-157 246q-36 57 -58 79t-50 22 h-20v23h316v-23h-15q-28 0 -43.5 -14t-15.5 -37q0 -21 15 -46l103 -167l117 163q22 30 22 46q0 24 -15.5 39.5t-43.5 15.5h-10v23h525v-23h-10zM803 604q0 47 -15 68.5t-53 21.5h-55q-36 0 -63.5 -26t-72.5 -90l-127 -178l170 -264q37 -58 66 -85.5t65 -27.5h17 q38 0 53 21.5t15 68.5v491z" />
<glyph unicode="&#x216b;" horiz-adv-x="1268" d="M1242 694q-38 0 -52.5 -21.5t-14.5 -68.5v-491q0 -47 14.5 -68.5t52.5 -21.5h10v-23h-862v23h10q33 0 52.5 15.5t19.5 41.5t-18 54l-114 183l-131 -183q-27 -37 -27 -55q0 -25 17 -40.5t47 -15.5h10v-23h-246v23h10q39 0 74 28.5t79 90.5l148 205l-157 246q-36 57 -58 79 t-50 22h-20v23h316v-23h-15q-28 0 -43.5 -14t-15.5 -37q0 -21 15 -46l103 -167l117 163q22 30 22 46q0 24 -15.5 39.5t-43.5 15.5h-10v23h786v-23h-10zM803 604q0 47 -15 68.5t-53 21.5h-55q-36 0 -63.5 -26t-72.5 -90l-127 -178l170 -264q37 -58 66 -85.5t65 -27.5h17 q38 0 53 21.5t15 68.5v491zM1064 604q0 47 -15 68.5t-53 21.5h-15q-38 0 -53 -21.5t-15 -68.5v-491q0 -47 15 -68.5t53 -21.5h15q38 0 53 21.5t15 68.5v491z" />
<glyph unicode="&#x216c;" horiz-adv-x="580" d="M207 106q0 -43 14 -57t47 -14h73q87 0 127 38.5t64 140.5h24l-14 -214h-526v23h11q38 0 53.5 21.5t15.5 68.5v491q0 47 -15.5 68.5t-53.5 21.5h-11v23h271v-23h-11q-38 0 -53.5 -21.5t-15.5 -68.5v-498z" />
<glyph unicode="&#x216d;" horiz-adv-x="638" d="M372 731q16 0 28.5 -1t25.5 -4t20 -4.5t20 -7.5t17 -8t19 -10.5t19 -10.5q18 -9 30 -9q27 0 27 34v7h23v-244h-23q-44 223 -204 223q-108 0 -160 -91t-52 -247q0 -157 56.5 -240t166.5 -83q81 0 134 53t88 164l20 -7q-60 -259 -267 -259q-62 0 -119.5 24t-105 69.5 t-76 118t-28.5 160.5t31 161t81 118t109.5 69.5t119.5 24.5z" />
<glyph unicode="&#x216e;" horiz-adv-x="706" d="M27 23h10q38 0 53.5 21.5t15.5 68.5v491q0 47 -15.5 68.5t-53.5 21.5h-10v23h276q75 0 140.5 -21t118 -63.5t83.5 -113t31 -161.5t-31 -161.5t-83.5 -112.5t-118 -63t-140.5 -21h-276v23zM279 682q-33 0 -47.5 -14.5t-14.5 -57.5v-504q0 -43 14.5 -57t47.5 -14h26 q119 0 181 87.5t62 235.5t-62 236t-181 88h-26z" />
<glyph unicode="&#x216f;" horiz-adv-x="852" d="M837 717v-23h-11q-38 0 -53.5 -21.5t-15.5 -68.5v-491q0 -47 15.5 -68.5t53.5 -21.5h11v-23h-271v23h11q38 0 53.5 21.5t15.5 68.5v513l-260 -626h-16l-239 626v-513q0 -46 16 -68t54 -22h10v-23h-195v23h11q38 0 53.5 21.5t15.5 68.5v491q0 47 -15.5 68.5t-53.5 21.5 h-11v23h200l203 -535l225 535h193z" />
<glyph unicode="&#x2170;" horiz-adv-x="253" d="M60 638q0 28 19.5 47.5t47.5 19.5t47.5 -19.5t19.5 -47.5t-19.5 -47.5t-47.5 -19.5t-47.5 19.5t-19.5 47.5zM175 98q0 -44 9.5 -59.5t41.5 -15.5h11v-23h-220v23h11q32 0 41.5 15.5t9.5 59.5v298q0 43 -12 58t-39 15h-11v23l158 14v-408z" />
<glyph unicode="&#x2171;" horiz-adv-x="471" d="M127 571q-28 0 -47.5 19.5t-19.5 47.5t19.5 47.5t47.5 19.5t47.5 -19.5t19.5 -47.5t-19.5 -47.5t-47.5 -19.5zM344 571q-28 0 -47 19.5t-19 47.5t19 47.5t47 19.5t47.5 -19.5t19.5 -47.5t-19.5 -47.5t-47.5 -19.5zM454 23v-23h-437v23h11q32 0 41.5 15.5t9.5 59.5v298 q0 43 -12 58t-39 15h-11v23l158 14v-408q0 -44 9.5 -59.5t41.5 -15.5h19q32 0 41.5 15.5t9.5 59.5v298q0 43 -12 58t-39 15h-11v23l158 14v-408q0 -44 9.5 -59.5t41.5 -15.5h11z" />
<glyph unicode="&#x2172;" horiz-adv-x="688" d="M127 571q-28 0 -47.5 19.5t-19.5 47.5t19.5 47.5t47.5 19.5t47.5 -19.5t19.5 -47.5t-19.5 -47.5t-47.5 -19.5zM344 571q-28 0 -47 19.5t-19 47.5t19 47.5t47 19.5t47.5 -19.5t19.5 -47.5t-19.5 -47.5t-47.5 -19.5zM561 571q-28 0 -47 19.5t-19 47.5t19 47.5t47 19.5 t47.5 -19.5t19.5 -47.5t-19.5 -47.5t-47.5 -19.5zM671 23v-23h-654v23h11q32 0 41.5 15.5t9.5 59.5v298q0 43 -12 58t-39 15h-11v23l158 14v-408q0 -44 9.5 -59.5t41.5 -15.5h19q32 0 41.5 15.5t9.5 59.5v298q0 43 -12 58t-39 15h-11v23l158 14v-408q0 -44 9.5 -59.5 t41.5 -15.5h19q32 0 41.5 15.5t9.5 59.5v298q0 43 -12 58t-39 15h-10v23l157 14v-408q0 -44 9.5 -59.5t41.5 -15.5h11z" />
<glyph unicode="&#x2173;" horiz-adv-x="782" d="M767 492v-23h-10q-57 0 -91 -87l-145 -382h-17l-181 400q-31 69 -76 69h-10v23h275v-23h-20q-53 0 -53 -44q0 -11 12 -39l96 -233l89 236q12 31 12 46q0 34 -43 34h-10v23h172zM175 506v-408q0 -44 9.5 -59.5t41.5 -15.5h11v-23h-220v23h11q32 0 41.5 15.5t9.5 59.5v298 q0 43 -12 58t-39 15h-11v23zM127 705q28 0 47.5 -19.5t19.5 -47.5t-19.5 -47.5t-47.5 -19.5t-47.5 19.5t-19.5 47.5t19.5 47.5t47.5 19.5z" />
<glyph unicode="&#x2174;" horiz-adv-x="559" d="M544 492v-23h-10q-58 0 -92 -87l-144 -382h-17l-182 400q-31 69 -75 69h-11v23h276v-23h-21q-52 0 -52 -44q0 -13 11 -39l97 -233l89 236q12 31 12 46q0 34 -43 34h-10v23h172z" />
<glyph unicode="&#x2175;" horiz-adv-x="779" d="M700 506v-408q0 -44 10 -59.5t42 -15.5h10v-23h-219v23h10q32 0 41.5 15.5t9.5 59.5v298q0 43 -12 58t-39 15h-19q-58 0 -92 -87l-144 -382h-17l-182 400q-31 69 -75 69h-11v23h276v-23h-21q-52 0 -52 -44q0 -13 11 -39l97 -233l89 236q12 31 12 46q0 34 -43 34h-10v23 h171zM652 705q28 0 47.5 -19.5t19.5 -47.5t-19.5 -47.5t-47.5 -19.5t-47 19.5t-19 47.5t19 47.5t47 19.5z" />
<glyph unicode="&#x2176;" horiz-adv-x="997" d="M652 705q28 0 47.5 -19.5t19.5 -47.5t-19.5 -47.5t-47.5 -19.5t-47 19.5t-19 47.5t19 47.5t47 19.5zM870 571q-28 0 -47 19.5t-19 47.5t19 47.5t47 19.5t47.5 -19.5t19.5 -47.5t-19.5 -47.5t-47.5 -19.5zM980 23v-23h-437v23h10q32 0 41.5 15.5t9.5 59.5v298q0 43 -12 58 t-39 15h-19q-58 0 -92 -87l-144 -382h-17l-182 400q-31 69 -75 69h-11v23h276v-23h-21q-52 0 -52 -44q0 -13 11 -39l97 -233l89 236q12 31 12 46q0 34 -43 34h-10v23h171l157 14v-408q0 -44 10 -59.5t42 -15.5h19q32 0 41.5 15.5t9.5 59.5v298q0 43 -12 58t-39 15h-10v23 l158 14v-408q0 -44 9.5 -59.5t41.5 -15.5h10z" />
<glyph unicode="&#x2177;" horiz-adv-x="1213" d="M652 705q28 0 47.5 -19.5t19.5 -47.5t-19.5 -47.5t-47.5 -19.5t-47 19.5t-19 47.5t19 47.5t47 19.5zM869 571q-28 0 -47 19.5t-19 47.5t19 47.5t47 19.5t47.5 -19.5t19.5 -47.5t-19.5 -47.5t-47.5 -19.5zM1086 571q-28 0 -47 19.5t-19 47.5t19 47.5t47 19.5t47.5 -19.5 t19.5 -47.5t-19.5 -47.5t-47.5 -19.5zM1196 23v-23h-653v23h10q32 0 41.5 15.5t9.5 59.5v298q0 43 -12 58t-39 15h-19q-58 0 -92 -87l-144 -382h-17l-182 400q-31 69 -75 69h-11v23h276v-23h-21q-52 0 -52 -44q0 -13 11 -39l97 -233l89 236q12 31 12 46q0 34 -43 34h-10v23 h171l157 14v-408q0 -44 10 -59.5t42 -15.5h18q32 0 41.5 15.5t9.5 59.5v298q0 43 -12 58t-39 15h-10v23l158 14v-408q0 -44 9.5 -59.5t41.5 -15.5h18q32 0 41.5 15.5t9.5 59.5v298q0 43 -12 58t-39 15h-10v23l158 14v-408q0 -44 9.5 -59.5t41.5 -15.5h10z" />
<glyph unicode="&#x2178;" horiz-adv-x="836" d="M175 506v-408q0 -44 9.5 -59.5t41.5 -15.5h27q26 0 50 13t37.5 27t40.5 45l100 116l-135 185q-27 36 -43 48t-39 12v23h247v-23h-13q-15 0 -24.5 -9.5t-9.5 -23.5q0 -15 11 -29l75 -105l92 108q13 16 13 30q0 29 -37 29h-10v23h185v-23h-11q-29 0 -54.5 -19t-61.5 -61 l-97 -113l127 -168q33 -43 58 -64t52 -21h10v-23h-286v23h11q44 0 44 39q0 18 -16 40l-68 98l-80 -92q-14 -15 -14 -38q0 -20 12.5 -33.5t32.5 -13.5h10v-23h-445v23h11q32 0 41.5 15.5t9.5 59.5v298q0 43 -12 58t-39 15h-11v23zM140 705q28 0 47.5 -19.5t19.5 -47.5 t-19.5 -47.5t-47.5 -19.5t-47 19.5t-19 47.5t19 47.5t47 19.5z" />
<glyph unicode="&#x2179;" horiz-adv-x="611" d="M22 0v23h6q33 0 62 21t66 64l100 116l-135 185q-27 36 -43 48t-39 12v23h247v-23h-14q-15 0 -24 -9.5t-9 -23.5q0 -15 11 -29l75 -105l92 108q13 16 13 30q0 29 -37 29h-10v23h184v-23h-10q-30 0 -55.5 -19.5t-61.5 -60.5l-96 -113l127 -168q33 -43 58 -64t52 -21h10v-23 h-286v23h10q44 0 44 39q0 19 -15 40l-69 98l-79 -92q-15 -16 -15 -38q0 -20 12.5 -33.5t32.5 -13.5h11v-23h-215z" />
<glyph unicode="&#x217a;" horiz-adv-x="826" d="M697 705q28 0 47.5 -19.5t19.5 -47.5t-19.5 -47.5t-47.5 -19.5t-47 19.5t-19 47.5t19 47.5t47 19.5zM809 23v-23h-504v23h10q44 0 44 39q0 19 -15 40l-69 98l-79 -92q-15 -16 -15 -38q0 -20 12.5 -33.5t32.5 -13.5h11v-23h-215v23h6q33 0 62 21t66 64l100 116l-135 185 q-27 36 -43 48t-39 12v23h247v-23h-14q-15 0 -24 -9.5t-9 -23.5q0 -15 11 -29l75 -105l92 108q13 16 13 30q0 29 -37 29h-10v23h207l158 14v-408q0 -44 9.5 -59.5t41.5 -15.5h10zM651 396q0 43 -12 58t-39 15h-43q-30 0 -55.5 -19.5t-61.5 -60.5l-96 -113l127 -168 q33 -43 58 -64t52 -21h19q32 0 41.5 15.5t9.5 59.5v298z" />
<glyph unicode="&#x217b;" horiz-adv-x="1043" d="M697 571q-28 0 -47 19.5t-19 47.5t19 47.5t47 19.5t47.5 -19.5t19.5 -47.5t-19.5 -47.5t-47.5 -19.5zM916 571q-28 0 -47 19.5t-19 47.5t19 47.5t47 19.5t47.5 -19.5t19.5 -47.5t-19.5 -47.5t-47.5 -19.5zM1026 23v-23h-721v23h10q44 0 44 39q0 19 -15 40l-69 98l-79 -92 q-15 -16 -15 -38q0 -20 12.5 -33.5t32.5 -13.5h11v-23h-215v23h6q33 0 62 21t66 64l100 116l-135 185q-27 36 -43 48t-39 12v23h247v-23h-14q-15 0 -24 -9.5t-9 -23.5q0 -15 11 -29l75 -105l92 108q13 16 13 30q0 29 -37 29h-10v23h207l158 14v-408q0 -44 9.5 -59.5 t41.5 -15.5h18q32 0 41.5 15.5t9.5 59.5v298q0 43 -12 58t-39 15h-10v23l158 14v-408q0 -44 9.5 -59.5t41.5 -15.5h10zM651 396q0 43 -12 58t-39 15h-43q-30 0 -55.5 -19.5t-61.5 -60.5l-96 -113l127 -168q33 -43 58 -64t52 -21h19q32 0 41.5 15.5t9.5 59.5v298z" />
<glyph unicode="&#x217c;" horiz-adv-x="253" d="M175 98q0 -44 9.5 -59.5t41.5 -15.5h11v-23h-220v23h11q32 0 41.5 15.5t9.5 59.5v524q0 45 -9 58.5t-42 13.5h-11v23l158 14v-633z" />
<glyph unicode="&#x217d;" horiz-adv-x="468" d="M438 389q0 -26 -17 -42.5t-40 -16.5q-25 0 -39 16t-14 42q0 7 2.5 21.5t2.5 20.5q0 15 -9 26q-16 22 -55 22q-50 0 -93 -54.5t-43 -137.5q0 -99 45.5 -165t126.5 -66q89 0 127 109l17 -6q-18 -79 -64.5 -125.5t-120.5 -46.5q-102 0 -169.5 69.5t-67.5 182.5 q0 119 75 193.5t173 74.5q74 0 118.5 -35t44.5 -82z" />
<glyph unicode="&#x217e;" horiz-adv-x="534" d="M456 731v-633q0 -44 9.5 -59.5t41.5 -15.5h10v-23h-158v58q-47 -72 -136 -72q-83 0 -139.5 67.5t-56.5 173.5q0 121 62.5 200t157.5 79q68 0 112 -36v152q0 43 -12 57.5t-39 14.5h-10v23zM257 473q-47 0 -87.5 -59t-40.5 -154q0 -99 37.5 -157.5t97.5 -58.5q63 0 95 47 v265q0 117 -102 117z" />
<glyph unicode="&#x217f;" horiz-adv-x="854" d="M206 395q72 111 169 111q53 0 85.5 -29t37.5 -84q68 113 167 113q129 0 129 -139v-269q0 -45 8.5 -60t39.5 -15h10v-23h-216v23h10q32 0 41.5 15.5t9.5 59.5v237q0 53 -19 77.5t-61 24.5q-67 0 -117 -82v-257q0 -44 9.5 -59.5t41.5 -15.5h10v-23h-219v23h10 q32 0 41.5 15.5t9.5 59.5v237q0 53 -19 77.5t-63 24.5q-65 0 -115 -82v-257q0 -44 9.5 -59.5t41.5 -15.5h10v-23h-219v23h10q32 0 42 15.5t10 59.5v295q0 44 -10 60t-42 16h-10v23l158 14v-111z" />
<glyph unicode="&#x2202;" horiz-adv-x="594" d="M437 414q3 25 3 49q0 102 -44 168.5t-106 66.5q-40 0 -56 -34q-12 -26 -22 -37t-29 -11q-20 0 -32.5 11t-12.5 29q0 28 31.5 51.5t96.5 23.5q139 0 208 -99.5t69 -266.5q0 -89 -34 -174.5t-101.5 -145t-150.5 -59.5q-104 0 -163.5 67t-59.5 177q0 66 28 128t87.5 105 t136.5 43q107 0 151 -92zM305 475q-72 0 -116.5 -87t-44.5 -192q0 -84 29 -132t82 -48q75 0 123.5 82t48.5 192q0 91 -35 138t-87 47z" />
<glyph unicode="&#x2206;" horiz-adv-x="680" d="M63 35h466l-254 520zM10 0l300 731h5l356 -731h-661z" />
<glyph unicode="&#x220f;" horiz-adv-x="747" d="M217 626v-646q0 -91 80 -91h10v-22h-291v22h11q79 0 79 91v624q0 90 -79 90h-11v23h715v-23h-10q-80 0 -80 -90v-624q0 -91 80 -91h10v-22h-291v22h11q79 0 79 91v646q0 32 -11.5 44t-40.5 12h-209q-29 0 -40.5 -12t-11.5 -44z" />
<glyph unicode="&#x2211;" horiz-adv-x="614" d="M174 682l197 -297l-293 -350h254q114 0 163 38.5t64 136.5h23v-210h-557v23l253 305l-243 366v23h530v-183h-17q-13 78 -52.5 113t-110.5 35h-211z" />
<glyph unicode="&#x2212;" horiz-adv-x="442" d="M15 326v34h412v-34h-412z" />
<glyph unicode="&#x221a;" horiz-adv-x="579" d="M518 717h43l-267 -717h-35l-133 340h-111v35h146l115 -307z" />
<glyph unicode="&#x221e;" horiz-adv-x="757" d="M189 519q88 0 159 -124q38 72 82 104.5t101 32.5q87 0 133.5 -54t46.5 -131q0 -85 -46 -140t-118 -55q-93 0 -161 100q-64 -97 -174 -97q-72 0 -118.5 56t-46.5 131q0 74 40 125.5t102 51.5zM581 454q-51 0 -85.5 -37.5t-92.5 -135.5q62 -57 137 -57q62 0 101.5 34 t39.5 86q0 54 -26 82t-74 28zM175 226q52 0 87 32.5t73 108.5q-69 90 -151 90q-50 0 -78.5 -33.5t-28.5 -82.5t26 -82t72 -33z" />
<glyph unicode="&#x222b;" horiz-adv-x="439" d="M312 731q49 0 85 -28t36 -67q0 -24 -16 -40t-40 -16q-23 0 -36.5 14t-13.5 33q0 7 2.5 21t2.5 21q0 29 -41 29q-28 0 -47.5 -22t-19.5 -64q0 -50 9 -181t9 -238q0 -115 -13 -191.5t-38 -111.5t-50 -47t-60 -12q-44 0 -77 25t-33 58q0 23 12.5 37t34.5 14q21 0 35.5 -13 t14.5 -33q0 -6 -3 -16t-3 -14q0 -27 37 -27q27 0 44 23.5t17 69.5q0 61 -9.5 202.5t-9.5 291.5q0 282 171 282z" />
<glyph unicode="&#x2248;" horiz-adv-x="394" d="M20 190q1 48 28.5 80.5t79.5 32.5q37 0 86.5 -25.5t76.5 -25.5q25 0 41 14.5t21 36.5h21q-1 -51 -28 -82t-80 -31q-37 0 -86.5 26t-76.5 26q-25 0 -41 -15t-21 -37h-21zM20 354q1 48 28.5 80.5t79.5 32.5q37 0 86.5 -25.5t76.5 -25.5q25 0 41 14.5t21 36.5h21 q-1 -51 -28 -82t-80 -31q-37 0 -86.5 26t-76.5 26q-25 0 -41 -15t-21 -37h-21z" />
<glyph unicode="&#x2260;" horiz-adv-x="442" d="M15 428v35h238l54 117h43l-54 -117h131v-35h-147l-74 -160h221v-35h-238l-54 -116h-43l54 116h-131v35h148l74 160h-222z" />
<glyph unicode="&#x2264;" horiz-adv-x="442" d="M80 331v53l284 218v-51l-246 -194l246 -193v-51zM15 0v35h412v-35h-412z" />
<glyph unicode="&#x2265;" horiz-adv-x="442" d="M364 384v-53l-284 -218v51l246 193l-246 194v51zM15 0v35h412v-35h-412z" />
<glyph unicode="&#x25ca;" horiz-adv-x="523" d="M238 0l-226 358l226 359h48l225 -359l-225 -358h-48zM60 358l201 -321l202 321l-202 322z" />
<glyph unicode="&#x25fc;" horiz-adv-x="491" d="M0 492h492v-492h-492v492z" />
<glyph unicode="&#x270b;" horiz-adv-x="776" d="M208 288h18q-14 75 -43.5 188t-34.5 133q-2 11 -2 22q0 31 20 49t50 18q46 0 59 -45q7 -23 61 -238q0 68 -11 266q-2 34 17 53.5t48 19.5t48.5 -15.5t20.5 -47.5q4 -101 2 -277q16 112 37 238q4 29 22 44.5t43 15.5q31 0 50.5 -21t14.5 -58q-3 -26 -15.5 -91.5 t-22.5 -117.5l-11 -53q29 52 58 146q14 45 55 45q25 0 41 -18t12 -48q-15 -113 -42.5 -203t-70 -160.5t-104 -108.5t-137.5 -38q-120 0 -216 87t-134 196q-10 28 -10 47q0 32 19.5 51.5t49.5 19.5q22 0 40.5 -12t27.5 -23.5t22.5 -34.5t17.5 -29zM367 217q7 -10 7 -15 q0 -13 -13 -13q-6 0 -15 10q-42 45 -114 45q-3 0 -7.5 -0.5t-9.5 -0.5q-16 0 -32 10q-14 10 -33 46.5t-35 44.5q-6 3 -15 3q-12 0 -20.5 -8.5t-8.5 -22.5q0 -12 7 -31q43 -109 122.5 -184.5t192.5 -75.5q71 0 127.5 41.5t92.5 113t58.5 148.5t35.5 168q2 13 -3 20.5t-13 7.5 q-12 0 -19 -20q-5 -14 -14.5 -40t-13 -35t-10 -25.5t-13 -28.5t-14.5 -25q-14 -23 -35 -23q-15 0 -24 12t-5 33q11 57 27 156.5t18 111.5q2 14 -6.5 23t-19.5 9q-18 0 -23 -21q-10 -49 -23 -134.5t-19 -113.5q-7 -33 -39 -33q-14 0 -24.5 10.5t-10.5 28.5q0 146 -4 278 q-1 29 -30 29q-26 0 -27 -33q6 -144 6 -277q0 -18 -9.5 -28t-23.5 -10q-28 0 -34 28q-37 173 -58 240q-8 24 -31 24q-11 0 -19.5 -7.5t-8.5 -20.5q0 -4 2 -14q2 -9 24 -86t34.5 -133t20.5 -115q65 -15 102 -67zM341 322q16 5 46 5q54 0 100 -25.5t67 -70.5q2 -5 2 -8 q0 -12 -11 -12q-7 0 -11 7q-20 31 -70 54t-98 23q-17 0 -22 -1q-17 0 -17 12t14 16z" />
<glyph unicode="&#x270c;" horiz-adv-x="535" d="M33 249q0 140 104 194q-30 153 -34 226q1 42 21.5 64t52.5 22q28 0 48.5 -18.5t22.5 -52.5q2 -30 4 -71t3.5 -66.5t3.5 -45.5q55 130 87 190q21 40 64 40q30 0 50 -17.5t20 -44.5q0 -22 -11 -44q-25 -55 -110 -218q0 -10 -1 -14q22 10 42 10q29 0 45.5 -15.5t16.5 -43.5 q0 -40 -30 -72h7q27 0 44 -17.5t17 -49.5q0 -90 -68 -154.5t-168 -64.5q-75 0 -129.5 41.5t-78 99.5t-23.5 122zM294 185q-18 0 -32 9q-6 -48 -39 -110q-4 -7 -10 -7q-11 0 -8 14q24 75 24 119q0 42 -17 68.5t-60 46.5q-11 5 -11 13q0 12 13 12q4 0 9 -2q31 -13 69 -13 q37 0 61.5 13.5t24.5 40.5q0 20 -20.5 32t-55.5 12q-73 0 -121 -48.5t-48 -147.5q0 -76 50.5 -145.5t141.5 -69.5q89 0 144.5 54t55.5 122q0 46 -39 46q-27 0 -56.5 -31.5t-29.5 -61.5q0 -11 7.5 -18.5t18.5 -7.5q33 0 57 50q3 5 6 5q7 0 5 -9q-8 -36 -29 -57t-48 -21 q-23 0 -38.5 15t-15.5 37q0 27 11 42q-7 -2 -20 -2zM226 468q-3 28 -18 209q-3 40 -34 40q-14 0 -22.5 -12.5t-7.5 -35.5q4 -83 27 -211q26 9 55 10zM334 443q62 115 97 199q6 14 6 26q0 10 -7.5 17t-18.5 7q-18 0 -29 -20q-55 -94 -97 -209q25 -5 49 -20zM395 371 q-30 0 -69 -33q-59 -50 -59 -84q0 -17 9 -26t22 -9q34 0 80.5 41t46.5 77q0 34 -30 34zM226 309q13 -9 19 -20q4 9 12 19q-7 -1 -12 -1q-7 0 -19 2z" />
<glyph unicode="&#x2b1f;" horiz-adv-x="794" d="M630 0h-466l-144 443l377 274l377 -274z" />
<glyph unicode="&#x2b20;" horiz-adv-x="794" d="M630 0h-466l-144 443l377 274l377 -274zM223 82h347l110 337l-283 203l-283 -204z" />
<glyph unicode="&#xf8ff;" horiz-adv-x="696" d="M651 632v-609q0 -9 -6.5 -16t-15.5 -7q-3 0 -7 1l-274 79l-273 -79q-4 -1 -7 -1q-9 0 -16 7t-7 16v609q0 17 16 22l277 80q6 2 10 2t10 -2l277 -80q16 -5 16 -22zM326 375v310l-236 -69q6 -96 73.5 -164.5t162.5 -76.5zM371 685v-310q95 8 162 76.5t73 164.5zM89 474 v-422l237 69v209q-74 6 -137 44.5t-100 99.5zM607 52v422q-38 -61 -100 -99.5t-136 -44.5v-209z" />
<glyph unicode="&#x1d364;" horiz-adv-x="1046" d="M666 717v-245l116 57v188h84v-146l123 62l35 -68l-158 -79v-486h-84v444l-116 -57v-387h-84v345l-117 -58v-287h-84v245l-117 -59v-186h-84v144l-123 -60l-34 68l157 77v488h84v-446l117 59v387h84v-345l117 58v287h84z" />
<glyph d="M312 731q118 0 197 -103t79 -270t-78.5 -269.5t-197.5 -102.5q-118 0 -196.5 102.5t-78.5 269.5t78.5 270t196.5 103zM471 358q0 159 -41.5 245.5t-117.5 86.5t-117 -86.5t-41 -245.5t41 -245t117 -86t117.5 86.5t41.5 244.5z" />
<glyph d="M261 562q0 49 -19.5 69.5t-60.5 20.5h-10v23l180 52h14v-614q0 -90 79 -90h11v-23h-284v23h10q80 0 80 90v449z" />
<glyph d="M338 731q89 0 138.5 -49t49.5 -138q0 -109 -74.5 -213.5t-248.5 -256.5h164q64 0 96 24t47 87h22l-17 -185h-412v14q176 162 251.5 278.5t75.5 212.5q0 64 -39.5 100t-97.5 36q-55 0 -97.5 -32.5t-64.5 -84.5l-15 5q21 85 79.5 143.5t142.5 58.5z" />
<glyph d="M287 -14q-85 0 -135 29t-50 71q0 22 15.5 36.5t37.5 14.5q45 0 70 -63q23 -56 82 -56q52 0 90 43.5t38 118.5q0 47 -18 80.5t-48.5 51t-63 25t-68.5 7.5v14q151 60 151 185q0 55 -31.5 85t-84.5 30q-48 0 -87.5 -28.5t-56.5 -82.5l-16 5q9 77 66 128t130 51 q77 0 123.5 -40t46.5 -105q0 -53 -30.5 -97t-70.5 -71q68 -23 109.5 -70.5t41.5 -119.5q0 -102 -71.5 -172t-169.5 -70z" />
<glyph d="M555 229v-32h-89v-84q0 -90 80 -90h10v-23h-284v23h11q79 0 79 90v84h-287v30l360 504h31v-502h89zM121 229h241v335z" />
<glyph d="M504 717l-12 -94h-307l-15 -137q58 20 120 20q108 0 178 -68t70 -183q0 -116 -74 -192.5t-171 -76.5q-45 0 -86 10t-71.5 34.5t-30.5 58.5q0 23 15 38t37 15q49 0 63 -63q14 -61 80 -61q62 0 107 49.5t45 129.5q0 98 -60 150t-146 52q-63 0 -115 -25l-7 5l41 338h339z " />
<glyph d="M505 731v-22q-140 -11 -219.5 -105t-101.5 -232q68 79 174 79q84 0 142.5 -61t58.5 -156q0 -112 -69 -180t-168 -68q-116 0 -186 80.5t-70 223.5q0 181 124.5 311t306.5 130h8zM178 335q-5 -29 -5 -76q0 -99 41.5 -171t115.5 -72q54 0 90.5 49.5t36.5 133.5 q0 91 -40.5 149t-106.5 58q-73 0 -132 -71z" />
<glyph d="M551 717v-15q-54 -58 -90 -117.5t-57 -112.5t-31.5 -125.5t-13 -132.5t-2.5 -156q0 -28 -15.5 -43t-38.5 -15t-37.5 15t-14.5 43q0 148 68 319t138 254h-209q-62 0 -92 -23t-42 -87h-21v196h458z" />
<glyph d="M369 412q95 -50 133.5 -100t38.5 -125q0 -92 -68.5 -146.5t-157.5 -54.5q-99 0 -165 51t-66 133q0 60 33 105.5t101 86.5q-112 81 -112 184q0 76 57.5 130.5t141.5 54.5q81 0 134 -39.5t53 -107.5q0 -90 -123 -172zM250 344q-70 -65 -70 -165q0 -66 36 -113.5t100 -47.5 q57 0 90.5 36t33.5 93q0 51 -41 92t-149 105zM338 427q81 67 81 159q0 46 -32 79t-83 33t-83 -28t-32 -75q0 -93 149 -168z" />
<glyph horiz-adv-x="602" d="M108 -14v22q73 4 131 33.5t95 78t60 104t35 121.5q-32 -39 -79.5 -59t-95.5 -20q-84 0 -142.5 60.5t-58.5 155.5q0 112 69.5 180.5t168.5 68.5q116 0 186 -80.5t70 -223.5q0 -181 -124.5 -311t-306.5 -130h-8zM434 382q5 29 5 76q0 99 -41 170.5t-115 71.5 q-54 0 -90.5 -49t-36.5 -133q0 -91 40 -149t106 -58q73 0 132 71z" />
<glyph horiz-adv-x="593" d="M297 555q107 0 184 -79t77 -206q0 -126 -77 -205t-184 -79t-184 79t-77 205q0 127 77 206t184 79zM447 270q0 131 -40.5 191.5t-109.5 60.5t-110 -60.5t-41 -191.5t41 -191.5t110 -60.5t109.5 60.5t40.5 191.5z" />
<glyph horiz-adv-x="309" d="M106 380q0 49 -19 69.5t-60 20.5h-11v23l173 52h14v-432q0 -90 80 -90h10v-23h-277v23h11q79 0 79 90v267z" />
<glyph horiz-adv-x="409" d="M218 555q64 0 108 -38t44 -104q0 -83 -58.5 -160t-198.5 -188h150q49 0 75.5 18t37.5 65h17l-17 -148h-349v11q140 125 196 208.5t56 158.5q0 46 -28.5 72t-75.5 26q-78 0 -124 -80l-16 5q14 64 65 109t118 45z" />
<glyph horiz-adv-x="410" d="M174 -141q-72 0 -110.5 26.5t-38.5 60.5q0 19 11 31t29 12q20 0 31.5 -11t22.5 -38q19 -51 77 -51q47 0 81.5 39.5t34.5 111.5q0 78 -53 120.5t-130 42.5v13q74 30 107.5 69t33.5 94q0 49 -28.5 78t-77.5 29q-42 0 -73 -25.5t-44 -69.5l-15 5q10 71 58 115t115 44 q65 0 106.5 -38t41.5 -98q0 -93 -90 -154q57 -17 96.5 -62t39.5 -118q0 -96 -66.5 -161t-158.5 -65z" />
<glyph horiz-adv-x="531" d="M409 555v-500h89v-35h-89v-151h-104v151h-286v32l359 503h31zM305 386l-239 -331h239v331z" />
<glyph horiz-adv-x="474" d="M404 545l-10 -88h-274l-16 -131q52 20 113 20q104 0 166.5 -63.5t62.5 -171.5q0 -107 -71.5 -179.5t-163.5 -72.5q-63 0 -115 24.5t-52 67.5q0 21 12.5 34t31.5 13q44 0 55 -56q11 -53 74 -53q60 0 105.5 50t45.5 129q0 91 -52.5 140.5t-130.5 49.5q-61 0 -116 -34l-8 4 l40 317h303z" />
<glyph horiz-adv-x="479" d="M415 682v-20q-62 -5 -113 -35t-86.5 -77.5t-58.5 -105t-33 -122.5q25 38 67 62t93 24q80 0 131.5 -57t51.5 -141q0 -103 -63 -163.5t-155 -60.5q-97 0 -159.5 76t-62.5 207q0 166 116 289.5t268 123.5h4zM246 367q-38 0 -73 -23.5t-53 -60.5q-3 -15 -3 -42 q0 -102 38.5 -165.5t104.5 -63.5q51 0 81 46t30 126q0 85 -33.5 134t-91.5 49z" />
<glyph horiz-adv-x="465" d="M440 545v-14q-51 -55 -86 -112.5t-54.5 -108.5t-29.5 -120.5t-12.5 -127t-2.5 -149.5q0 -26 -14 -40t-35 -14q-47 0 -47 54q0 142 61 305t123 235h-182q-59 0 -88 -23t-35 -83h-20v198h422z" />
<glyph horiz-adv-x="442" d="M226 555q69 0 118 -39t49 -104q0 -90 -110 -161q143 -81 143 -206q0 -85 -61 -135.5t-133 -50.5q-81 0 -140 47.5t-59 122.5q0 101 123 185q-102 73 -102 175q0 66 51 116t121 50zM182 198q-66 -58 -66 -160q0 -61 32 -105t88 -44q45 0 76 30t31 79q0 103 -161 200z M220 524q-42 0 -69.5 -26t-27.5 -70q0 -48 30 -86.5t104 -78.5q72 58 72 144q0 50 -30.5 83.5t-78.5 33.5z" />
<glyph horiz-adv-x="481" d="M73 -141v20q62 5 113 35t86.5 77.5t58.5 105t33 122.5q-25 -38 -67 -62t-93 -24q-80 0 -132 57t-52 141q0 103 63.5 163.5t155.5 60.5q97 0 159.5 -76.5t62.5 -207.5q0 -166 -116 -289t-268 -123h-4zM242 174q38 0 73 23.5t53 60.5q3 15 3 42q0 101 -39 164.5t-105 63.5 q-51 0 -80.5 -46t-29.5 -126q0 -85 33.5 -133.5t91.5 -48.5z" />
<glyph d="M312 555q107 0 184 -79t77 -206q0 -126 -77 -205t-184 -79t-184 79t-77 205q0 127 77 206t184 79zM463 270q0 131 -41 191.5t-110 60.5t-109.5 -60.5t-40.5 -191.5t40.5 -191.5t109.5 -60.5t110 60.5t41 191.5z" />
<glyph d="M281 380q0 49 -19.5 69.5t-60.5 20.5h-11v23l174 52h13v-432q0 -90 80 -90h10v-23h-277v23h11q80 0 80 90v267z" />
<glyph d="M310 555q64 0 108 -38t44 -104q0 -83 -58.5 -160t-198.5 -188h150q49 0 75.5 18t37.5 65h17l-17 -148h-349v11q140 125 196 208.5t56 158.5q0 46 -28.5 72t-75.5 26q-78 0 -124 -80l-16 5q14 64 65 109t118 45z" />
<glyph d="M264 -141q-72 0 -110.5 26.5t-38.5 60.5q0 19 11 31t29 12q20 0 31.5 -11t22.5 -38q19 -51 77 -51q47 0 81.5 39.5t34.5 111.5q0 78 -53 120.5t-130 42.5v13q74 30 107.5 69t33.5 94q0 49 -28.5 78t-77.5 29q-42 0 -73 -25.5t-44 -69.5l-15 5q10 71 58 115t115 44 q65 0 106.5 -38t41.5 -98q0 -93 -90 -154q57 -17 96.5 -62t39.5 -118q0 -96 -66.5 -161t-158.5 -65z" />
<glyph d="M479 555v-500h89v-35h-89v-151h-103v151h-286v32l359 503h30zM376 386l-240 -331h240v331z" />
<glyph d="M479 545l-10 -88h-274l-16 -131q52 20 113 20q104 0 166.5 -63.5t62.5 -171.5q0 -107 -71.5 -179.5t-163.5 -72.5q-63 0 -115 24.5t-52 67.5q0 21 12.5 34t31.5 13q44 0 55 -56q11 -53 74 -53q60 0 105 50t45 129q0 91 -52 140.5t-130 49.5q-62 0 -117 -34l-7 4l40 317 h303z" />
<glyph d="M481 682v-20q-62 -5 -113 -35t-86.5 -77.5t-58.5 -105t-33 -122.5q25 38 67 62t93 24q80 0 132 -57t52 -141q0 -103 -63.5 -163.5t-155.5 -60.5q-97 0 -159.5 76t-62.5 207q0 166 116 289.5t268 123.5h4zM312 367q-38 0 -73 -23.5t-53 -60.5q-3 -15 -3 -42 q0 -102 39 -165.5t105 -63.5q51 0 80.5 46t29.5 126q0 85 -33.5 134t-91.5 49z" />
<glyph d="M543 545v-14q-51 -55 -86 -112.5t-54.5 -108.5t-30 -120.5t-13 -127t-2.5 -149.5q0 -26 -14 -40t-35 -14q-47 0 -47 54q0 142 61 305t123 235h-182q-59 0 -88 -23t-35 -83h-19v198h422z" />
<glyph d="M312 650q69 0 118 -39t49 -104q0 -90 -110 -161q143 -81 143 -206q0 -85 -61 -135.5t-133 -50.5q-81 0 -140 47.5t-59 122.5q0 101 123 185q-102 73 -102 175q0 66 51 116t121 50zM268 293q-66 -58 -66 -160q0 -61 32 -104.5t88 -43.5q46 0 76.5 29.5t30.5 78.5 q0 103 -161 200zM306 620q-42 0 -69.5 -26.5t-27.5 -70.5q0 -48 30 -86.5t104 -78.5q72 58 72 144q0 50 -30.5 84t-78.5 34z" />
<glyph d="M145 -141v20q62 5 113 35t86.5 77.5t58.5 105t33 122.5q-25 -38 -67 -62t-93 -24q-80 0 -131.5 57t-51.5 141q0 103 63 163.5t155 60.5q97 0 160 -76.5t63 -207.5q0 -166 -116 -289t-268 -123h-5zM314 174q38 0 73 23.5t53 60.5q3 15 3 42q0 102 -38.5 165t-104.5 63 q-51 0 -81 -46t-30 -126q0 -85 33.5 -133.5t91.5 -48.5z" />
<glyph horiz-adv-x="612" d="M306 731q118 0 197 -103t79 -270t-78.5 -269.5t-197.5 -102.5q-118 0 -196.5 102.5t-78.5 269.5t78.5 270t196.5 103zM147 358q0 -148 34 -229l227 504q-39 57 -102 57q-76 0 -117.5 -86.5t-41.5 -245.5zM465 358q0 149 -34 230l-226 -504q39 -57 101 -57 q76 0 117.5 86.5t41.5 244.5z" />
<glyph horiz-adv-x="589" d="M295 731q118 0 196.5 -103t78.5 -270t-78.5 -269.5t-196.5 -102.5q-119 0 -197.5 102.5t-78.5 269.5t79 270t197 103zM136 358q0 -148 34 -229l226 504q-39 57 -101 57q-76 0 -117.5 -86.5t-41.5 -245.5zM454 358q0 149 -34 230l-226 -504q39 -57 101 -57 q76 0 117.5 86.5t41.5 244.5z" />
<glyph horiz-adv-x="593" d="M297 555q107 0 184 -79t77 -206q0 -126 -77 -205t-184 -79t-184 79t-77 205q0 127 77 206t184 79zM148 270q0 -130 41 -193l187 419q-33 26 -79 26q-69 0 -109 -60.5t-40 -191.5zM445 270q0 131 -41 194l-186 -419q34 -27 79 -27q148 0 148 252z" />
<glyph horiz-adv-x="593" d="M297 555q107 0 184 -79t77 -206q0 -126 -77 -205t-184 -79t-184 79t-77 205q0 127 77 206t184 79zM148 270q0 -130 41 -193l187 419q-33 26 -79 26q-69 0 -109 -60.5t-40 -191.5zM445 270q0 131 -41 194l-186 -419q34 -27 79 -27q148 0 148 252z" />
<glyph horiz-adv-x="366" d="M183 731q62 0 102.5 -51t40.5 -138t-40.5 -138.5t-102.5 -51.5t-102 51.5t-40 138.5t40 138t102 51zM263 542q0 66 -16 111l-112 -253q19 -25 48 -25q38 0 59 43.5t21 123.5zM103 542q0 -64 17 -112l111 253q-19 26 -48 26q-38 0 -59 -43.5t-21 -123.5z" />
<glyph horiz-adv-x="366" d="M183 139q62 0 102.5 -51t40.5 -138t-40.5 -138.5t-102.5 -51.5t-102 51.5t-40 138.5t40 138t102 51zM263 -50q0 66 -16 111l-112 -252q19 -26 48 -26q38 0 59 43.5t21 123.5zM103 -50q0 -64 17 -112l111 253q-19 26 -48 26q-38 0 -59 -43.5t-21 -123.5z" />
<glyph horiz-adv-x="561" d="M537 376v-35h-398l95 -157l-15 -12l-196 176v21l196 176l15 -13l-95 -156h398z" />
<glyph horiz-adv-x="561" d="M25 341v35h397l-95 156l15 13l197 -176v-21l-197 -176l-15 12l95 157h-397z" />
<glyph horiz-adv-x="454" d="M245 101h-35v398l-157 -96l-12 16l176 196h21l176 -196l-13 -16l-156 96v-398z" />
<glyph horiz-adv-x="454" d="M210 615h35v-397l156 95l13 -15l-176 -197h-21l-176 197l12 15l157 -95v397z" />
<glyph horiz-adv-x="479" d="M430 189l-26 -25l-280 281l-43 -178l-20 2l-15 263l15 16l264 -16l2 -19l-179 -43z" />
<glyph horiz-adv-x="479" d="M75 164l-26 25l282 281l-178 43l2 19l263 16l15 -16l-15 -263l-20 -2l-43 178z" />
<glyph horiz-adv-x="479" d="M404 548l26 -26l-282 -280l179 -43l-2 -20l-264 -15l-15 15l15 263l20 2l43 -178z" />
<glyph horiz-adv-x="479" d="M49 522l26 26l280 -282l43 178l20 -2l15 -263l-15 -15l-263 15l-2 20l178 43z" />
<glyph horiz-adv-x="761" d="M139 341l95 -157l-15 -12l-196 176v21l196 176l15 -13l-95 -156h484l-96 156l16 13l196 -176v-21l-196 -176l-16 12l96 157h-484z" />
<glyph horiz-adv-x="454" d="M210 600l-157 -95l-12 15l176 197h21l176 -197l-13 -15l-156 95v-483l156 95l13 -15l-176 -197h-21l-176 197l12 15l157 -95v483z" />
</font>
</defs>
</svg>
